<svg width="60" height="60" viewBox="0 0 60 60" fill="none" xmlns="http://www.w3.org/2000/svg">
<path d="M30.3465 0.419922H30.3334C14.1197 0.419922 0.97583 13.5636 0.97583 29.7769V29.7901C0.97583 46.0034 14.1197 59.1468 30.3334 59.1468H30.3465C46.5602 59.1468 59.704 46.0034 59.704 29.7901V29.7769C59.704 13.5636 46.5602 0.419922 30.3465 0.419922Z" fill="white"/>
<path d="M9.04566 28.5584V32.6719H7.82731V28.5584H7.39502V27.432H7.82731V25.4014C7.82731 24.7464 7.94522 24.2748 8.16793 23.9997C8.48233 23.6198 8.94082 23.4233 9.54343 23.4233C9.75303 23.4233 10.0282 23.489 10.3557 23.6069V24.8513L10.2378 24.7858C9.97578 24.6548 9.76615 24.5894 9.59584 24.5894C9.38624 24.5894 9.22906 24.6679 9.16355 24.8251C9.08495 24.9823 9.04566 25.2704 9.04566 25.7027V27.432H10.3688V28.5584H9.04566Z" fill="#F65275"/>
<path d="M14.9406 27.4191H16.1589V32.659H14.9406V32.1089C14.4428 32.5805 13.9057 32.8029 13.3293 32.8029C12.6088 32.8029 12.0062 32.5411 11.5346 32.0171C11.063 31.48 10.8271 30.8119 10.8271 30.0128C10.8271 29.2137 11.063 28.5718 11.5346 28.0478C12.0062 27.5238 12.5957 27.2617 13.3031 27.2617C13.9188 27.2617 14.4559 27.5107 14.9406 28.0216V27.4191ZM12.0586 30.0259C12.0586 30.5237 12.1896 30.9428 12.4647 31.2572C12.7398 31.5716 13.0935 31.7421 13.5127 31.7421C13.9581 31.7421 14.3249 31.5848 14.6 31.2835C14.8751 30.9691 15.0192 30.5631 15.0192 30.0653C15.0192 29.5675 14.8751 29.1615 14.6 28.8471C14.3249 28.5327 13.9581 28.3753 13.5258 28.3753C13.1066 28.3753 12.766 28.5327 12.4778 28.8471C12.2027 29.1615 12.0586 29.5674 12.0586 30.0259Z" fill="#F65275"/>
<path d="M21.7659 27.6413V29.2526C21.4907 28.912 21.2418 28.6892 21.0191 28.5582C20.8095 28.4272 20.5475 28.3619 20.2593 28.3619C19.8008 28.3619 19.4209 28.5192 19.1196 28.8467C18.8183 29.1611 18.6611 29.5671 18.6611 30.0518C18.6611 30.5365 18.8052 30.9425 19.0934 31.27C19.3816 31.5844 19.7615 31.7417 20.22 31.7417C20.5082 31.7417 20.7702 31.6761 20.9929 31.5582C21.2025 31.4403 21.4645 31.2044 21.7527 30.8507V32.4492C21.2549 32.6981 20.7702 32.8288 20.2724 32.8288C19.4602 32.8288 18.779 32.567 18.2419 32.043C17.6917 31.519 17.4297 30.864 17.4297 30.078C17.4297 29.292 17.7048 28.637 18.255 28.0999C18.8052 27.5628 19.4864 27.2876 20.2855 27.2876C20.7964 27.2876 21.2942 27.4055 21.7527 27.6544L21.7659 27.6413Z" fill="#F65275"/>
<path d="M27.7134 30.3269H23.9537C23.9799 30.7592 24.124 31.0998 24.3729 31.3618C24.6218 31.6107 24.9362 31.7417 25.3292 31.7417C25.6305 31.7417 25.8794 31.676 26.0759 31.5319C26.2724 31.3878 26.4951 31.126 26.744 30.733L27.7658 31.3093C27.6086 31.5844 27.4383 31.8072 27.268 32.0037C27.0977 32.2002 26.9012 32.3572 26.7047 32.4751C26.5082 32.593 26.2855 32.685 26.0497 32.7505C25.8139 32.8029 25.565 32.8419 25.2899 32.8419C24.5039 32.8419 23.8751 32.5933 23.4035 32.0824C22.9319 31.5715 22.696 30.9033 22.696 30.0649C22.696 29.2265 22.9318 28.5584 23.3904 28.0475C23.8489 27.5366 24.4646 27.2876 25.2375 27.2876C26.0104 27.2876 26.6261 27.5366 27.0715 28.0213C27.5169 28.506 27.7396 29.1872 27.7396 30.0518V30.34L27.7134 30.3269ZM26.4689 29.3444C26.2986 28.7025 25.8925 28.375 25.2506 28.375C25.1065 28.375 24.9624 28.4013 24.8314 28.4406C24.7004 28.4799 24.5825 28.5452 24.4777 28.6369C24.3729 28.7286 24.2812 28.8203 24.2026 28.9382C24.124 29.0561 24.0716 29.1872 24.0323 29.3444H26.4689Z" fill="#F65275"/>
<path d="M30.2548 23.5679V28.0217C30.7395 27.5239 31.2897 27.2618 31.9054 27.2618C32.6128 27.2618 33.2023 27.5239 33.6739 28.0479C34.1455 28.5719 34.3814 29.2269 34.3814 30.0129C34.3814 30.7989 34.1455 31.4932 33.6739 32.0172C33.2023 32.5412 32.6128 32.803 31.8923 32.803C31.2897 32.803 30.7395 32.5675 30.2679 32.109V32.6591H29.0496V23.5679H30.2679H30.2548ZM33.1368 30.0785C33.1368 29.5807 33.0058 29.1616 32.7307 28.8472C32.4556 28.5197 32.1019 28.3623 31.6958 28.3623C31.2504 28.3623 30.8836 28.5196 30.6085 28.834C30.3334 29.1484 30.1893 29.5413 30.1893 30.0391C30.1893 30.5369 30.3203 30.956 30.5954 31.2573C30.8705 31.5717 31.2242 31.7291 31.6696 31.7291C32.0888 31.7291 32.4425 31.5717 32.7176 31.2573C32.9927 30.9429 33.1368 30.5501 33.1368 30.0785Z" fill="#F65275"/>
<path d="M35.4032 30.0129C35.4032 29.2531 35.6783 28.6112 36.2154 28.0741C36.7525 27.537 37.4206 27.2749 38.1935 27.2749C38.9665 27.2749 39.6346 27.537 40.1848 28.0741C40.7219 28.6112 40.997 29.2662 40.997 30.0391C40.997 30.812 40.7219 31.4801 40.1848 32.0172C39.6346 32.5412 38.9664 32.803 38.1804 32.803C37.3944 32.803 36.7394 32.5281 36.2023 31.991C35.6652 31.4539 35.4032 30.7858 35.4032 29.9867V30.0129ZM36.6477 30.026C36.6477 30.55 36.7918 30.9691 37.0669 31.2704C37.3551 31.5848 37.735 31.7291 38.2066 31.7291C38.6782 31.7291 39.0581 31.5717 39.3463 31.2704C39.6345 30.9691 39.7655 30.5631 39.7655 30.0522C39.7655 29.5413 39.6214 29.1353 39.3463 28.834C39.0581 28.5196 38.6782 28.3754 38.2066 28.3754C37.735 28.3754 37.3682 28.5327 37.08 28.834C36.7918 29.1353 36.6477 29.5413 36.6477 30.026Z" fill="#F65275"/>
<path d="M42.045 30.0129C42.045 29.2531 42.3201 28.6112 42.8572 28.0741C43.3944 27.537 44.0624 27.2749 44.8354 27.2749C45.6083 27.2749 46.2764 27.537 46.8266 28.0741C47.3637 28.6112 47.6388 29.2662 47.6388 30.0391C47.6388 30.812 47.3637 31.4801 46.8266 32.0172C46.2764 32.5412 45.6083 32.803 44.8223 32.803C44.0363 32.803 43.3812 32.5281 42.8441 31.991C42.307 31.4539 42.045 30.7858 42.045 29.9867V30.0129ZM43.2764 30.026C43.2764 30.55 43.4205 30.9691 43.6956 31.2704C43.9838 31.5848 44.3637 31.7291 44.8354 31.7291C45.307 31.7291 45.6869 31.5717 45.9751 31.2704C46.2633 30.9691 46.3943 30.5631 46.3943 30.0522C46.3943 29.5413 46.2502 29.1353 45.9751 28.834C45.6869 28.5196 45.307 28.3754 44.8354 28.3754C44.3637 28.3754 43.997 28.5327 43.7088 28.834C43.4206 29.1353 43.2764 29.5413 43.2764 30.026Z" fill="#F65275"/>
<path d="M50.1279 23.5678V29.109L51.8309 27.406H53.4553L51.1759 29.6067L53.6256 32.6459H52.0536L50.3243 30.4321L50.1279 30.6285V32.6459H48.9095V23.5547H50.1279V23.5678Z" fill="#F65275"/>
</svg>
