<svg width="382" height="93" viewBox="0 0 382 93" fill="none" xmlns="http://www.w3.org/2000/svg">
<path d="M17.2692 7.39531L13.85 9.4258C13.2081 8.31231 12.6055 7.59181 12.0291 7.25121C11.4265 6.87132 10.6536 6.67483 9.69726 6.67483C8.53134 6.67483 7.56192 7.00232 6.78901 7.67041C6.0161 8.3254 5.63619 9.1376 5.63619 10.1332C5.63619 11.4956 6.64491 12.596 8.67544 13.4213L11.4658 14.5609C13.7321 15.4779 15.3827 16.5914 16.4308 17.9145C17.4788 19.2376 18.0028 20.8489 18.0028 22.7746C18.0028 25.3421 17.1513 27.4643 15.4351 29.1411C13.7059 30.831 11.5706 31.6694 9.01604 31.6694C6.59251 31.6694 4.58817 30.9489 3.01615 29.521C1.45723 28.0931 0.487816 26.0626 0.10791 23.4689L4.37857 22.5257C4.57508 24.1632 4.91568 25.3028 5.38729 25.9185C6.2519 27.1237 7.52262 27.7263 9.18634 27.7263C10.4964 27.7263 11.5968 27.2809 12.4614 26.4032C13.326 25.5255 13.7583 24.412 13.7583 23.0628C13.7583 22.5257 13.6797 22.0279 13.5356 21.5694C13.3915 21.1109 13.1557 20.7048 12.8282 20.3249C12.5138 19.945 12.0946 19.5913 11.5968 19.2638C11.099 18.9363 10.4833 18.6219 9.78896 18.3206L7.09031 17.194C3.26506 15.5827 1.36553 13.2117 1.36553 10.107C1.36553 8.01101 2.16464 6.25563 3.77596 4.84084C5.37419 3.41296 7.37852 2.70557 9.76276 2.70557C12.9854 2.70557 15.4875 4.27755 17.2954 7.40842L17.2692 7.39531Z" fill="white"/>
<path d="M21.4612 22.2247C21.4612 19.6833 22.3652 17.5218 24.1861 15.7402C26.007 13.9587 28.2209 13.0679 30.841 13.0679C33.461 13.0679 35.7012 13.9718 37.5352 15.7664C39.343 17.5611 40.2469 19.7619 40.2469 22.3819C40.2469 25.0019 39.343 27.2288 37.5221 29.0104C35.6881 30.7789 33.4479 31.6697 30.7755 31.6697C28.103 31.6697 25.9284 30.7658 24.1468 28.958C22.3652 27.1764 21.4743 24.9364 21.4743 22.2378L21.4612 22.2247ZM25.6271 22.2902C25.6271 24.0456 26.0987 25.4473 27.0419 26.469C28.0113 27.5039 29.2821 28.0279 30.8541 28.0279C32.4261 28.0279 33.7099 27.517 34.6662 26.4952C35.6226 25.4734 36.0942 24.098 36.0942 22.395C36.0942 20.692 35.6226 19.3165 34.6662 18.2947C33.6968 17.2598 32.4261 16.7358 30.8541 16.7358C29.2821 16.7358 28.0375 17.2598 27.0812 18.2947C26.1118 19.3296 25.6402 20.6658 25.6402 22.3033L25.6271 22.2902Z" fill="white"/>
<path d="M44.5438 13.5394H48.6311V15.1638C50.059 13.749 51.6572 13.0547 53.4388 13.0547C55.4825 13.0547 57.0807 13.6966 58.2335 14.9935C59.216 16.0939 59.7138 17.8754 59.7138 20.3644V31.1587H55.6266V21.3207C55.6266 19.5915 55.3908 18.3863 54.9061 17.7182C54.4345 17.0371 53.583 16.7096 52.3384 16.7096C50.9891 16.7096 50.0328 17.155 49.4695 18.0457C48.9193 18.9234 48.6442 20.4561 48.6442 22.6569V31.1587H44.5569V13.5525L44.5438 13.5394Z" fill="white"/>
<path d="M64.8491 13.5394H68.9364V15.1638C70.3643 13.749 71.9625 13.0547 73.7441 13.0547C75.7878 13.0547 77.386 13.6966 78.5388 14.9935C79.5213 16.0939 80.0191 17.8754 80.0191 20.3644V31.1587H75.9319V21.3207C75.9319 19.5915 75.6961 18.3863 75.2114 17.7182C74.7398 17.0371 73.8883 16.7096 72.6437 16.7096C71.2944 16.7096 70.3381 17.155 69.7748 18.0457C69.2246 18.9234 68.9495 20.4561 68.9495 22.6569V31.1587H64.8622V13.5525L64.8491 13.5394Z" fill="white"/>
<path d="M90.6958 27.8835L82.7833 13.5522H87.4993L92.8835 23.6784L97.914 13.5522H102.512L88.4818 40.7476H83.8313L90.6958 27.8966V27.8835Z" fill="white"/>
<path d="M131.123 24.3728H119.176L116.071 31.1585H111.538L125.346 1.4873L138.669 31.1585H134.057L131.123 24.3728ZM129.407 20.4166L125.267 10.9192L120.931 20.4166H129.407Z" fill="white"/>
<path d="M141.367 13.5394H145.455V15.1638C146.883 13.749 148.481 13.0547 150.262 13.0547C152.306 13.0547 153.904 13.6966 155.057 14.9935C156.04 16.0939 156.537 17.8754 156.537 20.3644V31.1587H152.45V21.3207C152.45 19.5915 152.214 18.3863 151.73 17.7182C151.258 17.0371 150.407 16.7096 149.162 16.7096C147.813 16.7096 146.856 17.155 146.293 18.0457C145.743 18.9234 145.468 20.4561 145.468 22.6569V31.1587H141.38V13.5525L141.367 13.5394Z" fill="white"/>
<path d="M178.703 30.7395C178.703 31.5648 178.677 32.2984 178.624 32.9403C178.572 33.5691 178.493 34.1324 178.402 34.6171C178.113 35.9402 177.55 37.0799 176.699 38.0361C175.113 39.8701 172.926 40.7871 170.135 40.7871C167.79 40.7871 165.852 40.1583 164.332 38.8876C162.76 37.5907 161.856 35.783 161.62 33.4774H165.708C165.865 34.342 166.127 35.0101 166.48 35.4817C167.319 36.582 168.55 37.1323 170.175 37.1323C173.148 37.1323 174.642 35.3114 174.642 31.6565V29.1937C173.031 30.8443 171.17 31.6696 169.061 31.6696C166.664 31.6696 164.699 30.805 163.166 29.0627C161.62 27.3073 160.847 25.1066 160.847 22.4604C160.847 19.8142 161.568 17.7182 162.996 15.9105C164.542 14.011 166.572 13.0547 169.1 13.0547C171.314 13.0547 173.162 13.88 174.629 15.5306V13.5394H178.703V30.7264V30.7395ZM174.799 22.3818C174.799 20.6657 174.341 19.3033 173.424 18.2815C172.493 17.2336 171.314 16.7096 169.86 16.7096C168.314 16.7096 167.096 17.286 166.205 18.4256C165.393 19.4474 164.987 20.7705 164.987 22.408C164.987 24.0455 165.393 25.3293 166.205 26.3511C167.083 27.4776 168.301 28.0278 169.86 28.0278C171.419 28.0278 172.651 27.4646 173.555 26.3249C174.38 25.3031 174.799 23.9931 174.799 22.3818Z" fill="white"/>
<path d="M199.873 23.312H187.257C187.362 24.753 187.834 25.9057 188.672 26.7703C189.498 27.6087 190.572 28.041 191.869 28.041C192.877 28.041 193.716 27.8052 194.384 27.3205C195.039 26.8358 195.773 25.945 196.611 24.6482L200.043 26.5607C199.506 27.4646 198.956 28.2375 198.366 28.8794C197.777 29.5213 197.148 30.0584 196.467 30.4645C195.786 30.8837 195.065 31.185 194.279 31.3815C193.493 31.578 192.642 31.6697 191.725 31.6697C189.091 31.6697 186.982 30.8313 185.397 29.1414C183.812 27.4384 183.013 25.1853 183.013 22.3819C183.013 19.5785 183.786 17.3384 185.332 15.6223C186.891 13.9194 188.947 13.0679 191.515 13.0679C194.083 13.0679 196.152 13.8932 197.659 15.5437C199.152 17.1812 199.899 19.4606 199.899 22.3557V23.312H199.873ZM195.694 19.9846C195.131 17.81 193.755 16.7358 191.594 16.7358C191.096 16.7358 190.637 16.8144 190.205 16.9585C189.773 17.1026 189.38 17.3253 189.026 17.6135C188.672 17.9017 188.371 18.2423 188.109 18.6353C187.86 19.0283 187.664 19.4868 187.533 19.9977H195.707L195.694 19.9846Z" fill="white"/>
<path d="M208.388 0.623047V31.1589H204.314V0.623047H208.388Z" fill="white"/>
<path d="M237.392 15.622L242.422 21.7003L242.58 21.5169C243.117 20.9274 243.628 20.351 244.112 19.7877C244.597 19.2244 245.055 18.648 245.501 18.0716L248.252 20.8881C247.911 21.3728 247.466 21.9361 246.929 22.5649C246.379 23.2068 245.724 23.9404 244.964 24.7657L250.138 31.1453H244.898L242.108 27.7263C239.553 30.3724 236.894 31.6824 234.13 31.6824C231.654 31.6824 229.558 30.8964 227.842 29.3113C226.152 27.7263 225.313 25.7613 225.313 23.4164C225.313 20.6261 226.65 18.3205 229.322 16.4735L231.143 15.229C231.143 15.229 231.209 15.1897 231.274 15.1373C231.34 15.0849 231.418 15.0194 231.523 14.9408C229.676 12.9758 228.759 11.037 228.759 9.13753C228.759 7.23805 229.375 5.73156 230.606 4.53948C231.864 3.36049 233.475 2.771 235.453 2.771C237.431 2.771 238.951 3.34739 240.208 4.48708C241.466 5.62676 242.095 7.08086 242.095 8.82314C242.095 10.0283 241.754 11.1156 241.06 12.0981C240.379 13.0806 239.16 14.2465 237.392 15.6089V15.622ZM234.051 17.993L233.816 18.1502C232.086 19.3423 230.92 20.2986 230.292 21.0191C229.676 21.7396 229.375 22.5125 229.375 23.3116C229.375 24.4644 229.833 25.5255 230.763 26.4949C231.733 27.425 232.794 27.8834 233.947 27.8834C235.571 27.8834 237.444 26.8224 239.566 24.6871L234.051 17.9799V17.993ZM234.955 12.6614L235.296 12.4125C235.885 11.9671 236.37 11.5741 236.763 11.2466C237.143 10.9191 237.431 10.6309 237.588 10.4082C237.955 9.96283 238.125 9.41263 238.125 8.75764C238.125 8.02404 237.877 7.42146 237.379 6.96296C236.881 6.50447 236.226 6.28176 235.388 6.28176C234.628 6.28176 233.986 6.51756 233.475 6.98916C232.951 7.43455 232.702 8.01094 232.702 8.70524C232.702 9.53053 233.029 10.3296 233.685 11.1287L234.733 12.3994C234.733 12.3994 234.837 12.5566 234.955 12.6745V12.6614Z" fill="white"/>
<path d="M279.326 7.39531L275.906 9.4258C275.264 8.31231 274.662 7.59181 274.085 7.25121C273.483 6.87132 272.71 6.67483 271.754 6.67483C270.588 6.67483 269.618 7.00232 268.845 7.67041C268.073 8.3254 267.693 9.1376 267.693 10.1332C267.693 11.4956 268.701 12.596 270.732 13.4213L273.522 14.5609C275.789 15.4779 277.439 16.5914 278.487 17.9145C279.535 19.2376 280.059 20.8489 280.059 22.7746C280.059 25.3421 279.208 27.4643 277.492 29.1411C275.762 30.831 273.627 31.6694 271.072 31.6694C268.649 31.6694 266.645 30.9489 265.073 29.521C263.514 28.0931 262.544 26.0626 262.164 23.4689L266.435 22.5257C266.631 24.1632 266.972 25.3028 267.444 25.9185C268.308 27.1237 269.579 27.7263 271.243 27.7263C272.553 27.7263 273.653 27.2809 274.518 26.4032C275.382 25.5255 275.815 24.412 275.815 23.0628C275.815 22.5257 275.736 22.0279 275.592 21.5694C275.448 21.1109 275.212 20.7048 274.885 20.3249C274.57 19.945 274.151 19.5913 273.653 19.2638C273.155 18.9363 272.54 18.6219 271.845 18.3206L269.147 17.194C265.321 15.5827 263.422 13.2117 263.422 10.107C263.422 8.01101 264.221 6.25563 265.832 4.84084C267.431 3.41296 269.435 2.70557 271.819 2.70557C275.042 2.70557 277.544 4.27755 279.352 7.40842L279.326 7.39531Z" fill="white"/>
<path d="M284.146 31.1588L290.028 1.14697L299.605 22.8404L309.535 1.14697L314.814 31.1588H310.491L307.792 14.3123L299.526 32.4426L291.496 14.2861L288.496 31.1588H284.133H284.146Z" fill="white"/>
<path d="M324.927 3.24268V31.1585H320.709V3.24268H324.927Z" fill="white"/>
<path d="M347.42 7.39531L344.001 9.4258C343.359 8.31231 342.757 7.59181 342.18 7.25121C341.578 6.87132 340.805 6.67483 339.848 6.67483C338.683 6.67483 337.713 7.00232 336.94 7.67041C336.167 8.3254 335.787 9.1376 335.787 10.1332C335.787 11.4956 336.796 12.596 338.827 13.4213L341.617 14.5609C343.883 15.4779 345.534 16.5914 346.582 17.9145C347.63 19.2376 348.154 20.8489 348.154 22.7746C348.154 25.3421 347.302 27.4643 345.586 29.1411C343.857 30.831 341.722 31.6694 339.167 31.6694C336.744 31.6694 334.739 30.9489 333.167 29.521C331.608 28.0931 330.639 26.0626 330.259 23.4689L334.53 22.5257C334.726 24.1632 335.067 25.3028 335.539 25.9185C336.403 27.1237 337.674 27.7263 339.338 27.7263C340.648 27.7263 341.748 27.2809 342.613 26.4032C343.477 25.5255 343.91 24.412 343.91 23.0628C343.91 22.5257 343.831 22.0279 343.687 21.5694C343.543 21.1109 343.307 20.7048 342.979 20.3249C342.665 19.945 342.246 19.5913 341.748 19.2638C341.25 18.9363 340.634 18.6219 339.94 18.3206L337.242 17.194C333.416 15.5827 331.517 13.2117 331.517 10.107C331.517 8.01101 332.316 6.25563 333.927 4.84084C335.525 3.41296 337.53 2.70557 339.914 2.70557C343.137 2.70557 345.639 4.27755 347.447 7.40842L347.42 7.39531Z" fill="white"/>
<path d="M357.429 14.3776L368.289 3.24268H373.909L361.294 15.8841L373.988 31.1585H368.341L358.294 18.7398L357.429 19.6044V31.1585H353.211V3.24268H357.429V14.3776Z" fill="white"/>
<path d="M381.966 3.24268V31.1585H377.747V3.24268H381.966Z" fill="white"/>
<path d="M0.0948486 69.2398C0.0948486 65.3098 1.53587 61.93 4.41791 59.1136C7.28686 56.2971 10.7322 54.8823 14.754 54.8823C18.7757 54.8823 22.1425 56.3102 24.9852 59.1529C27.8411 61.9955 29.269 65.4146 29.269 69.397C29.269 73.3793 27.8411 76.8115 24.9721 79.6149C22.0901 82.4182 18.6185 83.833 14.5444 83.833C10.9418 83.833 7.70606 82.5885 4.83712 80.0865C1.67997 77.3224 0.0948486 73.7068 0.0948486 69.2398ZM4.33931 69.3053C4.33931 72.3968 5.37423 74.9251 7.44406 76.9163C9.50079 78.9075 11.885 79.9031 14.5837 79.9031C17.5181 79.9031 19.9809 78.8944 21.9984 76.8639C24.0158 74.8203 25.0114 72.3182 25.0114 69.3839C25.0114 66.4495 24.0158 63.9081 22.0246 61.9039C20.0465 59.8734 17.5967 58.8647 14.6885 58.8647C11.7802 58.8647 9.33049 59.8734 7.32616 61.9039C5.32183 63.9081 4.32621 66.3709 4.32621 69.3184L4.33931 69.3053Z" fill="white"/>
<path d="M38.0068 69.515V83.3222H33.9195V69.515H32.4785V65.716H33.9195V58.9172C33.9195 56.7033 34.2994 55.1313 35.0724 54.2143C36.1335 52.9305 37.6793 52.3018 39.6967 52.3018C40.4172 52.3018 41.3343 52.5114 42.4216 52.9305V57.0832L42.0024 56.8605C41.1247 56.4151 40.4041 56.1924 39.8277 56.1924C39.1072 56.1924 38.6225 56.4544 38.3605 56.9653C38.1116 57.4762 37.9806 58.4456 37.9806 59.8997V65.7029H42.4085V69.5019H37.9806L38.0068 69.515Z" fill="white"/>
<path d="M48.9979 69.515V83.3222H44.9106V69.515H43.4696V65.716H44.9106V58.9172C44.9106 56.7033 45.2905 55.1313 46.0634 54.2143C47.1246 52.9305 48.6704 52.3018 50.6878 52.3018C51.4083 52.3018 52.3253 52.5114 53.4127 52.9305V57.0832L52.9935 56.8605C52.1157 56.4151 51.3952 56.1924 50.8188 56.1924C50.0983 56.1924 49.6136 56.4544 49.3516 56.9653C49.1027 57.4762 48.9717 58.4456 48.9717 59.8997V65.7029H53.3996V69.5019H48.9717L48.9979 69.515Z" fill="white"/>
<path d="M55.155 58.3934C55.155 57.686 55.417 57.0703 55.9279 56.5463C56.4519 56.0223 57.0676 55.7734 57.7881 55.7734C58.5086 55.7734 59.1505 56.0354 59.6745 56.5463C60.1985 57.0572 60.4474 57.6729 60.4474 58.4065C60.4474 59.1401 60.1854 59.7689 59.6745 60.2929C59.1636 60.8169 58.5479 61.0658 57.8143 61.0658C57.0807 61.0658 56.4519 60.8038 55.9279 60.2929C55.4039 59.7689 55.155 59.1401 55.155 58.3934ZM59.8448 65.7162V83.3225H55.7707V65.7162H59.8448Z" fill="white"/>
<path d="M78.696 66.4758V71.8861C77.7659 70.7595 76.9406 69.9735 76.1939 69.5543C75.4734 69.122 74.6219 68.8993 73.6394 68.8993C72.1066 68.8993 70.8359 69.4364 69.8272 70.5106C68.8185 71.5848 68.3076 72.921 68.3076 74.5454C68.3076 76.1697 68.7923 77.5583 69.7748 78.6063C70.7573 79.6674 72.028 80.1914 73.5477 80.1914C74.5171 80.1914 75.3817 79.9818 76.1284 79.5626C76.8489 79.1565 77.7004 78.3574 78.6829 77.1784V82.5494C77.0323 83.4009 75.3817 83.8332 73.7311 83.8332C71.0062 83.8332 68.7268 82.9555 66.8928 81.187C65.0587 79.4185 64.1417 77.2177 64.1417 74.5847C64.1417 71.9516 65.0718 69.7377 66.9321 67.9299C68.7923 66.1221 71.0717 65.2183 73.7704 65.2183C75.4996 65.2183 77.1502 65.6375 78.6829 66.4627L78.696 66.4758Z" fill="white"/>
<path d="M82.0234 58.3934C82.0234 57.686 82.2854 57.0703 82.7964 56.5463C83.3204 56.0223 83.9361 55.7734 84.6566 55.7734C85.3771 55.7734 86.019 56.0354 86.543 56.5463C87.067 57.0572 87.3159 57.6729 87.3159 58.4065C87.3159 59.1401 87.0539 59.7689 86.543 60.2929C86.0321 60.8169 85.4164 61.0658 84.6828 61.0658C83.9492 61.0658 83.3204 60.8038 82.7964 60.2929C82.2723 59.7689 82.0234 59.1401 82.0234 58.3934ZM86.7002 65.7162V83.3225H82.6261V65.7162H86.7002Z" fill="white"/>
<path d="M104.831 65.716H108.918V83.3223H104.831V81.4752C103.154 83.0472 101.359 83.8201 99.4205 83.8201C96.9839 83.8201 94.9796 82.9424 93.3813 81.1739C91.8093 79.3792 91.0102 77.1391 91.0102 74.4537C91.0102 71.7682 91.7962 69.6198 93.3813 67.8513C94.9665 66.0959 96.9315 65.2183 99.3157 65.2183C101.359 65.2183 103.206 66.0566 104.831 67.7465V65.703V65.716ZM95.1761 74.4668C95.1761 76.1567 95.6346 77.5321 96.5385 78.5932C97.4686 79.6674 98.6345 80.2045 100.049 80.2045C101.556 80.2045 102.774 79.6805 103.704 78.6456C104.634 77.5714 105.093 76.209 105.093 74.5585C105.093 72.9079 104.634 71.5455 103.704 70.4713C102.774 69.4233 101.569 68.8993 100.089 68.8993C98.6869 68.8993 97.521 69.4364 96.5778 70.4844C95.6477 71.5586 95.1892 72.8817 95.1892 74.4668H95.1761Z" fill="white"/>
<path d="M118.115 52.7998V83.3356H114.04V52.7998H118.115Z" fill="white"/>
<path d="M144.931 68.7158L141.564 70.5104C141.04 69.4232 140.372 68.886 139.599 68.886C139.219 68.886 138.905 69.004 138.643 69.2529C138.381 69.5018 138.25 69.8161 138.25 70.196C138.25 70.8772 139.036 71.5453 140.594 72.2003C142.756 73.1304 144.21 73.9819 144.957 74.7679C145.704 75.5539 146.083 76.6019 146.083 77.9381C146.083 79.641 145.455 81.0558 144.197 82.2086C142.979 83.2959 141.511 83.833 139.782 83.833C136.835 83.833 134.739 82.392 133.507 79.51L136.979 77.8988C137.464 78.7372 137.83 79.2742 138.079 79.51C138.577 79.9685 139.167 80.1912 139.848 80.1912C141.223 80.1912 141.904 79.5624 141.904 78.3049C141.904 77.5844 141.367 76.9032 140.319 76.2744C139.913 76.0648 139.494 75.8683 139.088 75.6718C138.682 75.4753 138.263 75.2788 137.843 75.0692C136.664 74.4928 135.826 73.9164 135.354 73.34C134.739 72.6064 134.437 71.6632 134.437 70.4973C134.437 68.9647 134.961 67.7071 136.009 66.6984C137.084 65.7028 138.381 65.1919 139.913 65.1919C142.166 65.1919 143.843 66.3578 144.944 68.6765L144.931 68.7158Z" fill="white"/>
<path d="M153.917 69.515V83.3223H149.843V69.515H148.114V65.716H149.843V59.2578H153.917V65.716H157.088V69.515H153.917Z" fill="white"/>
<path d="M159.013 74.4014C159.013 71.8601 159.917 69.6986 161.738 67.917C163.559 66.1354 165.773 65.2446 168.393 65.2446C171.013 65.2446 173.253 66.1485 175.087 67.9432C176.895 69.7379 177.799 71.9387 177.799 74.5586C177.799 77.1786 176.895 79.4056 175.074 81.1872C173.24 82.9557 171 83.8465 168.328 83.8465C165.655 83.8465 163.48 82.9426 161.699 81.1348C159.917 79.3532 159.026 77.1131 159.026 74.4145L159.013 74.4014ZM163.166 74.4669C163.166 76.2223 163.638 77.624 164.581 78.6458C165.55 79.6807 166.821 80.2047 168.393 80.2047C169.965 80.2047 171.249 79.6938 172.205 78.672C173.162 77.6502 173.633 76.2747 173.633 74.5718C173.633 72.8688 173.162 71.4933 172.205 70.4715C171.236 69.4366 169.965 68.9126 168.393 68.9126C166.821 68.9126 165.577 69.4366 164.62 70.4715C163.651 71.5064 163.179 72.8426 163.179 74.48L163.166 74.4669Z" fill="white"/>
<path d="M182.096 65.7161H186.17V67.2881C186.917 66.5021 187.585 65.965 188.161 65.6768C188.751 65.3755 189.445 65.2314 190.257 65.2314C191.332 65.2314 192.445 65.5851 193.624 66.2794L191.764 69.9998C190.991 69.4496 190.244 69.1745 189.497 69.1745C187.284 69.1745 186.17 70.8513 186.17 74.2049V83.3355H182.096V65.7292V65.7161Z" fill="white"/>
<path d="M211.977 75.4756H199.362C199.467 76.9165 199.938 78.0693 200.777 78.9339C201.602 79.7723 202.676 80.2046 203.973 80.2046C204.982 80.2046 205.82 79.9688 206.488 79.4841C207.143 78.9994 207.877 78.1086 208.715 76.8117L212.148 78.7243C211.611 79.6282 211.06 80.4011 210.471 81.043C209.881 81.6849 209.253 82.222 208.571 82.6281C207.89 83.0473 207.17 83.3486 206.384 83.5451C205.598 83.7416 204.746 83.8333 203.829 83.8333C201.196 83.8333 199.087 82.9949 197.502 81.305C195.917 79.602 195.117 77.3488 195.117 74.5455C195.117 71.7421 195.89 69.502 197.436 67.7859C198.995 66.0829 201.052 65.2314 203.62 65.2314C206.187 65.2314 208.257 66.0567 209.764 67.7073C211.257 69.3448 212.004 71.6242 212.004 74.5192V75.4756H211.977ZM207.798 72.1613C207.235 69.9867 205.86 68.9125 203.698 68.9125C203.2 68.9125 202.742 68.9911 202.309 69.1352C201.877 69.2793 201.484 69.502 201.13 69.7902C200.777 70.0784 200.475 70.419 200.213 70.812C199.965 71.205 199.768 71.6635 199.637 72.1744H207.812L207.798 72.1613Z" fill="white"/>
<path d="M227.016 74.4014C227.016 71.8601 227.92 69.6986 229.741 67.917C231.562 66.1354 233.776 65.2446 236.396 65.2446C239.016 65.2446 241.256 66.1485 243.09 67.9432C244.898 69.7379 245.802 71.9387 245.802 74.5586C245.802 77.1786 244.898 79.4056 243.077 81.1872C241.243 82.9557 239.003 83.8465 236.331 83.8465C233.658 83.8465 231.484 82.9426 229.702 81.1348C227.92 79.3532 227.03 77.1131 227.03 74.4145L227.016 74.4014ZM231.169 74.4669C231.169 76.2223 231.641 77.624 232.584 78.6458C233.553 79.6807 234.824 80.2047 236.396 80.2047C237.968 80.2047 239.252 79.6938 240.208 78.672C241.165 77.6502 241.636 76.2747 241.636 74.5718C241.636 72.8688 241.165 71.4933 240.208 70.4715C239.239 69.4366 237.968 68.9126 236.396 68.9126C234.824 68.9126 233.58 69.4366 232.623 70.4715C231.654 71.5064 231.182 72.8426 231.182 74.48L231.169 74.4669Z" fill="white"/>
<path d="M254.173 92.9114H250.099V65.716H254.173V67.6286C255.771 66.0304 257.592 65.2183 259.636 65.2183C262.059 65.2183 264.051 66.109 265.623 67.8906C267.208 69.6591 268.007 71.8992 268.007 74.5978C268.007 77.2963 267.221 79.4316 265.636 81.2001C264.064 82.9424 262.099 83.8201 259.701 83.8201C257.645 83.8201 255.798 82.9948 254.173 81.3442V92.8983V92.9114ZM263.841 74.6371C263.841 72.9472 263.383 71.5717 262.466 70.5106C261.535 69.4364 260.37 68.8993 258.955 68.8993C257.461 68.8993 256.243 69.4233 255.326 70.4582C254.396 71.4931 253.937 72.8555 253.937 74.5454C253.937 76.2352 254.396 77.5583 255.326 78.6325C256.243 79.6805 257.448 80.2045 258.942 80.2045C260.356 80.2045 261.509 79.6805 262.426 78.6194C263.369 77.5583 263.841 76.2353 263.841 74.6371Z" fill="white"/>
<path d="M288.339 75.4756H275.723C275.828 76.9165 276.299 78.0693 277.138 78.9339C277.963 79.7723 279.037 80.2046 280.334 80.2046C281.343 80.2046 282.181 79.9688 282.85 79.4841C283.505 78.9994 284.238 78.1086 285.077 76.8117L288.509 78.7243C287.972 79.6282 287.421 80.4011 286.832 81.043C286.242 81.6849 285.614 82.222 284.932 82.6281C284.251 83.0473 283.531 83.3486 282.745 83.5451C281.959 83.7416 281.107 83.8333 280.19 83.8333C277.557 83.8333 275.448 82.9949 273.863 81.305C272.278 79.602 271.479 77.3488 271.479 74.5455C271.479 71.7421 272.251 69.502 273.797 67.7859C275.356 66.0829 277.413 65.2314 279.981 65.2314C282.548 65.2314 284.618 66.0567 286.125 67.7073C287.618 69.3448 288.365 71.6242 288.365 74.5192V75.4756H288.339ZM284.16 72.1613C283.596 69.9867 282.221 68.9125 280.059 68.9125C279.561 68.9125 279.103 68.9911 278.671 69.1352C278.238 69.2793 277.845 69.502 277.492 69.7902C277.138 70.0784 276.837 70.419 276.575 70.812C276.326 71.205 276.129 71.6635 275.998 72.1744H284.173L284.16 72.1613Z" fill="white"/>
<path d="M292.779 65.7161H296.867V67.3405C298.295 65.9257 299.893 65.2314 301.674 65.2314C303.718 65.2314 305.316 65.8733 306.469 67.1702C307.452 68.2706 307.949 70.0522 307.949 72.5412V83.3355H303.862V73.4975C303.862 71.7683 303.626 70.5631 303.142 69.895C302.67 69.2138 301.819 68.8863 300.574 68.8863C299.225 68.8863 298.268 69.3317 297.705 70.2225C297.155 71.1002 296.88 72.6329 296.88 74.8337V83.3355H292.793V65.7292L292.779 65.7161Z" fill="white"/>
<path d="M323.316 68.7158L319.949 70.5104C319.425 69.4232 318.757 68.886 317.984 68.886C317.604 68.886 317.29 69.004 317.028 69.2529C316.766 69.5018 316.635 69.8161 316.635 70.196C316.635 70.8772 317.421 71.5453 318.98 72.2003C321.141 73.1304 322.596 73.9819 323.342 74.7679C324.089 75.5539 324.469 76.6019 324.469 77.9381C324.469 79.641 323.84 81.0558 322.582 82.2086C321.364 83.2959 319.897 83.833 318.168 83.833C315.22 83.833 313.124 82.392 311.893 79.51L315.364 77.8988C315.849 78.7372 316.216 79.2742 316.465 79.51C316.962 79.9685 317.552 80.1912 318.233 80.1912C319.609 80.1912 320.29 79.5624 320.29 78.3049C320.29 77.5844 319.753 76.9032 318.705 76.2744C318.299 76.0648 317.879 75.8683 317.473 75.6718C317.067 75.4753 316.648 75.2788 316.229 75.0692C315.05 74.4928 314.211 73.9164 313.74 73.34C313.124 72.6064 312.823 71.6632 312.823 70.4973C312.823 68.9647 313.347 67.7071 314.395 66.6984C315.469 65.7028 316.766 65.1919 318.299 65.1919C320.552 65.1919 322.229 66.3578 323.329 68.6765L323.316 68.7158Z" fill="white"/>
<path d="M329.172 81.3048C329.172 80.6236 329.421 80.0472 329.919 79.5494C330.416 79.0516 331.006 78.8027 331.687 78.8027C332.368 78.8027 332.971 79.0516 333.456 79.5494C333.94 80.0472 334.202 80.6367 334.202 81.3179C334.202 81.9991 333.953 82.6148 333.456 83.1126C332.958 83.6104 332.381 83.8331 331.687 83.8331C330.993 83.8331 330.377 83.5973 329.892 83.1126C329.408 82.6279 329.172 82.0253 329.172 81.3048ZM329.644 77.1128V55.4194H333.731V77.1128H329.644Z" fill="white"/>
</svg>
