<svg width="319" height="40" viewBox="0 0 319 40" fill="none" xmlns="http://www.w3.org/2000/svg">
<path d="M13.7234 39.12C11.7977 39.12 10.0029 38.8842 8.32612 38.4127C6.64929 37.9412 5.19517 37.2863 3.96375 36.4481C2.73233 35.6098 1.76293 34.6406 1.06862 33.5273C0.374308 32.414 0.0336914 31.209 0.0336914 29.8993C0.0336914 29.1396 0.16469 28.4324 0.439794 27.7775C0.714899 27.1226 1.09482 26.5463 1.57953 26.0617C2.06423 25.5771 2.65374 25.1842 3.32185 24.896C3.98996 24.6079 4.71047 24.4638 5.47029 24.4638C6.2301 24.4638 6.8982 24.5948 7.56631 24.8698C8.23442 25.1449 8.95493 25.5902 9.71474 26.2058C10.3697 26.7166 10.8938 27.1095 11.2999 27.4108C11.706 27.6989 12.0204 27.9346 12.2824 28.0918C12.5313 28.249 12.754 28.3538 12.9374 28.3931C13.1208 28.4324 13.3173 28.4455 13.54 28.4455C14.0116 28.4455 14.3915 28.3014 14.6535 28.0132C14.9286 27.7251 15.0596 27.3453 15.0596 26.8738C15.0596 26.2582 14.7452 25.7473 14.1295 25.3413C14.0509 25.302 13.9723 25.2628 13.8806 25.2104C13.7889 25.158 13.6579 25.0925 13.5007 25.0139C13.3435 24.9353 13.1208 24.8567 12.8457 24.7388C12.5706 24.621 12.2038 24.49 11.7322 24.3066C11.2213 24.1233 10.7366 23.953 10.2649 23.7828C9.79334 23.6256 9.29553 23.4422 8.79773 23.2588C3.53145 21.399 0.898309 17.9543 0.898309 12.8986C0.898309 11.1174 1.22581 9.50641 1.88082 8.05258C2.53583 6.59875 3.43975 5.34139 4.60567 4.29359C5.77159 3.24578 7.1733 2.42064 8.83703 1.84435C10.4877 1.26806 12.2955 0.966797 14.2605 0.966797C15.898 0.966797 17.4177 1.17637 18.8456 1.59549C20.2604 2.01462 21.4918 2.57778 22.553 3.28505C23.601 3.99232 24.4394 4.83057 25.0289 5.78669C25.6315 6.75591 25.9328 7.79063 25.9328 8.91702C25.9328 10.3708 25.5005 11.5627 24.6228 12.4926C23.7451 13.4226 22.6185 13.881 21.2429 13.881C20.4045 13.881 19.6316 13.7238 18.898 13.4226C18.1644 13.1082 17.2998 12.5712 16.2779 11.8116C15.6622 11.3008 15.1644 10.9602 14.8107 10.7769C14.4439 10.5935 14.1033 10.5018 13.7758 10.5018C13.3697 10.5018 13.0422 10.6328 12.7671 10.9078C12.492 11.1829 12.361 11.5103 12.361 11.9163C12.361 12.4664 12.6099 12.8986 13.0946 13.2261C13.5793 13.5535 14.5356 13.9596 15.9635 14.4311C17.5225 14.9026 19.0028 15.4789 20.3783 16.1469C21.7538 16.8148 22.8673 17.5221 23.7057 18.2425C24.8324 19.1855 25.7232 20.4167 26.3782 21.9229C27.0332 23.4291 27.3607 25.0532 27.3607 26.7952C27.3607 28.4324 27.0594 30.0041 26.4568 31.5103C25.8542 33.0165 25.0158 34.3394 23.9153 35.4657C22.6839 36.6969 21.2298 37.6138 19.5792 38.2162C17.9286 38.8187 15.9766 39.12 13.7234 39.12Z" fill="#F65275"/>
<path d="M39.3998 13.0164H36.1772C35.1292 13.0164 34.2383 12.8855 33.5309 12.6366C32.8235 12.3878 32.1947 11.9817 31.6445 11.4316C30.5179 10.2266 29.9546 8.90382 29.9546 7.44999C29.9546 6.40218 30.2559 5.39366 30.8585 4.45064C31.4611 3.50761 32.1947 2.83963 33.0724 2.4336C33.3999 2.28953 33.6881 2.18475 33.9501 2.10617C34.199 2.02758 34.5528 1.9752 34.9851 1.949C35.4174 1.90971 35.9938 1.88352 36.7012 1.87042C37.4086 1.85732 38.3649 1.84424 39.5701 1.84424H54.7271C54.976 1.84424 55.1725 1.84422 55.3035 1.87042C55.4345 1.88352 55.5786 1.92281 55.762 1.949C57.2161 2.13237 58.3951 2.73485 59.3121 3.74336C60.2161 4.76497 60.6745 5.98305 60.6745 7.39759C60.6745 8.19654 60.5042 8.9824 60.1505 9.74206C59.8099 10.5017 59.3252 11.1566 58.7095 11.7067C57.7663 12.5842 56.2205 13.0164 54.0721 13.0164H51.3996V31.1172C51.3996 32.2043 51.321 33.095 51.1769 33.7891C51.0328 34.4833 50.7577 35.1382 50.3647 35.7538C49.8145 36.6313 49.1202 37.2993 48.2686 37.7708C47.4171 38.2423 46.4608 38.4781 45.3997 38.4781C44.3386 38.4781 43.4478 38.2554 42.5963 37.8232C41.7448 37.391 41.0242 36.7754 40.4478 35.9633C40.0417 35.3478 39.7797 34.706 39.6356 34.0511C39.4915 33.3962 39.4129 32.4532 39.4129 31.222V13.0164H39.3998Z" fill="#F65275"/>
<path d="M62.3511 19.8534C62.3511 17.247 62.8489 14.7978 63.8445 12.5057C64.8401 10.2136 66.2025 8.22279 67.9318 6.5201C69.661 4.81742 71.6784 3.4684 74.0103 2.49919C76.329 1.51687 78.8311 1.03223 81.4774 1.03223C84.1236 1.03223 86.6258 1.52995 88.9445 2.52537C91.2763 3.52078 93.3069 4.86984 95.0492 6.58562C96.7915 8.2883 98.167 10.3053 99.1626 12.6236C100.158 14.9418 100.656 17.4173 100.656 20.0237C100.656 22.6301 100.158 25.1056 99.1626 27.4238C98.167 29.7421 96.7915 31.7722 95.0492 33.5142C93.3069 35.2562 91.2632 36.6314 88.9445 37.6268C86.6127 38.6222 84.1498 39.1199 81.5298 39.1199C78.9097 39.1199 76.329 38.6222 74.0103 37.6268C71.6784 36.6314 69.661 35.2562 67.9318 33.5142C66.2025 31.7722 64.8401 29.729 63.8445 27.3845C62.8489 25.0401 62.3511 22.5253 62.3511 19.8403V19.8534ZM74.3509 19.9844C74.3509 20.9667 74.5474 21.8966 74.9273 22.7873C75.3072 23.6779 75.8181 24.4507 76.46 25.1055C77.1019 25.7604 77.8486 26.2712 78.7263 26.6641C79.604 27.044 80.5342 27.2404 81.5167 27.2404C82.4992 27.2404 83.4293 27.044 84.307 26.6641C85.1847 26.2843 85.9446 25.7604 86.5734 25.1055C87.2153 24.4507 87.7262 23.691 88.1061 22.8135C88.486 21.9359 88.6825 21.0191 88.6825 20.0368C88.6825 19.0545 88.486 18.1376 88.1061 17.2863C87.7262 16.435 87.2153 15.6884 86.5734 15.0466C85.9315 14.4048 85.1847 13.9071 84.307 13.5535C83.4293 13.1868 82.4992 13.0034 81.5167 13.0034C80.5342 13.0034 79.604 13.1868 78.7263 13.5535C77.8486 13.9202 77.0888 14.4179 76.46 15.0466C75.8181 15.6884 75.3072 16.4219 74.9273 17.2601C74.5474 18.0984 74.3509 19.0021 74.3509 19.9844Z" fill="#F65275"/>
<path d="M118.394 27.4499V32.4139C118.394 33.2915 118.237 34.0904 117.935 34.8108C117.621 35.5442 117.202 36.1729 116.678 36.723C116.154 37.2731 115.538 37.6922 114.817 38.0066C114.11 38.3209 113.337 38.465 112.499 38.465C111.595 38.465 110.717 38.2685 109.879 37.8887C109.04 37.5089 108.346 36.9718 107.809 36.2777C106.866 35.0727 106.394 33.37 106.394 31.1565V8.75974C106.394 7.44999 106.538 6.38906 106.826 5.57701C107.115 4.76496 107.625 4.04462 108.359 3.42903C109.053 2.81345 109.774 2.39434 110.507 2.17168C111.254 1.94902 112.355 1.84424 113.809 1.84424H118.826C120.32 1.84424 121.459 1.8966 122.258 1.97518C123.057 2.06686 123.857 2.19784 124.656 2.3812C126.071 2.78723 127.367 3.37665 128.52 4.1756C129.686 4.97455 130.682 5.93066 131.52 7.03086C132.359 8.14415 133.014 9.36222 133.485 10.7113C133.957 12.0603 134.193 13.4617 134.193 14.9025C134.193 16.6444 133.891 18.2424 133.289 19.67C132.686 21.1107 131.704 22.6038 130.315 24.1624L133.145 28.6811C133.551 29.2967 133.839 29.9384 134.022 30.6195C134.206 31.2875 134.297 31.9424 134.297 32.558C134.297 33.3962 134.14 34.169 133.839 34.8762C133.525 35.5835 133.105 36.1991 132.555 36.7361C132.005 37.26 131.376 37.6791 130.642 37.9934C129.909 38.3078 129.136 38.4519 128.298 38.4519C126.11 38.4519 124.459 37.522 123.333 35.6752L118.368 27.4499H118.394ZM118.892 16.8802H119.704C121.525 16.9588 122.429 16.317 122.429 14.968C122.429 13.6189 121.499 12.9379 119.651 13.0033H119.127C118.931 13.0033 118.682 12.9902 118.394 12.9509V16.8802H118.879H118.892Z" fill="#F65275"/>
<path d="M148.551 38.1896C147.175 38.1896 146.193 38.1503 145.603 38.0848C145.027 38.0062 144.476 37.8883 143.966 37.705C142.04 36.906 140.9 35.4522 140.533 33.3435C140.494 33.1601 140.455 32.9899 140.429 32.8196C140.389 32.6624 140.363 32.4529 140.35 32.1909C140.337 31.9421 140.324 31.6146 140.324 31.2348V9.97747C140.324 9.21782 140.324 8.58912 140.35 8.1176C140.363 7.64609 140.389 7.25317 140.429 6.93883C140.468 6.62449 140.52 6.36253 140.586 6.15297C140.664 5.93031 140.743 5.68148 140.861 5.39333C141.11 4.69916 141.503 4.09668 142.04 3.59897C142.564 3.08817 143.14 2.68213 143.756 2.39398C144.083 2.24991 144.372 2.14513 144.634 2.06654C144.883 1.98796 145.184 1.93556 145.538 1.89627C145.878 1.85697 146.324 1.83078 146.848 1.81768C147.372 1.80459 148.079 1.7915 148.944 1.7915H158.205C158.716 1.7915 159.109 1.80461 159.411 1.84391C159.699 1.8832 159.935 1.92247 160.118 1.94867C160.302 1.98796 160.498 2.02724 160.721 2.05343C161.991 2.38087 163 3.02268 163.747 3.9657C164.494 4.92182 164.86 6.022 164.86 7.30556C164.86 8.1831 164.69 9.00824 164.336 9.79409C163.996 10.5799 163.511 11.2217 162.895 11.7325C162.345 12.2041 161.729 12.5446 161.035 12.741C160.341 12.9375 159.437 13.0423 158.31 13.0423H152.31V15.5439H157.053C158.546 15.5439 159.725 15.9499 160.603 16.7489C161.481 17.5478 161.913 18.5826 161.913 19.853C161.913 21.2676 161.389 22.4202 160.328 23.2846C159.856 23.6513 159.358 23.9002 158.834 24.018C158.31 24.149 157.577 24.2145 156.62 24.2145H152.31V26.8864H157.813C159.123 26.8864 160.131 26.9912 160.839 27.1876C161.546 27.3841 162.214 27.7508 162.83 28.2616C164.14 29.388 164.795 30.8157 164.795 32.5315C164.795 33.3697 164.625 34.1817 164.271 34.9676C163.93 35.7534 163.446 36.3952 162.83 36.906C162.542 37.168 162.24 37.3776 161.926 37.5347C161.612 37.705 161.284 37.8228 160.917 37.9145C160.55 38.0062 160.131 38.0717 159.633 38.111C159.149 38.1503 158.546 38.1634 157.865 38.1634H148.538L148.551 38.1896Z" fill="#F65275"/>
<path d="M192.816 9.03447C192.816 8.27481 192.829 7.61993 192.868 7.06984C192.908 6.51974 192.973 6.0482 193.091 5.65528C193.196 5.26235 193.353 4.88255 193.549 4.54202C193.746 4.20148 194.008 3.86092 194.335 3.53348C195.462 2.22373 196.929 1.56885 198.75 1.56885C200.571 1.56885 202.051 2.21066 203.217 3.48112C203.833 4.17529 204.252 4.89562 204.475 5.65528C204.698 6.41494 204.803 7.54135 204.803 9.03447V31.5492C204.803 32.7148 204.685 33.671 204.449 34.4044C204.213 35.151 203.82 35.8321 203.27 36.4476C202.693 37.0632 201.999 37.5609 201.2 37.9146C200.401 38.2813 199.602 38.4647 198.803 38.4647C198.003 38.4647 197.139 38.2944 196.327 37.9408C195.514 37.6002 194.846 37.1287 194.335 36.5524C193.759 35.9369 193.353 35.2689 193.13 34.5354C192.908 33.815 192.803 32.8065 192.803 31.5361V9.02136L192.816 9.03447Z" fill="#F65275"/>
<path d="M224.597 23.861V31.4968C224.597 32.7018 224.492 33.6318 224.296 34.2997C224.099 34.9677 223.745 35.6357 223.234 36.2905C222.658 36.9847 221.964 37.5217 221.178 37.9016C220.379 38.2814 219.527 38.4778 218.623 38.4778C217.719 38.4778 216.789 38.2683 215.964 37.8492C215.125 37.43 214.431 36.8537 213.842 36.1334C213.331 35.4392 213.003 34.7581 212.833 34.0639C212.676 33.3698 212.584 32.3613 212.584 31.0122V8.01293C212.584 6.0483 213.16 4.48967 214.3 3.32399C215.44 2.15831 216.959 1.58203 218.846 1.58203C219.724 1.58203 220.51 1.7785 221.217 2.15833C221.924 2.53816 222.619 3.15372 223.313 3.97887L232.85 15.7012V8.94285C232.85 7.73787 232.929 6.80797 233.073 6.13999C233.217 5.47202 233.505 4.81713 233.95 4.20154C234.461 3.40259 235.156 2.76082 236.046 2.28931C236.937 1.8178 237.867 1.58203 238.85 1.58203C239.754 1.58203 240.605 1.7785 241.391 2.15833C242.177 2.53816 242.859 3.07513 243.435 3.7693C243.946 4.42418 244.313 5.10529 244.522 5.81255C244.732 6.51982 244.85 7.43662 244.85 8.56301V30.8027C244.85 32.2565 244.758 33.3567 244.575 34.1032C244.391 34.8498 244.051 35.5702 243.54 36.2512C242.99 36.9847 242.308 37.5348 241.496 37.9146C240.671 38.2945 239.793 38.4909 238.85 38.4909C236.911 38.4909 235.326 37.6789 234.094 36.0417L224.584 23.8872L224.597 23.861Z" fill="#F65275"/>
<path d="M251.963 8.92957C251.963 7.29238 252.16 6.02194 252.566 5.10511C252.972 4.20138 253.64 3.42862 254.583 2.81304C254.95 2.56418 255.382 2.35463 255.893 2.21056C256.404 2.06649 256.928 1.96171 257.478 1.88312C257.727 1.84383 258.12 1.8176 258.644 1.8045C259.168 1.7914 259.837 1.77832 260.636 1.77832H267.828C268.81 1.77832 269.609 1.77831 270.225 1.8045C270.841 1.8176 271.365 1.87 271.81 1.93548C272.242 2.01407 272.622 2.10578 272.924 2.21056C273.238 2.31534 273.552 2.48558 273.88 2.70824C274.679 3.17975 275.308 3.83464 275.766 4.64669C276.225 5.47183 276.448 6.34937 276.448 7.30549C276.448 8.14373 276.277 8.96888 275.924 9.76784C275.583 10.5668 275.111 11.2348 274.535 11.7456C273.959 12.2564 273.33 12.61 272.648 12.7803C271.98 12.9636 271.09 13.0553 270.002 13.0553H263.95V15.6224H267.657C268.705 15.6224 269.504 15.6617 270.028 15.7534C270.552 15.8451 271.05 16.0285 271.522 16.3166C272.138 16.7095 272.635 17.2203 272.989 17.8359C273.356 18.4515 273.539 19.1326 273.539 19.8923C273.539 21.3068 273.094 22.3808 272.203 23.1404C271.312 23.9001 269.989 24.2799 268.247 24.2799H263.937V30.0036C263.937 30.8811 263.937 31.6014 263.911 32.1777C263.898 32.754 263.845 33.2518 263.78 33.6447C263.701 34.0507 263.609 34.3912 263.478 34.6794C263.347 34.9675 263.177 35.2949 262.954 35.6617C262.443 36.4999 261.749 37.1679 260.858 37.6787C259.968 38.1895 258.998 38.4384 257.937 38.4384C256.81 38.4384 255.775 38.1502 254.832 37.587C253.889 37.0238 253.182 36.2642 252.71 35.3212C252.527 34.9937 252.396 34.6794 252.304 34.3912C252.212 34.1031 252.147 33.7625 252.081 33.3827C252.029 33.0029 251.989 32.5314 251.976 31.9944C251.963 31.4443 251.95 30.7632 251.95 29.9249V8.90339L251.963 8.92957Z" fill="#F65275"/>
<path d="M279.985 19.8534C279.985 17.247 280.483 14.7978 281.478 12.5057C282.474 10.2136 283.836 8.22279 285.566 6.5201C287.295 4.81742 289.312 3.4684 291.644 2.49919C293.963 1.51687 296.465 1.03223 299.111 1.03223C301.757 1.03223 304.26 1.52995 306.578 2.52537C308.91 3.52078 310.941 4.86984 312.683 6.58562C314.425 8.2883 315.801 10.3053 316.796 12.6236C317.792 14.9418 318.29 17.4173 318.29 20.0237C318.29 22.6301 317.792 25.1056 316.796 27.4238C315.801 29.7421 314.425 31.7722 312.683 33.5142C310.941 35.2562 308.897 36.6314 306.578 37.6268C304.246 38.6222 301.784 39.1199 299.164 39.1199C296.544 39.1199 293.963 38.6222 291.644 37.6268C289.312 36.6314 287.295 35.2562 285.566 33.5142C283.836 31.7722 282.474 29.729 281.478 27.3845C280.483 25.0401 279.985 22.5253 279.985 19.8403V19.8534ZM291.985 19.9844C291.985 20.9667 292.181 21.8966 292.561 22.7873C292.941 23.6779 293.452 24.4507 294.094 25.1055C294.736 25.7604 295.482 26.2712 296.36 26.6641C297.238 27.044 298.168 27.2404 299.15 27.2404C300.133 27.2404 301.063 27.044 301.941 26.6641C302.819 26.2843 303.578 25.7604 304.207 25.1055C304.849 24.4507 305.36 23.691 305.74 22.8135C306.12 21.9359 306.316 21.0191 306.316 20.0368C306.316 19.0545 306.12 18.1376 305.74 17.2863C305.36 16.435 304.849 15.6884 304.207 15.0466C303.565 14.4048 302.819 13.9071 301.941 13.5535C301.063 13.1868 300.133 13.0034 299.15 13.0034C298.168 13.0034 297.238 13.1868 296.36 13.5535C295.482 13.9202 294.723 14.4179 294.094 15.0466C293.452 15.6884 292.941 16.4219 292.561 17.2601C292.181 18.0984 291.985 19.0021 291.985 19.9844Z" fill="#F65275"/>
</svg>
