<svg width="158" height="39" viewBox="0 0 158 39" fill="none" xmlns="http://www.w3.org/2000/svg">
<path d="M12.3085 23.491V31.1413C12.3085 32.3465 12.2037 33.2767 11.9941 33.9579C11.7976 34.6259 11.4439 35.294 10.933 35.949C10.3565 36.6433 9.66223 37.1804 8.86312 37.5603C8.06401 37.9402 7.2125 38.1367 6.30859 38.1367C5.36537 38.1367 4.47456 37.9271 3.64925 37.5079C2.81084 37.0887 2.10341 36.5123 1.527 35.7918C1.01609 35.0975 0.688604 34.4032 0.518302 33.709C0.361099 33.0147 0.269388 31.9928 0.282488 30.6567L0.308694 7.60088C0.308694 5.6359 0.885092 4.06392 2.03791 2.89803C3.19073 1.73214 4.71036 1.15576 6.59679 1.15576C7.47451 1.15576 8.26052 1.35226 8.96793 1.73216C9.67534 2.11206 10.3827 2.72774 11.0639 3.56613L20.614 15.3167V8.54407C20.614 7.33888 20.6926 6.4088 20.8367 5.7276C20.9808 5.05951 21.269 4.40454 21.7144 3.78885C22.2253 2.98976 22.9328 2.34783 23.8236 1.87624C24.7144 1.40464 25.6576 1.16887 26.6401 1.16887C27.544 1.16887 28.3955 1.36538 29.1815 1.74527C29.9676 2.12517 30.6488 2.66224 31.2252 3.35653C31.7361 4.01152 32.1029 4.69271 32.3125 5.40011C32.5352 6.1075 32.64 7.02451 32.64 8.1642L32.6138 30.4471C32.6138 31.9011 32.5221 33.0016 32.3387 33.7482C32.1553 34.4949 31.8016 35.2154 31.2907 35.9097C30.7404 36.6433 30.0592 37.1935 29.2339 37.5734C28.4086 37.9533 27.5309 38.1498 26.5746 38.1498C24.6357 38.1498 23.0506 37.3245 21.8061 35.687L12.2823 23.491H12.3085Z" fill="#F65275"/>
<path d="M52.015 37.8878C50.6264 37.8878 49.6439 37.8485 49.0675 37.7699C48.4911 37.6913 47.9408 37.5734 47.4299 37.39C45.5042 36.5909 44.3514 35.1237 43.9977 33.0146C43.9584 32.8312 43.9191 32.6609 43.8929 32.4906C43.8536 32.3203 43.8274 32.1107 43.8143 31.8618C43.8012 31.5998 43.7881 31.2854 43.7881 30.9055C43.7881 30.5256 43.7881 30.0148 43.7881 29.3991V9.59206C43.8012 8.83227 43.8143 8.20346 43.8405 7.73186C43.8536 7.26027 43.8929 6.86728 43.9191 6.55288C43.9584 6.23849 44.0108 5.97648 44.0894 5.76688C44.168 5.54419 44.2597 5.29529 44.3645 4.994C44.6134 4.2997 45.0064 3.6971 45.5435 3.18621C46.0675 2.67531 46.6439 2.26924 47.2596 1.98104C47.5871 1.83694 47.8754 1.73214 48.1374 1.65354C48.3863 1.57494 48.6876 1.52254 49.0413 1.48324C49.3819 1.44394 49.8273 1.41774 50.3513 1.40464C50.8753 1.39154 51.5827 1.37842 52.4604 1.37842H59.6655C60.5432 1.37842 61.2244 1.37842 61.7353 1.37842C62.2462 1.37842 62.6393 1.39153 62.9406 1.43083C63.2288 1.47013 63.4646 1.50945 63.648 1.53565C63.8314 1.57495 64.0279 1.61424 64.2506 1.65354C65.5213 1.98104 66.53 2.62294 67.2767 3.57923C68.0234 4.53552 68.3903 5.649 68.3903 6.93279C68.3903 7.81048 68.22 8.64888 67.8663 9.43487C67.5126 10.2209 67.0409 10.8758 66.4121 11.3867C65.8619 11.8583 65.2462 12.1989 64.5519 12.3954C63.8576 12.5919 62.9537 12.6967 61.814 12.6967H55.8009V15.1988H60.5563C62.0497 15.1988 63.2288 15.6049 64.1065 16.404C64.9842 17.2031 65.4165 18.238 65.4165 19.5217C65.4165 20.9365 64.8925 22.0893 63.8314 22.967C63.3598 23.3338 62.862 23.5827 62.3249 23.7006C61.8009 23.8316 61.0541 23.884 60.1109 23.884H55.8009V26.5564H61.3162C62.6262 26.5564 63.6349 26.6612 64.3423 26.8708C65.0497 27.0673 65.7178 27.4341 66.3335 27.945C67.6435 29.0847 68.2985 30.5126 68.2985 32.2286C68.2985 33.067 68.1283 33.8792 67.7745 34.6652C67.4339 35.4512 66.9492 36.1062 66.3204 36.6171C66.0322 36.8791 65.7309 37.0887 65.4165 37.2459C65.1021 37.4162 64.7746 37.5341 64.4078 37.6258C64.041 37.7175 63.6218 37.783 63.124 37.8223C62.6262 37.8616 62.0367 37.8747 61.3423 37.8747H52.0019L52.015 37.8878Z" fill="#F65275"/>
<path d="M75.6874 9.72285C75.4647 9.21196 75.2944 8.68796 75.1765 8.16397C75.0455 7.63997 74.98 7.22077 74.98 6.93257C74.98 6.13348 75.1503 5.3868 75.4778 4.69251C75.8053 3.99821 76.2376 3.39561 76.7878 2.88472C77.338 2.37382 77.9668 1.96772 78.7004 1.65333C79.434 1.33893 80.207 1.19482 81.0454 1.19482C83.8488 1.19482 85.9055 2.81921 87.2156 6.06798L91.0801 15.3034L94.3159 5.75359C95.3377 2.72752 97.2896 1.22101 100.159 1.22101C103.041 1.22101 105.019 2.79299 106.106 5.92386L109.486 15.5916L113.481 5.3868C113.992 4.11611 114.778 3.10738 115.84 2.36069C116.901 1.614 118.08 1.24723 119.39 1.24723C120.228 1.24723 121.014 1.40441 121.735 1.71881C122.468 2.03321 123.097 2.45239 123.647 2.97639C124.197 3.50038 124.617 4.12918 124.931 4.86277C125.245 5.59637 125.39 6.36927 125.39 7.20766C125.39 7.57446 125.337 7.95436 125.259 8.36046C125.167 8.76655 124.97 9.32986 124.682 10.0504L116.036 33.5253C114.909 36.6562 112.971 38.2151 110.246 38.2151C107.403 38.2151 105.464 36.6824 104.403 33.617L100.368 21.6568L96.3726 33.5646C95.3508 36.6562 93.4382 38.202 90.6347 38.202C87.8706 38.202 85.971 36.8134 84.9623 34.0493L75.7005 9.73593L75.6874 9.72285Z" fill="#F65275"/>
<path d="M143.952 38.8962C142.027 38.8962 140.219 38.6604 138.542 38.1757C136.865 37.7041 135.411 37.0491 134.18 36.2107C132.948 35.3723 131.979 34.4029 131.284 33.2894C130.59 32.1759 130.25 30.9708 130.25 29.6608C130.25 28.901 130.381 28.1805 130.656 27.5255C130.931 26.8705 131.311 26.2941 131.808 25.8094C132.306 25.3247 132.883 24.9317 133.564 24.6435C134.232 24.3553 134.952 24.2112 135.725 24.2112C136.459 24.2112 137.153 24.3553 137.835 24.6173C138.503 24.8924 139.223 25.3378 139.996 25.9535C140.651 26.4644 141.175 26.8705 141.581 27.1587C141.987 27.4469 142.315 27.6827 142.564 27.8399C142.813 28.0102 143.035 28.1019 143.219 28.1412C143.402 28.1805 143.599 28.1936 143.821 28.1936C144.293 28.1936 144.673 28.0495 144.948 27.7613C145.223 27.4731 145.354 27.0932 145.354 26.6085C145.354 25.9928 145.04 25.4819 144.424 25.0758C144.345 25.0365 144.267 24.9972 144.175 24.9448C144.083 24.8924 143.952 24.8269 143.795 24.7483C143.625 24.6697 143.415 24.578 143.14 24.4732C142.865 24.3684 142.498 24.2243 142.027 24.0409C141.516 23.8575 141.031 23.6872 140.546 23.5169C140.075 23.3466 139.577 23.1763 139.066 22.9929C133.787 21.1327 131.153 17.6744 131.153 12.6047C131.153 10.8231 131.481 9.19876 132.136 7.74467C132.791 6.29059 133.708 5.03299 134.874 3.9719C136.04 2.91081 137.455 2.09863 139.105 1.52223C140.769 0.945838 142.577 0.644536 144.542 0.657636C146.179 0.657636 147.712 0.867249 149.127 1.28644C150.542 1.70564 151.786 2.26892 152.834 2.98941C153.895 3.69681 154.721 4.53521 155.323 5.5046C155.926 6.474 156.227 7.52198 156.227 8.64857C156.227 10.1027 155.782 11.2948 154.917 12.2248C154.053 13.1549 152.913 13.6134 151.524 13.6134C150.686 13.6134 149.9 13.4562 149.179 13.1418C148.446 12.8274 147.581 12.2903 146.559 11.5305C145.944 11.0196 145.446 10.6791 145.079 10.4957C144.712 10.3123 144.372 10.2205 144.044 10.2205C143.638 10.2205 143.31 10.3516 143.035 10.6267C142.76 10.9018 142.629 11.2423 142.629 11.6353C142.629 12.1855 142.878 12.6178 143.363 12.9453C143.848 13.2728 144.804 13.6789 146.232 14.1505C147.791 14.6221 149.271 15.1985 150.66 15.8797C152.048 16.5609 153.149 17.2552 153.987 17.9888C155.114 18.932 156.005 20.1633 156.66 21.6829C157.315 23.1894 157.642 24.8269 157.642 26.5692C157.642 28.2067 157.341 29.7787 156.738 31.2983C156.136 32.8047 155.284 34.1278 154.197 35.2544C152.952 36.4858 151.511 37.4159 149.847 38.0054C148.184 38.608 146.232 38.9093 143.978 38.8962H143.952Z" fill="#F65275"/>
</svg>
