<svg width="30" height="10" viewBox="0 0 30 10" fill="none" xmlns="http://www.w3.org/2000/svg">
<path d="M3.12399 5.87731V7.63265C3.12399 7.90775 3.0978 8.11742 3.0585 8.27461C3.0061 8.43181 2.9275 8.57588 2.80959 8.73308C2.67859 8.89028 2.52137 9.02123 2.33797 9.09983C2.15456 9.17843 1.95808 9.23088 1.74848 9.23088C1.52578 9.23088 1.32927 9.1785 1.13277 9.0868C0.936267 8.9951 0.779071 8.86404 0.648069 8.69374C0.530167 8.53654 0.451536 8.37936 0.412235 8.22216C0.372935 8.06496 0.359863 7.8292 0.359863 7.5148V2.2224C0.359863 1.777 0.490862 1.41028 0.765966 1.14828C1.02797 0.886283 1.38166 0.742188 1.81397 0.742188C2.01047 0.742188 2.19389 0.781455 2.36419 0.873154C2.52139 0.964853 2.69169 1.09586 2.84889 1.29236L5.0366 3.99093V2.43204C5.0366 2.15694 5.04972 1.94736 5.08902 1.79016C5.12832 1.63296 5.19381 1.48883 5.28551 1.34473C5.40341 1.16133 5.56061 1.01721 5.77021 0.912412C5.97981 0.807613 6.18945 0.75522 6.41215 0.75522C6.62175 0.75522 6.81826 0.794568 6.98856 0.886267C7.17196 0.977966 7.32915 1.09582 7.46015 1.25302C7.57805 1.39712 7.65665 1.55438 7.70906 1.72468C7.76146 1.88188 7.78765 2.10455 7.78765 2.35345V7.46235C7.78765 7.80294 7.76147 8.05186 7.72217 8.22216C7.68287 8.39246 7.60428 8.56277 7.48637 8.71996C7.35537 8.89026 7.19815 9.00813 7.01475 9.09983C6.83134 9.19153 6.62174 9.23088 6.39904 9.23088C5.95363 9.23088 5.58684 9.04749 5.31174 8.66759L3.12399 5.8642V5.87731Z" fill="#F65275"/>
<path d="M12.2282 9.19198C11.9138 9.19198 11.6911 9.19203 11.547 9.16583C11.416 9.15273 11.285 9.11342 11.1671 9.07412C10.7217 8.89072 10.4597 8.5501 10.3811 8.06541C10.3811 8.02611 10.368 7.98685 10.3549 7.94755C10.3549 7.90825 10.3418 7.85579 10.3418 7.80339C10.3418 7.75099 10.3418 7.67242 10.3418 7.58072C10.3418 7.48902 10.3418 7.38421 10.3418 7.24011V2.69449C10.3418 2.52419 10.3418 2.38007 10.3418 2.26217C10.3418 2.15737 10.3418 2.06565 10.3549 1.98705C10.3549 1.92155 10.3811 1.85611 10.3942 1.80371C10.4073 1.75131 10.4335 1.6989 10.4597 1.6334C10.5121 1.47621 10.6038 1.3321 10.7348 1.2142C10.8527 1.0963 10.9837 1.00457 11.1278 0.939072C11.2064 0.899773 11.2719 0.886676 11.3243 0.860476C11.3767 0.847376 11.4553 0.834318 11.5339 0.821218C11.6125 0.821218 11.7173 0.808105 11.8352 0.808105C11.9531 0.808105 12.1234 0.808105 12.3199 0.808105H13.9705C14.167 0.808105 14.3243 0.808105 14.4422 0.808105C14.5601 0.808105 14.6518 0.808105 14.7173 0.808105C14.7828 0.808105 14.8352 0.821151 14.8745 0.834251C14.9138 0.834251 14.9662 0.847376 15.0186 0.860476C15.3068 0.939075 15.5426 1.08321 15.7129 1.30591C15.8832 1.5286 15.9749 1.77746 15.9749 2.07875C15.9749 2.27525 15.9356 2.47175 15.857 2.65515C15.7784 2.83855 15.6605 2.98268 15.5295 3.10058C15.3985 3.20538 15.2675 3.28397 15.0972 3.33637C14.94 3.38877 14.7304 3.40185 14.4684 3.40185H13.0928V3.97825H14.1801C14.5208 3.97825 14.7958 4.06998 14.9924 4.25338C15.1889 4.43678 15.2937 4.67256 15.2937 4.97386C15.2937 5.30135 15.1758 5.56332 14.9269 5.75982C14.8221 5.83841 14.7042 5.90392 14.5862 5.93012C14.4683 5.95632 14.2981 5.96946 14.0754 5.96946H13.0797V6.58511H14.3505C14.6518 6.58511 14.8876 6.6113 15.0448 6.6506C15.202 6.703 15.3592 6.7816 15.5033 6.8995C15.8046 7.1615 15.9487 7.48899 15.9487 7.88199C15.9487 8.07849 15.9094 8.26187 15.8308 8.44527C15.7522 8.62867 15.6343 8.77281 15.5033 8.8907C15.4378 8.9431 15.3723 8.99548 15.2937 9.03478C15.2282 9.07408 15.1496 9.10029 15.0579 9.12649C14.9793 9.15269 14.8745 9.16583 14.7697 9.16583C14.6518 9.16583 14.5208 9.16583 14.3636 9.16583H12.2151L12.2282 9.19198Z" fill="#F65275"/>
<path d="M17.665 2.72042C17.6126 2.60252 17.5733 2.48468 17.5471 2.36678C17.5209 2.24888 17.5078 2.15714 17.5078 2.07854C17.5078 1.89514 17.5471 1.72483 17.6257 1.56763C17.7043 1.41043 17.796 1.2664 17.927 1.1485C18.058 1.0306 18.2021 0.938875 18.3724 0.873376C18.5427 0.807877 18.713 0.768555 18.9095 0.768555C19.5515 0.768555 20.023 1.1354 20.3243 1.88209L21.2152 4.00426L21.9619 1.81653C22.1977 1.12224 22.6431 0.781667 23.2981 0.781667C23.9531 0.781667 24.4116 1.14847 24.6605 1.85587L25.4334 4.06975L26.3504 1.7249C26.4683 1.4367 26.6518 1.20087 26.8876 1.03057C27.1365 0.86027 27.3985 0.768555 27.6998 0.768555C27.8963 0.768555 28.0666 0.807877 28.2369 0.873376C28.4072 0.938875 28.5513 1.04364 28.6692 1.16153C28.8002 1.27943 28.8919 1.42355 28.9574 1.59385C29.0229 1.76415 29.0622 1.93449 29.0622 2.13099C29.0622 2.20959 29.0622 2.30123 29.036 2.39293C29.0098 2.48463 28.9705 2.61569 28.905 2.78599L26.9137 8.17001C26.6517 8.89051 26.2063 9.24421 25.5906 9.24421C24.9356 9.24421 24.4902 8.89045 24.2544 8.19616L23.3243 5.44522L22.4073 8.18313C22.1715 8.89052 21.7392 9.24421 21.0841 9.24421C20.4553 9.24421 20.0099 8.92976 19.7872 8.28787L17.665 2.70739V2.72042Z" fill="#F65275"/>
</svg>
