<svg width="59" height="60" viewBox="0 0 59 60" fill="none" xmlns="http://www.w3.org/2000/svg">
<path d="M29.4879 0.419922H29.4747C13.261 0.419922 0.117188 13.5636 0.117188 29.7769V29.7901C0.117188 46.0034 13.261 59.1468 29.4747 59.1468H29.4879C45.7016 59.1468 58.8454 46.0034 58.8454 29.7901V29.7769C58.8454 13.5636 45.7016 0.419922 29.4879 0.419922Z" fill="white"/>
<path d="M6.99479 24.3535V32.6721H5.73718V24.3535H6.99479Z" fill="#F65275"/>
<path d="M8.76331 27.4191H9.98161V27.9037C10.4008 27.4845 10.8855 27.2749 11.4095 27.2749C12.0252 27.2749 12.4968 27.4716 12.8374 27.8515C13.1257 28.179 13.2829 28.7161 13.2829 29.4497V32.6591H12.0645V29.7247C12.0645 29.2138 11.999 28.847 11.8549 28.6505C11.7108 28.454 11.4619 28.3492 11.0951 28.3492C10.689 28.3492 10.4139 28.4802 10.2436 28.7422C10.0733 29.0042 9.99473 29.4628 9.99473 30.1178V32.646H8.77642V27.406L8.76331 27.4191Z" fill="#F65275"/>
<path d="M17.8548 28.3098L16.8592 28.8471C16.702 28.5196 16.5054 28.3623 16.2696 28.3623C16.1517 28.3623 16.0601 28.4017 15.9815 28.4672C15.9029 28.5458 15.8635 28.6375 15.8635 28.7554C15.8635 28.9519 16.0993 29.1614 16.5578 29.3579C17.1998 29.633 17.6321 29.8951 17.8548 30.1178C18.0775 30.3405 18.1954 30.6679 18.1954 31.0609C18.1954 31.5718 18.012 31.991 17.6321 32.3316C17.2653 32.6591 16.833 32.8161 16.322 32.8161C15.4443 32.8161 14.8155 32.3839 14.4487 31.5324L15.4837 31.0478C15.6278 31.2967 15.7326 31.4538 15.8112 31.5324C15.9553 31.6634 16.1387 31.7422 16.3352 31.7422C16.7413 31.7422 16.9509 31.5585 16.9509 31.1786C16.9509 30.969 16.7936 30.7595 16.4792 30.5761C16.3613 30.5106 16.2303 30.4583 16.1124 30.3928C15.9945 30.3404 15.8635 30.2748 15.7456 30.2093C15.3919 30.039 15.1431 29.8688 14.999 29.6985C14.8156 29.4758 14.7238 29.2008 14.7238 28.8471C14.7238 28.3886 14.881 28.0086 15.1955 27.7204C15.5099 27.4191 15.9028 27.2749 16.3613 27.2749C17.0295 27.2749 17.5273 27.6156 17.8548 28.3098Z" fill="#F65275"/>
<path d="M20.5404 28.5584V32.6719H19.3221V28.5584H18.8112V27.432H19.3221V25.5063H20.5404V27.432H21.4836V28.5584H20.5404Z" fill="#F65275"/>
<path d="M26.1735 27.4191H27.3918V32.659H26.1735V32.1089C25.6757 32.5805 25.1386 32.8029 24.5622 32.8029C23.8417 32.8029 23.2391 32.5411 22.7675 32.0171C22.2959 31.48 22.0601 30.8119 22.0601 30.0128C22.0601 29.2137 22.2959 28.5718 22.7675 28.0478C23.2391 27.5238 23.8286 27.2617 24.536 27.2617C25.1517 27.2617 25.6888 27.5107 26.1735 28.0216V27.4191ZM23.2915 30.0259C23.2915 30.5237 23.4225 30.9428 23.6976 31.2572C23.9727 31.5716 24.3264 31.7421 24.7456 31.7421C25.191 31.7421 25.5578 31.5848 25.8329 31.2835C26.108 30.9691 26.2521 30.5631 26.2521 30.0653C26.2521 29.5675 26.108 29.1615 25.8329 28.8471C25.5578 28.5327 25.191 28.3753 24.7587 28.3753C24.3395 28.3753 23.9989 28.5327 23.7107 28.8471C23.4356 29.1615 23.2915 29.5674 23.2915 30.0259Z" fill="#F65275"/>
<path d="M33.9943 32.5411C33.9943 32.79 33.9942 33.0127 33.968 33.1961C33.9418 33.3795 33.9287 33.5499 33.9025 33.694C33.8108 34.087 33.6536 34.4277 33.3916 34.7159C32.92 35.2661 32.265 35.541 31.4397 35.541C30.7454 35.541 30.169 35.3577 29.7105 34.9778C29.2389 34.5848 28.9769 34.0477 28.8983 33.3665H30.1166C30.169 33.6285 30.2345 33.825 30.3524 33.9691C30.6013 34.2966 30.9681 34.4536 31.4528 34.4536C32.3436 34.4536 32.789 33.9034 32.789 32.8161V32.0828C32.3043 32.5806 31.7541 32.8161 31.1253 32.8161C30.4048 32.8161 29.8284 32.5543 29.3698 32.0434C28.9113 31.5194 28.6755 30.8644 28.6755 30.0785C28.6755 29.2925 28.8852 28.6637 29.3175 28.1266C29.776 27.5633 30.3786 27.2749 31.1384 27.2749C31.7934 27.2749 32.3436 27.5239 32.789 28.0086V27.4191H34.0073V32.5411H33.9943ZM32.8283 30.0522C32.8283 29.5413 32.6973 29.1353 32.4222 28.834C32.1471 28.5196 31.7934 28.3623 31.3611 28.3623C30.9026 28.3623 30.5358 28.5325 30.2738 28.873C30.038 29.1743 29.907 29.5675 29.907 30.0522C29.907 30.5369 30.0249 30.9167 30.2738 31.2311C30.5358 31.5717 30.9026 31.7291 31.3611 31.7291C31.8196 31.7291 32.1864 31.5586 32.4615 31.218C32.7104 30.9167 32.8283 30.5238 32.8283 30.0391V30.0522Z" fill="#F65275"/>
<path d="M35.5139 27.4191H36.7323V27.8906C36.955 27.6548 37.1514 27.4977 37.3217 27.406C37.4921 27.3143 37.7017 27.2749 37.9506 27.2749C38.265 27.2749 38.6056 27.3797 38.9462 27.5893L38.396 28.7029C38.1602 28.5326 37.9375 28.4541 37.7279 28.4541C37.0728 28.4541 36.7323 28.9517 36.7323 29.9473V32.6722H35.5139V27.4323V27.4191Z" fill="#F65275"/>
<path d="M43.5181 27.4191H44.7365V32.659H43.5181V32.1089C43.0203 32.5805 42.4832 32.8029 41.9068 32.8029C41.1863 32.8029 40.5837 32.5411 40.1121 32.0171C39.6405 31.48 39.4047 30.8119 39.4047 30.0128C39.4047 29.2137 39.6405 28.5718 40.1121 28.0478C40.5837 27.5238 41.1732 27.2617 41.8806 27.2617C42.4963 27.2617 43.0334 27.5107 43.5181 28.0216V27.4191ZM40.6361 30.0259C40.6361 30.5237 40.7671 30.9428 41.0422 31.2572C41.3173 31.5716 41.671 31.7421 42.0902 31.7421C42.5356 31.7421 42.9024 31.5848 43.1775 31.2835C43.4526 30.9691 43.5967 30.5631 43.5967 30.0653C43.5967 29.5675 43.4526 29.1615 43.1775 28.8471C42.9024 28.5327 42.5356 28.3753 42.1033 28.3753C41.6841 28.3753 41.3435 28.5327 41.0553 28.8471C40.7802 29.1615 40.6361 29.5674 40.6361 30.0259Z" fill="#F65275"/>
<path d="M46.2561 27.4191H47.4744V27.9037C47.7102 27.6548 47.9067 27.4977 48.0771 27.406C48.2474 27.3143 48.47 27.2749 48.7451 27.2749C49.3346 27.2749 49.8063 27.537 50.1469 28.0479C50.5268 27.537 51.0377 27.2749 51.6927 27.2749C52.8717 27.2749 53.4612 27.9956 53.4612 29.4235V32.6722H52.2429V29.7641C52.2429 29.2663 52.1774 28.8994 52.0595 28.7029C51.9285 28.4933 51.732 28.3885 51.4438 28.3885C51.1032 28.3885 50.8674 28.5196 50.7102 28.7685C50.553 29.0174 50.4875 29.4234 50.4875 29.9867V32.6984H49.2691V29.8034C49.2691 28.8733 48.994 28.4016 48.4569 28.4016C48.1163 28.4016 47.8674 28.5327 47.7102 28.7816C47.553 29.0305 47.4744 29.4365 47.4744 29.9867V32.6984H46.2561V27.4585V27.4191Z" fill="#F65275"/>
</svg>
