<svg width="60" height="60" viewBox="0 0 60 60" fill="none" xmlns="http://www.w3.org/2000/svg">
<path d="M29.9094 0.419922H29.8964C13.6827 0.419922 0.538818 13.5636 0.538818 29.7769V29.7901C0.538818 46.0034 13.6827 59.1468 29.8964 59.1468H29.9094C46.1232 59.1468 59.267 46.0034 59.267 29.7901V29.7769C59.267 13.5636 46.1232 0.419922 29.9094 0.419922Z" fill="white"/>
<path d="M20.307 24.3535V31.4929H22.7568V32.6721H19.0625V24.3535H20.3201H20.307Z" fill="#F65275"/>
<path d="M25.2066 24.3535V32.6721H23.949V24.3535H25.2066Z" fill="#F65275"/>
<path d="M27.1978 32.6718V23.79L33.2631 30.1305V24.3532H34.5207V33.1694L28.4553 26.8424V32.6587H27.1978V32.6718Z" fill="#F65275"/>
<path d="M41.0972 25.5327H37.7566V27.537H40.9923V28.7159H37.7566V31.4929H41.0972V32.6721H36.5121V24.3535H41.0972V25.5327Z" fill="#F65275"/>
</svg>
