<svg width="161" height="26" viewBox="0 0 161 26" fill="none" xmlns="http://www.w3.org/2000/svg">
<path d="M0.538268 6.04547C0.852673 2.8622 3.1059 0.936485 7.36346 0.936485C7.36346 0.936485 10.6123 0.910362 12.8262 1.01516C15.3022 1.13306 16.5729 1.93214 16.5729 3.29453C16.5729 4.13292 16.9135 6.12414 13.6515 6.12414C11.5817 6.12414 10.6909 5.22011 7.82197 4.99741C5.18884 4.80091 5.20191 8.83582 7.46824 8.74412C8.01845 8.71792 9.95731 8.45592 10.9398 8.41662C14.1887 8.31182 16.8087 8.96681 16.8087 13.3291C16.8087 16.6564 14.5947 18.4249 12.2105 18.5428C9.95728 18.831 5.59492 18.6606 3.86569 18.6606C1.03605 18.6606 0.905038 14.0495 4.02289 14.2329C4.9268 14.2853 9.56428 14.8748 9.56428 14.8748C11.3197 14.8748 11.4376 12.3466 9.4988 12.3466C8.68659 12.3466 6.19753 12.3858 5.05781 12.3858C2.59497 12.3858 0.145247 10.4339 0.564454 6.01924M32.8433 12.8704C32.804 10.709 31.9656 9.20261 30.3412 8.41662C29.2801 7.90573 27.7867 7.66984 25.7169 7.66984H25.6251C23.5553 7.66984 22.0488 7.90573 21.0401 8.41662C19.4025 9.21571 18.5117 10.709 18.5379 12.8704V13.7089C18.5772 15.5952 19.5597 17.0625 21.4855 18.0712C22.4418 18.5428 23.8828 18.8178 25.4548 18.8178H25.9788C27.5378 18.8178 28.9919 18.5559 29.922 18.0712C31.887 17.0625 32.8826 15.5952 32.8564 13.7089V12.8704H32.8433ZM27.7474 12.7919V13.6697C27.7343 14.4295 27.6032 15.0188 27.2757 15.3332C27.0399 15.5952 26.66 15.7132 26.136 15.7132H25.3238C24.7867 15.7132 24.3937 15.5952 24.1579 15.3332C23.8042 15.0188 23.6208 14.4426 23.6339 13.6697V12.7919C23.6601 11.3509 24.1972 10.7876 25.6251 10.7876H25.7692C27.1971 10.7876 27.7736 11.3509 27.7605 12.7919M48.6422 12.7657C48.6422 10.8924 47.6466 9.43842 45.6815 8.42973C44.7514 7.94504 43.3104 7.68295 41.7384 7.68295H41.2144C39.6423 7.68295 38.2013 7.94504 37.245 8.42973C35.2931 9.43842 34.3237 10.8793 34.3237 12.7657V16.5385C34.3498 17.0887 34.5595 17.6258 34.9918 18.0581C35.4896 18.5297 36.1577 18.8047 36.8913 18.8047C38.293 18.8047 39.4196 17.7961 39.4065 16.5385V12.8313C39.3803 11.0235 40.2318 10.7745 41.0441 10.7745H41.8694C42.3934 10.7745 42.7864 10.9056 43.0353 11.1676C43.3628 11.482 43.52 12.0584 43.5069 12.8313V16.5385C43.52 17.0887 43.7558 17.6258 44.175 18.0581C44.6466 18.5297 45.3671 18.8047 46.0876 18.8047C47.5156 18.8047 48.6291 17.7961 48.6291 16.5385V12.7657H48.6422ZM64.5327 12.7657C64.5327 10.8924 63.5371 9.43842 61.5721 8.42973C60.6551 7.94504 59.2141 7.68295 57.642 7.68295H57.118C55.5591 7.68295 54.1049 7.94504 53.1486 8.42973C51.2098 9.43842 50.2273 10.8793 50.2273 12.7657V16.5385C50.2404 17.0887 50.4631 17.6258 50.8823 18.0581C51.3801 18.5297 52.0613 18.8047 52.7949 18.8047C54.1967 18.8047 55.3233 17.7961 55.3233 16.5385V12.8313C55.2971 11.0235 56.1486 10.7745 56.9608 10.7745H57.7861C58.3101 10.7745 58.7031 10.9056 58.952 11.1676C59.2796 11.482 59.4367 12.0584 59.4236 12.8313V16.5385C59.4498 17.0887 59.6595 17.6258 60.0918 18.0581C60.5634 18.5297 61.2839 18.8047 62.0044 18.8047C63.4323 18.8047 64.5458 17.7961 64.5458 16.5385V12.7657H64.5327ZM105.798 6.47771C105.798 4.30313 104.842 2.77052 102.995 1.97143C101.908 1.51293 100.218 1.25087 97.9513 1.25087H97.912C95.6457 1.25087 93.9951 1.48673 92.8816 1.97143C91.0606 2.74432 90.1174 4.30313 90.1305 6.47771L90.1567 16.4468C90.1698 17.0232 90.3925 17.5734 90.8248 18.0057C91.3488 18.5166 92.0563 18.8047 92.803 18.8047C94.2702 18.8047 95.4492 17.7437 95.4361 16.4468V12.3989H98.9863C99.4186 12.3989 99.7461 12.5168 99.9688 12.7657C100.349 13.1063 100.519 13.6958 100.519 14.4425V16.4468C100.545 17.0232 100.794 17.5734 101.226 18.0057C101.75 18.5166 102.432 18.8047 103.205 18.8047C104.646 18.8047 105.864 17.7437 105.838 16.4468L105.811 6.47771H105.798ZM100.506 6.4123V9.26798H95.4099C95.4099 8.20689 95.4099 6.4123 95.4099 6.4123C95.4099 5.69181 95.5802 5.16773 95.8815 4.85333C96.209 4.53894 96.733 4.36864 97.4797 4.36864H98.4491C99.1959 4.36864 99.7461 4.53894 100.047 4.85333C100.349 5.16773 100.519 5.69181 100.519 6.4123M121.912 12.7657C121.912 10.8924 120.929 9.43842 118.964 8.42973C118.034 7.94504 116.593 7.68295 115.034 7.68295H114.497C112.938 7.68295 111.497 7.94504 110.541 8.42973C108.602 9.43842 107.619 10.8793 107.619 12.7657V16.5385C107.632 17.0887 107.855 17.6258 108.287 18.0581C108.785 18.5297 109.453 18.8047 110.2 18.8047C111.602 18.8047 112.728 17.7961 112.728 16.5385L112.702 12.8313C112.702 11.0235 113.541 10.7745 114.366 10.7745H115.191C115.715 10.7745 116.108 10.9056 116.357 11.1676C116.685 11.482 116.829 12.0584 116.829 12.8313V16.5385C116.855 17.0887 117.065 17.6258 117.497 18.0581C117.968 18.5297 118.689 18.8047 119.409 18.8047C120.837 18.8047 121.951 17.7961 121.951 16.5385V12.7657H121.912ZM152.907 12.5954C153.038 10.7483 151.885 9.43842 149.92 8.42973C149.003 7.94504 147.549 7.68295 145.99 7.68295H145.937C144.378 7.68295 142.924 7.94504 141.981 8.42973C140.042 9.43842 139.034 10.8793 139.06 12.7657L139.086 13.6303C139.125 15.8311 139.964 17.3114 141.588 18.0843C142.636 18.5952 144.116 18.8047 146.186 18.8047H149.422C150.365 18.8047 151.151 18.2546 151.138 17.4031C151.151 16.997 150.994 16.7742 150.693 16.486C150.339 16.1454 149.881 16.08 149.409 16.08H146.055C144.876 16.08 144.47 15.4773 144.274 15.0188H150.274C151.728 15.0188 152.828 13.9317 152.907 12.661V12.5823V12.5954ZM148.177 12.3858C148.177 12.3858 148.177 12.412 148.177 12.4382C148.177 12.4644 148.086 12.5169 147.981 12.5169H144.077C144.182 11.0235 144.929 10.6173 145.702 10.6173H146.527C147.562 10.6173 148.112 11.3378 148.177 12.3989M160.321 3.60891C160.321 2.31202 159.116 1.25087 157.662 1.25087C156.889 1.25087 156.208 1.53919 155.684 2.03699C155.265 2.46929 155.016 3.0325 155.029 3.5958L155.055 16.4337C155.068 17.0101 155.291 17.5865 155.749 18.0188C156.234 18.5035 156.942 18.7916 157.714 18.7916C159.155 18.7916 160.361 17.7306 160.348 16.4337L160.321 3.5958V3.60891ZM80.3315 17.0887V10.7745C80.3315 9.42521 80.0826 8.88809 79.6503 8.4558C79.1656 7.9973 78.4714 7.68295 77.7508 7.68295C77.0303 7.68295 76.336 7.9711 75.8382 8.4558C75.4452 8.86189 75.2094 9.42523 75.2094 9.97543V13.6826C75.1963 14.4555 75.0653 15.0319 74.7378 15.3463C74.502 15.6214 74.109 15.7263 73.5849 15.7263H72.7596C72.2356 15.7263 71.8295 15.6083 71.5937 15.3463C71.2531 15.0319 71.0566 14.4555 71.0697 13.6826V9.97543C71.0697 9.42523 70.847 8.87499 70.4278 8.4558C69.9431 7.9711 69.2619 7.68295 68.5283 7.68295C67.7947 7.68295 67.1134 7.9711 66.6287 8.4558C66.2095 8.86189 65.9869 9.42523 66 9.97543V13.7351C66 15.6215 67.0087 17.0755 68.9475 18.0973C69.8907 18.582 71.3448 18.8441 72.9038 18.8441H72.8645C73.0741 18.8441 73.3098 18.8702 73.5456 18.9226H73.5326C73.8077 18.9488 74.0173 19.0799 74.1483 19.4859C74.1876 19.6431 74.1876 19.8003 74.1352 19.9444C73.9518 20.4815 73.5719 20.9007 72.9431 21.0972C72.3142 21.2937 71.7771 21.2544 70.4278 21.2937C70.1003 21.3068 69.6811 21.5034 69.3143 21.8571C68.5414 22.6169 68.8951 23.9137 69.144 24.2281C69.6942 24.9224 70.3885 24.9616 70.9256 25.0009C71.2793 25.014 71.2793 25.0272 71.633 25.0272C75.3928 25.0272 77.646 23.8612 79.1525 21.5426C79.7944 20.5732 80.2661 18.9358 80.3054 18.0581C80.3316 17.3507 80.3185 17.1018 80.3185 17.1018M137.632 17.7829C137.632 17.8615 137.632 17.9271 137.632 18.0057C137.593 18.8833 137.121 20.534 136.479 21.4903C134.959 23.8089 132.732 24.9747 128.96 24.9747C128.606 24.9747 128.619 24.9617 128.252 24.9355C127.728 24.8962 127.021 24.8568 126.47 24.1625C126.222 23.8481 125.855 22.5513 126.641 21.7915C127.008 21.4378 127.427 21.2413 127.754 21.2282C129.117 21.1889 129.641 21.2283 130.283 21.0318C130.911 20.8353 131.291 20.4161 131.475 19.879C131.527 19.7349 131.527 19.5776 131.501 19.4204C131.409 19.1322 131.265 18.9751 131.095 18.9096C130.794 18.8441 130.492 18.8178 130.243 18.8047H130.217C128.658 18.8047 127.217 18.5428 126.261 18.0581C124.322 17.0494 123.366 15.5822 123.326 13.722V12.8573C123.274 10.6959 124.165 9.1895 125.815 8.40351C126.85 7.91881 128.344 7.68295 130.414 7.68295H130.505C132.575 7.68295 134.055 7.90571 135.104 8.40351C136.728 9.1764 137.566 10.6959 137.593 12.8573L137.619 13.722V17.0494H137.645C137.645 17.0494 137.645 17.2327 137.645 17.665V17.7829H137.632ZM130.872 15.7001C131.396 15.7001 131.776 15.5821 132.025 15.3201C132.352 15.0057 132.483 14.4295 132.497 13.6566V12.7788C132.523 11.3378 131.933 10.7745 130.518 10.7745H130.374C128.96 10.7745 128.396 11.3378 128.383 12.7788V13.6566C128.37 14.4164 128.553 15.0057 128.907 15.3201C129.143 15.5821 129.536 15.7001 130.073 15.7001H130.898H130.872Z" fill="white"/>
</svg>
