<svg width="128" height="40" viewBox="0 0 128 40" fill="none" xmlns="http://www.w3.org/2000/svg">
<path d="M34.3762 35.1023C33.446 34.8665 33.2102 34.6962 33.1447 34.6307C33.2102 34.5652 33.4854 34.4079 34.1142 34.4079C34.743 34.4079 35.2408 34.5388 35.5421 34.6436C35.8565 34.7615 36.2102 34.6174 36.3674 34.3161L36.6818 33.7005C36.7604 33.5302 36.7735 33.3338 36.708 33.1635C36.6425 32.9932 36.4985 32.8491 36.3282 32.7836C35.7648 32.574 35.005 32.4561 34.1666 32.4561C32.1099 32.4561 30.682 33.3861 30.682 34.7092C30.682 36.3467 32.7255 36.8314 33.4854 37.0148C34.5465 37.2899 34.6382 37.4864 34.6382 37.5388C34.6382 37.6305 34.2976 37.8794 33.4722 37.8794C32.8696 37.8794 32.2147 37.7484 31.7037 37.5519C31.3762 37.4078 30.9833 37.5519 30.8392 37.8925L30.5509 38.5344C30.3937 38.8619 30.5509 39.2548 30.8784 39.412C31.4548 39.674 32.4636 39.8444 33.3806 39.8444C36.1317 39.8444 37.101 38.5737 37.101 37.4995C37.101 35.8358 35.1884 35.3381 34.3762 35.1285V35.1023Z" fill="white"/>
<path d="M48.7995 39.373L50.3453 36.5303C50.3453 36.5303 50.3453 36.504 50.3584 36.504C50.3584 36.5302 50.3584 36.5565 50.3584 36.5827L50.5681 39.1502C50.5943 39.4908 50.8825 39.7528 51.2362 39.7659H52.3366C52.7034 39.7659 53.0047 39.4777 53.0047 39.0978C53.0047 39.0454 53.0047 38.993 52.9916 38.9406L52.4675 33.1766C52.4413 32.836 52.1531 32.5741 51.8125 32.5741H50.3715C50.1226 32.5741 49.913 32.7051 49.7951 32.9147L48.2362 35.7574C48.1183 35.9932 48.0004 36.2159 47.8956 36.4124C47.8039 36.2028 47.686 35.9932 47.5681 35.7443L46.0877 32.9016C45.9698 32.6789 45.7472 32.5479 45.4983 32.5479H44.0572C43.7166 32.5479 43.4284 32.7968 43.3891 33.1374L42.7734 39.0062C42.7603 39.1896 42.8127 39.3861 42.9437 39.5171C43.0747 39.6612 43.2451 39.7397 43.4416 39.7397H44.5158C44.8564 39.7397 45.1445 39.4777 45.1838 39.1371L45.4197 36.6481L46.7821 39.3468C46.9 39.5695 47.1227 39.7136 47.3716 39.7136H48.2231C48.472 39.7136 48.6947 39.5826 48.8126 39.3599L48.7995 39.373Z" fill="white"/>
<path d="M60.2884 32.5742H61.415C61.7818 32.5742 62.0831 32.8755 62.0831 33.2423V39.0979C62.0831 39.4647 61.7818 39.766 61.415 39.766H60.2884C59.9216 39.766 59.6202 39.4647 59.6202 39.0979V33.2423C59.6202 32.8755 59.9216 32.5742 60.2884 32.5742Z" fill="white"/>
<path d="M72.3798 35.1416C71.4497 34.9058 71.2139 34.7356 71.1615 34.6701C71.227 34.6046 71.5021 34.4475 72.1309 34.4475C72.7597 34.4475 73.2576 34.5784 73.5589 34.6832C73.8733 34.8011 74.227 34.657 74.3842 34.3557L74.6986 33.74C74.7903 33.5697 74.7903 33.3732 74.7248 33.2029C74.6593 33.0326 74.5152 32.8886 74.3449 32.8231C73.7815 32.6135 73.0218 32.4956 72.1834 32.4956C70.1266 32.4956 68.6987 33.4257 68.6987 34.7487C68.6987 36.3862 70.7423 36.8709 71.5021 37.0543C72.5632 37.3294 72.6418 37.526 72.6418 37.5784C72.6418 37.6701 72.3012 37.9188 71.4759 37.9188C70.8733 37.9188 70.2183 37.7878 69.7074 37.5913C69.3799 37.4472 69 37.5913 68.8428 37.9319L68.5546 38.5738C68.4105 38.9013 68.5546 39.2944 68.8952 39.4516C69.4716 39.7136 70.4672 39.8838 71.3842 39.8838C74.1352 39.8838 75.1047 38.6132 75.1047 37.539C75.1047 35.8753 73.2051 35.3775 72.3798 35.1679V35.1416Z" fill="white"/>
<path d="M87.8251 39.7924C88.0871 39.7924 88.3228 39.6614 88.4276 39.4256C88.5324 39.1898 88.4932 38.9017 88.3229 38.7052L85.4408 35.8756L87.956 33.845C88.2049 33.6878 88.3098 33.3866 88.2312 33.0984C88.1526 32.8233 87.8905 32.6006 87.6023 32.6006H86.2006C86.0696 32.6006 85.9386 32.6661 85.8338 32.7447L83.4758 34.7096V33.2687C83.4758 32.9019 83.1745 32.6006 82.8077 32.6006H81.6811C81.3143 32.6006 81.0129 32.9019 81.0129 33.2687V39.1243C81.0129 39.4911 81.3011 39.7924 81.6679 39.7924H82.7945C83.1614 39.7924 83.4627 39.5042 83.4627 39.1243V37.2118L83.5413 37.1593L86.0041 39.5959C86.1351 39.74 86.3185 39.7924 86.5019 39.7924H87.8381H87.8251Z" fill="white"/>
<path d="M95.1611 39.7924H96.2877C96.6545 39.7924 96.9558 39.5304 96.9558 39.1636V33.2949C96.9558 32.9281 96.6676 32.6006 96.3008 32.6006H95.1742C94.8074 32.6006 94.5061 32.9281 94.5061 33.2949V39.1636C94.5061 39.5304 94.7943 39.8055 95.1611 39.8055V39.7924Z" fill="white"/>
<path d="M78.6549 24.8451C78.2619 24.57 77.8295 24.2688 77.3972 23.9151L76.847 23.4566C75.3012 22.1728 71.7641 19.2253 71.4759 18.2821C72.4191 17.2341 75.275 12.754 76.1658 10.8283C77.6592 7.57955 77.5675 5.31325 75.9038 4.09496C74.9082 3.36137 73.3493 3.23033 69.4716 3.23033C68.607 3.23033 67.7817 3.23033 66.8647 3.23033C65.725 3.23033 64.4411 3.24344 62.7905 3.24344C61.1398 3.24344 59.2796 3.2303 57.2229 3.2041C56.5286 3.2041 55.9915 3.58401 55.8212 4.1997C55.5068 5.39179 56.6203 7.06871 58.4151 8.1036C59.8299 8.90269 62.5285 9.3218 66.4324 9.3218C67.9651 9.3218 69.1572 9.25638 69.4454 9.24328C69.5502 9.25638 69.6681 9.29564 69.7074 9.36114C69.8384 9.61003 69.7598 10.3043 68.6987 12.2299C68.6332 12.3478 68.5808 12.4397 68.5415 12.5183C67.2053 15.0203 64.9127 18.2822 63.7206 19.3563C63.5765 19.5004 63.4062 19.6445 63.249 19.7886C61.808 21.1248 60.0264 22.7885 56.188 24.2819C55.2579 24.6487 54.8387 25.1334 54.9566 25.7229C55.1924 27.0067 57.9958 27.046 58.3102 27.046C58.6639 27.046 59.0046 27.0197 59.3059 26.9804C62.6726 26.4957 64.7949 25.6836 68.0961 22.2907L68.6594 22.841C68.6594 22.841 68.6987 22.8801 68.7249 22.8932C73.3624 26.4826 75.275 27.1376 77.3841 27.1376C77.8295 27.1376 78.2619 27.1115 78.7466 27.0722C79.0348 27.046 79.729 26.9936 79.8993 26.391C80.0696 25.7622 79.5194 25.3823 78.6941 24.8059L78.6549 24.8451Z" fill="white"/>
<path d="M23.7127 24.7928C23.3328 24.5177 22.8874 24.2163 22.4681 23.8626L21.8917 23.3779C20.359 22.1072 16.835 19.1729 16.5468 18.2166C17.4769 17.1686 20.3459 12.7015 21.2367 10.7627C22.7301 7.51396 22.6384 5.24766 20.9616 4.02937C19.966 3.29578 18.4071 3.1649 14.5294 3.1649C13.6648 3.1649 12.8395 3.1649 11.9225 3.1649C10.7828 3.1649 9.49891 3.17801 7.84828 3.17801C6.14526 3.17801 4.33743 3.16487 2.2807 3.13867C1.58639 3.13867 1.04935 3.51858 0.879047 4.13427C0.564642 5.33946 1.67813 7.00311 3.47286 8.0249C4.88768 8.83709 7.58632 9.24326 11.4902 9.24326C13.0229 9.24326 14.215 9.17768 14.5032 9.16458C14.608 9.17768 14.7259 9.21694 14.7652 9.28243C14.9486 9.63613 14.6211 10.6056 13.7696 12.1514C13.7041 12.2693 13.6517 12.3741 13.6124 12.4527C12.2762 14.9547 9.97056 18.2166 8.79154 19.2908C8.63434 19.4349 8.47714 19.5791 8.30684 19.7363C6.86582 21.0725 5.08418 22.7229 1.25892 24.2163C0.32881 24.5831 -0.0903998 25.0678 0.027502 25.6573C0.276406 26.9411 3.06674 26.9804 3.38115 26.9804C3.73485 26.9804 4.07547 26.9543 4.37678 26.915C7.74353 26.4303 9.87881 25.618 13.167 22.2251L13.7303 22.7754C13.7303 22.7754 13.7696 22.8147 13.7958 22.8278C18.4333 26.4172 20.3459 27.0722 22.455 27.0722C22.9004 27.0722 23.3327 27.0459 23.8174 27.0066C24.1056 26.9804 24.7999 26.928 24.9703 26.3254C25.1406 25.6966 24.5904 25.3167 23.7519 24.7403L23.7127 24.7928Z" fill="white"/>
<path d="M39.3411 17.0375C41.5943 17.5746 45.6554 18.4262 45.6947 18.4262C45.7209 18.4262 45.7471 18.4262 45.7602 18.4262C45.7602 18.4262 45.8257 18.4262 45.9305 18.4262C46.9654 18.4262 48.1837 17.8497 48.485 16.2122C48.8256 14.4437 46.3235 13.5399 46.0353 13.4482C46.0091 13.4351 45.9829 13.435 45.9567 13.4219L36.4328 11.4307C36.4328 11.4307 35.0443 11.1426 33.9569 11.1426C33.3936 11.1426 32.6207 11.1949 32.2539 11.7451C32.1359 11.9154 31.9788 12.2692 32.1753 12.7669C33.1185 15.1642 35.4241 16.1074 39.328 17.0375H39.3411Z" fill="white"/>
<path d="M46.8869 22.6446H46.8344C46.8344 22.6446 46.638 22.6446 46.3236 22.6446C44.5944 22.6446 38.4242 22.4087 32.0575 19.4612C31.5727 19.2385 31.1666 19.1337 30.826 19.1206C30.2365 19.1206 29.7911 19.4481 29.6863 19.9852C29.4112 21.3476 31.612 23.9021 35.2015 25.3955C38.5813 26.8103 43.8083 26.9674 45.8913 26.9674C46.3498 26.9674 46.651 26.9674 46.7427 26.9674C46.7689 26.9674 46.7951 26.9674 46.8213 26.9674C47.8824 26.9674 49.1794 26.4173 49.2842 24.8715C49.3235 24.3213 49.1532 23.8235 48.8126 23.4436C48.1445 22.6969 47.0048 22.6445 46.8869 22.6314V22.6446Z" fill="white"/>
<path d="M46.9392 5.24787C46.4021 5.16927 40.6118 4.26542 34.0879 3.16503C33.7342 3.09953 33.4067 3.07324 33.1316 3.07324C31.7037 3.07324 31.4678 3.88544 31.4285 4.22604C31.2713 5.81112 34.3368 8.15597 36.6162 8.61446C41.2144 9.53145 46.6117 10.3568 46.6641 10.3568C46.6903 10.3568 46.7034 10.3568 46.7296 10.3568H46.8344C48.1182 10.3568 49.4414 9.58392 49.4807 7.86784C49.5069 7.09495 49.2842 6.45313 48.8256 5.98153C48.1837 5.32654 47.2929 5.23474 46.9654 5.22164L46.9392 5.24787Z" fill="white"/>
<path d="M105.261 14.6273C105.261 14.6273 105.196 14.6273 105.17 14.6273C103.624 14.7321 99.4187 15.243 97.8335 15.4395L97.0869 12.0073C98.7768 11.7977 102.969 11.2867 104.331 11.1033C105.392 10.9592 106.047 10.0161 105.969 8.74545C105.89 7.59266 105.143 6.36119 103.925 6.36119C103.873 6.36119 103.82 6.36119 103.781 6.36119C102.799 6.43979 98.0563 7.02934 96.3008 7.23893C96.1567 6.28264 95.8948 4.39628 95.6852 2.66709C95.5542 1.5667 94.5716 0.846191 93.1961 0.846191C92.2005 0.846191 91.2573 1.22609 90.7464 1.82868C90.3796 2.24788 90.2485 2.77188 90.3272 3.30897C90.563 4.77616 90.8774 6.88514 91.0215 7.95933L83.3841 8.50958C82.6767 8.56198 82.4146 9.00742 82.3884 9.37422C82.336 10.5925 85.0871 12.099 86.4626 12.3217C86.9866 12.4134 87.9691 12.4527 89.397 12.4527C90.2747 12.4527 91.1394 12.4395 91.6634 12.4264L92.659 15.7932C91.3621 15.898 88.5849 16.1206 84.7989 16.3826C83.7771 16.4481 83.633 17.0506 83.6199 17.2995C83.5282 18.5702 86.5412 20.0374 87.6023 20.2732C89.6328 20.6924 91.6765 20.7842 93.0127 20.7842C93.3795 20.7842 93.6808 20.7841 93.9166 20.771C94.2834 21.8714 95.2135 24.5439 95.7899 25.5919C96.7331 27.2948 97.8205 28.2381 98.8685 28.2381C99.327 28.2381 99.7462 28.0415 100.047 27.7009C100.454 27.2162 100.611 26.4827 100.48 25.6312C100.362 24.9107 99.5366 21.806 99.1174 20.2995C100.742 20.1423 104.371 19.7624 105.445 19.5004C106.624 19.2253 107.279 18.1904 107.122 16.8804C106.991 15.7538 106.244 14.5748 105.222 14.5748L105.261 14.6273Z" fill="white"/>
<path d="M125.75 13.1603C125.75 13.1603 125.632 13.134 125.567 13.134H112.296C111.746 13.1209 111.327 13.2126 110.999 13.3829C110.593 13.6187 110.357 13.9986 110.357 14.4309C110.357 15.7933 112.755 17.4569 115.558 17.4569H125.671C125.75 17.4569 125.842 17.457 125.92 17.4177C126.51 17.1819 127.492 16.4745 127.492 15.2956C127.492 13.9856 126.392 13.3305 125.737 13.134L125.75 13.1603Z" fill="white"/>
</svg>
