<svg width="432" height="161" viewBox="0 0 432 161" fill="none" xmlns="http://www.w3.org/2000/svg">
<path d="M42.2922 119.979C41.3773 120.314 40.6187 120.47 40.3287 120.515C40.2617 120.515 40.1948 120.537 40.1278 120.537C38.789 120.715 37.3609 120.805 35.8882 120.805C34.1701 120.805 33.0098 120.693 32.8759 120.671C32.8313 120.671 32.7643 120.671 32.7197 120.671C31.1801 120.448 29.8636 119.689 29.038 118.573C28.9041 118.417 28.7702 118.261 28.681 118.105C28.5248 117.859 28.3908 117.614 28.2793 117.346C27.8107 116.587 27.5429 115.74 27.476 115.003C27.476 114.869 27.4537 114.735 27.4537 114.602C27.3867 111.411 29.9751 109.737 32.8313 108.332C34.7502 107.461 35.4642 106.346 35.4642 106.368C35.4866 106.257 35.4866 106.279 35.5312 106.145C37.1154 101.504 38.9675 98.1123 40.2617 96.1041C41.065 94.8546 41.7567 93.5604 42.3145 92.2439C43.274 90.0126 44.1889 88.3838 45.1037 87.2458C45.55 86.7103 46.1078 86.0186 46.7773 85.3269C45.7285 84.0774 44.8806 82.6047 44.055 80.775C42.2699 76.7587 39.3022 68.8152 39.3022 60.6263V60.5817C38.6328 60.1132 37.9411 59.6892 37.1824 59.3099C29.0157 55.3605 11.8342 55.6952 4.00212 69.4177C-3.82995 83.1402 3.08726 101.593 16.4754 103.534C16.4754 103.534 14.5564 109.537 20.0009 117.993C23.8835 123.75 29.1495 123.995 29.1495 123.995C29.1495 123.995 30.823 126.785 32.1395 129.886C32.1395 129.886 28.5471 132.898 27.3421 136.022C25.2446 141.489 27.0744 146.041 26.4273 147.982C25.4678 150.883 22.1654 151.307 21.6745 155.39C21.1612 159.473 24.6199 160.232 26.9405 160.232C29.2611 160.232 34.304 160.031 36.6692 158.759C39.0344 157.487 39.4584 156.059 39.146 153.159C38.856 150.258 37.8518 148.517 38.856 144.367C39.6592 141.087 42.56 139.347 43.7426 138.744C42.5823 134.616 42.0244 129.417 41.9575 128.77C41.6228 125.937 41.8682 122.835 42.2922 119.979Z" fill="white"/>
<path d="M93.6366 111.724C93.5697 110.765 91.9185 110.073 91.9185 110.073C90.4012 109.582 89.8656 107.507 89.8656 107.507C88.326 102.933 86.474 99.7419 85.3137 97.9792C84.5996 96.8859 83.9748 95.7702 83.417 94.5876C82.8815 93.472 82.0559 91.8431 80.7617 89.8796C78.7758 86.845 76.3882 86.064 75.094 85.8855C75.2279 85.8186 75.3618 85.7516 75.4734 85.6847C78.6419 83.9889 80.0476 82.3154 81.4534 79.1247C81.6765 78.6338 81.8996 78.0983 82.1228 77.5181C82.212 77.4512 82.2344 77.362 82.212 77.2727C83.9525 72.9217 85.8492 66.7409 85.8492 60.6272C85.8492 54.5134 84.3318 50.14 81.6319 46.6369C80.6278 45.3204 79.3559 44.1824 77.9055 43.2007C77.8386 43.0668 77.7716 42.8437 77.8832 42.7098C79.8022 40.233 81.3865 34.3647 81.3865 28.8757C81.3865 25.3726 80.9179 22.2487 78.3964 14.1491C77.1692 10.222 75.7411 3.68427 74.6477 1.49759C74.2907 0.783572 73.7552 0.471191 73.0858 0.471191C72.3494 0.471191 71.8139 0.82821 71.4346 1.47529C67.619 7.90145 65.0305 16.0903 65.0305 23.9445C65.0305 29.7905 66.7933 35.882 67.3288 38.4926C67.4627 39.162 66.8379 39.4521 66.8379 39.4521C66.1016 39.3851 65.3653 39.3628 64.6289 39.3628C63.8926 39.3628 63.1562 39.4075 62.4199 39.4521C62.4199 39.4521 61.7728 39.162 61.929 38.4926C62.4645 35.882 64.2273 29.7905 64.2273 23.9445C64.2273 16.0903 61.6389 7.90145 57.8233 1.47529C57.444 0.850523 56.8861 0.471191 56.172 0.471191C55.5026 0.471191 54.9672 0.783572 54.6101 1.49759C53.5168 3.68427 52.0887 10.222 50.8615 14.1491C48.34 22.2487 47.8714 25.3726 47.8714 28.8757C47.8714 34.387 49.4557 40.233 51.3746 42.7098C51.4862 42.866 51.4193 43.0668 51.3746 43.2007C49.9243 44.1824 48.6747 45.3427 47.6483 46.6369C44.9484 50.14 43.431 54.7365 43.431 60.6272C43.431 67.6781 45.9301 74.796 47.8268 79.1024C49.2549 82.2931 50.6383 83.9666 53.8068 85.6624C53.963 85.7516 54.0969 85.8186 54.2754 85.8855C51.5978 86.0194 49.835 87.916 48.2953 89.8349C47.4921 90.839 46.6888 92.4679 46.0863 93.8513C45.4169 95.4132 44.6136 96.8859 43.7211 98.3139C42.5608 100.121 40.865 103.2 39.4146 107.462C39.4146 107.462 38.8567 109.537 37.3617 110.028C37.3617 110.028 35.7105 110.72 35.6436 111.679C35.6436 111.679 31.5378 112.996 31.5601 114.513C31.5601 114.513 31.6494 115.272 32.1403 115.495C32.1403 115.495 32.1403 115.629 32.1849 115.785H32.118C32.118 115.785 32.118 115.785 32.2073 115.83C32.2965 116.097 32.5866 116.432 33.3229 116.544C33.3229 116.544 34.3494 116.655 35.889 116.655C36.9377 116.655 38.2319 116.611 39.5931 116.432C39.5931 116.432 42.6054 115.874 43.855 113.978C43.855 113.978 49.5003 106.659 51.5755 102.375C51.5755 102.375 50.7722 105.454 50.7053 105.543C50.6383 105.633 48.4962 111.679 48.4962 111.679C48.4962 111.679 45.2607 121.185 46.0863 128.258C46.0863 128.258 46.8227 135.287 48.2507 139.147C48.2507 139.147 49.3887 142.828 48.6747 144.703C48.6747 144.703 47.8937 148.496 48.7193 152.356C48.7193 152.356 49.0986 154.699 48.4292 156.194C48.4292 156.194 48.0276 157.533 48.0276 158.983C48.0276 158.983 48.0276 160.344 49.0763 160.545H52.7135H57.6002H59.9208H61.148C61.148 160.545 62.8215 160.366 62.5538 158.291C62.5538 158.291 62.3753 157.31 61.8844 156.194C61.8844 156.194 60.5009 153.316 61.3712 149.433C61.3712 149.433 61.8397 146.689 61.3712 143.275C61.3712 143.275 61.3042 140.887 61.8844 139.459C61.8844 139.459 62.4868 137.317 62.6653 136.246C62.6653 136.246 62.6653 136.246 62.6876 136.246V136.201C62.8215 136.246 63.0446 136.313 63.2901 136.313C63.4909 136.313 63.6918 136.268 63.8926 136.112C64.1157 136.425 64.4504 136.469 64.562 136.469C64.5843 136.469 64.6066 136.469 64.6066 136.469C64.6066 136.469 64.6066 136.469 64.6289 136.469C64.6289 136.469 64.6513 136.469 64.6736 136.469C64.7182 136.469 64.7851 136.469 64.8521 136.469C64.8521 136.469 64.8521 136.469 64.8744 136.469C65.0529 136.425 65.2537 136.358 65.3653 136.201C65.5215 136.268 65.8339 136.335 66.1686 136.335C66.3024 136.335 66.4587 136.335 66.6149 136.291C66.7934 137.339 67.4181 139.481 67.4181 139.481C67.9983 140.909 67.9314 143.297 67.9314 143.297C67.4628 146.711 67.9314 149.455 67.9314 149.455C68.8016 153.338 67.4181 156.216 67.4181 156.216C66.9272 157.332 66.7487 158.314 66.7487 158.314C66.481 160.389 68.1545 160.567 68.1545 160.567H69.4041H71.7246H76.6113H80.2261C81.2525 160.366 81.2748 159.005 81.2748 159.005C81.2748 157.555 80.8732 156.216 80.8732 156.216C80.2038 154.721 80.5831 152.378 80.5831 152.378C81.4087 148.541 80.6278 144.725 80.6278 144.725C79.9361 142.851 81.0518 139.169 81.0518 139.169C82.4798 135.331 83.2162 128.28 83.2162 128.28C83.9972 120.805 80.8063 111.702 80.8063 111.702C80.8063 111.702 78.6419 105.655 78.5973 105.566C78.5303 105.476 77.6601 102.464 77.6601 102.464C79.7352 106.748 85.4475 114 85.4475 114C86.6971 115.897 89.7094 116.454 89.7094 116.454C91.0705 116.633 92.3424 116.678 93.4134 116.678C94.9531 116.678 95.9796 116.566 95.9796 116.566C96.7159 116.454 97.006 116.12 97.0952 115.852C97.1845 115.852 97.1845 115.807 97.1845 115.807H97.1175C97.1621 115.651 97.1622 115.517 97.1622 115.517C97.6531 115.294 97.7423 114.535 97.7423 114.535C97.7646 113.018 93.6589 111.702 93.6589 111.702L93.6366 111.724Z" fill="white"/>
<path d="M127.129 113.308C125.3 112.617 124.095 112.059 123.47 111.657C122.8 111.211 122.466 110.653 122.466 109.984C122.466 109.403 122.711 108.935 123.224 108.578C123.827 108.132 124.675 107.909 125.768 107.909C126.661 107.909 127.709 108.065 128.892 108.399C129.74 108.623 130.521 108.533 131.28 108.109C131.994 107.708 132.462 107.105 132.685 106.324V106.235C132.908 105.454 132.819 104.695 132.395 103.981C131.971 103.245 131.324 102.777 130.454 102.576C128.535 102.085 126.973 101.839 125.813 101.839C122.577 101.839 119.944 102.643 117.936 104.249C115.906 105.833 114.901 107.931 114.901 110.519C114.901 114.335 117.534 117.191 122.778 119.043C124.362 119.601 125.5 120.136 126.125 120.649C126.661 121.096 126.951 121.653 126.951 122.323C126.951 123.081 126.638 123.662 126.014 124.085C125.366 124.532 124.474 124.733 123.291 124.733C122.31 124.733 120.948 124.465 119.253 123.929C118.36 123.662 117.534 123.751 116.731 124.197C115.928 124.643 115.437 125.29 115.214 126.138V126.205C114.991 126.986 115.102 127.723 115.504 128.459C115.906 129.173 116.53 129.641 117.356 129.865C119.61 130.512 121.462 130.846 122.912 130.846C126.817 130.846 129.807 129.887 131.86 127.968C133.578 126.361 134.448 124.331 134.448 121.876C134.448 119.846 133.846 118.15 132.618 116.722C131.458 115.361 129.584 114.223 127.062 113.286L127.129 113.308Z" fill="white"/>
<path d="M161.18 101.638C160.734 101.593 160.399 101.549 160.176 101.549C159.93 101.549 159.596 101.571 159.172 101.638C155.044 102.017 151.697 103.512 149.131 106.078C146.453 108.756 145.114 112.259 145.114 116.588C145.114 120.56 146.297 123.817 148.64 126.383C151.161 129.105 154.664 130.578 159.172 130.824C159.44 130.846 159.663 130.868 159.819 130.868H160.466C160.622 130.868 160.823 130.868 161.135 130.824C165.62 130.578 169.124 129.083 171.645 126.383C173.988 123.84 175.171 120.56 175.171 116.588C175.171 112.259 173.832 108.756 171.154 106.078C168.61 103.49 165.263 102.017 161.135 101.638H161.18ZM165.174 122.322C163.768 123.951 162.117 124.754 160.176 124.754C158.235 124.754 156.561 123.951 155.178 122.322C153.727 120.649 153.013 118.618 153.013 116.231C153.013 113.843 153.727 111.813 155.178 110.139C156.561 108.511 158.235 107.707 160.176 107.707C162.117 107.707 163.791 108.511 165.174 110.139C166.602 111.813 167.339 113.843 167.339 116.231C167.339 118.618 166.625 120.649 165.174 122.322Z" fill="white"/>
<path d="M227.697 102.174H227.63C226.558 102.174 225.666 102.553 224.952 103.289C224.238 103.981 223.881 104.829 223.881 105.833V126.45C223.881 127.454 224.238 128.302 224.952 128.994C225.666 129.73 226.558 130.11 227.63 130.11H227.697C228.768 130.11 229.66 129.73 230.374 128.994C231.088 128.302 231.445 127.454 231.445 126.45V105.833C231.445 104.829 231.088 103.981 230.374 103.289C229.66 102.553 228.768 102.174 227.697 102.174Z" fill="white"/>
<path d="M260.118 106.079C259.717 104.941 259.003 104.004 257.976 103.312C256.972 102.598 255.834 102.241 254.562 102.241H254.495C253.201 102.241 252.041 102.621 251.037 103.357C250.033 104.071 249.341 105.008 248.939 106.168L242.312 125.402C241.91 126.562 242.067 127.633 242.781 128.615C243.517 129.642 244.521 130.177 245.838 130.177H246.172C246.998 130.177 247.734 129.932 248.404 129.441C249.051 128.972 249.497 128.347 249.72 127.589L250.836 123.952H258.757L259.984 127.633C260.208 128.37 260.632 128.972 261.279 129.441C261.948 129.909 262.684 130.155 263.51 130.155H263.599C264.893 130.155 265.92 129.619 266.679 128.571C267.393 127.544 267.526 126.473 267.102 125.335L260.141 106.057L260.118 106.079ZM256.727 117.793H252.755C253.625 114.915 254.295 112.505 254.763 110.519C255.343 112.929 256.727 117.793 256.727 117.793Z" fill="white"/>
<path d="M337.435 106.012C334.222 103.491 330.094 102.241 325.051 102.241C324.069 102.241 321.994 102.353 318.825 102.554C318.111 102.598 317.531 102.888 317.062 103.401C316.616 103.87 316.393 104.428 316.393 105.053V127.812C316.393 128.481 316.616 129.039 317.062 129.508C317.576 129.999 318.178 130.266 318.892 130.311C322.529 130.489 324.805 130.579 325.742 130.579C331.098 130.579 335.293 129.262 338.305 126.607C341.139 124.13 342.545 120.85 342.545 116.789C342.545 112.26 340.826 108.69 337.412 106.012H337.435ZM332.392 122.635C330.495 124.376 328.242 125.246 325.609 125.246C325.185 125.246 324.805 125.09 324.471 124.777C324.136 124.443 323.98 124.041 323.98 123.55V109.27C323.98 108.779 324.136 108.355 324.471 108.043C324.805 107.73 325.185 107.574 325.609 107.574C328.242 107.574 330.495 108.444 332.392 110.185C334.244 111.88 335.181 113.978 335.181 116.432C335.181 118.887 334.244 120.962 332.392 122.68V122.635Z" fill="white"/>
<path d="M363.408 113.308C361.578 112.617 360.373 112.059 359.749 111.657C359.079 111.211 358.745 110.653 358.745 109.984C358.745 109.403 358.99 108.935 359.503 108.578C360.106 108.132 360.954 107.909 362.047 107.909C362.939 107.909 363.988 108.065 365.171 108.399C366.019 108.623 366.8 108.533 367.558 108.109C368.272 107.708 368.741 107.105 368.964 106.324V106.235C369.187 105.454 369.098 104.695 368.674 103.981C368.25 103.245 367.603 102.777 366.733 102.576C364.814 102.085 363.252 101.839 362.092 101.839C358.856 101.839 356.223 102.643 354.215 104.249C352.184 105.833 351.18 107.931 351.18 110.519C351.18 114.335 353.813 117.191 359.057 119.043C360.641 119.601 361.779 120.136 362.404 120.649C362.94 121.096 363.23 121.653 363.23 122.323C363.23 123.081 362.917 123.662 362.292 124.085C361.645 124.532 360.753 124.733 359.57 124.733C358.588 124.733 357.227 124.465 355.531 123.929C354.639 123.662 353.813 123.751 353.01 124.197C352.207 124.643 351.716 125.29 351.493 126.138V126.205C351.269 126.986 351.381 127.723 351.783 128.459C352.184 129.173 352.809 129.641 353.635 129.865C355.888 130.512 357.74 130.846 359.191 130.846C363.096 130.846 366.086 129.887 368.139 127.968C369.857 126.361 370.727 124.331 370.727 121.876C370.727 119.846 370.124 118.15 368.897 116.722C367.737 115.361 365.863 114.223 363.341 113.286L363.408 113.308Z" fill="white"/>
<path d="M406.674 102.174H406.585C405.246 102.174 404.085 102.553 403.081 103.334C402.033 104.137 401.341 105.141 400.984 106.369L396.967 120.448L392.884 106.346C392.549 105.119 391.858 104.115 390.831 103.356C389.805 102.575 388.622 102.174 387.306 102.174H387.216C385.588 102.174 384.204 102.732 383.088 103.847C381.95 104.985 381.393 106.324 381.393 107.886V126.785C381.393 127.678 381.727 128.436 382.374 129.061C383.021 129.73 383.825 130.087 384.784 130.087H384.851C385.811 130.087 386.614 129.753 387.261 129.106C387.908 128.459 388.243 127.678 388.243 126.785V113.308L392.014 126.406C392.304 127.477 392.906 128.369 393.799 129.039C394.714 129.73 395.763 130.065 396.901 130.065H396.99C398.15 130.065 399.177 129.73 400.091 129.039C401.006 128.369 401.586 127.477 401.876 126.406L405.67 113.308V126.785C405.67 127.678 406.004 128.436 406.652 129.106C407.299 129.753 408.102 130.087 409.061 130.087H409.128C410.088 130.087 410.891 129.753 411.538 129.061C412.185 128.436 412.52 127.678 412.52 126.785V107.886C412.52 106.324 411.962 104.963 410.824 103.847C409.709 102.732 408.325 102.174 406.696 102.174H406.674Z" fill="white"/>
<path d="M430.929 103.312C430.215 102.576 429.322 102.196 428.251 102.196H428.184C427.113 102.196 426.221 102.576 425.507 103.312C424.793 104.004 424.436 104.852 424.436 105.856V126.473C424.436 127.477 424.793 128.325 425.507 129.017C426.221 129.753 427.113 130.132 428.184 130.132H428.251C429.322 130.132 430.215 129.753 430.929 129.017C431.643 128.325 432 127.477 432 126.473V105.856C432 104.852 431.643 104.004 430.929 103.312Z" fill="white"/>
<path d="M208.083 102.33H208.016C206.99 102.33 206.097 102.687 205.361 103.423C204.647 104.115 204.312 104.963 204.312 105.945V119.288L194.293 104.74C193.423 103.312 191.839 102.352 190.054 102.352C190.054 102.352 190.054 102.352 190.009 102.352C187.287 102.375 185.1 104.584 185.1 107.306V107.351V126.651C185.1 127.633 185.457 128.481 186.171 129.195C186.885 129.909 187.755 130.244 188.804 130.244H188.871C189.92 130.244 190.79 129.887 191.504 129.195C192.218 128.481 192.575 127.633 192.575 126.651V113.353L201.367 127.633C202.438 129.396 204.022 130.266 206.12 130.266H206.209C207.771 130.266 209.087 129.731 210.158 128.659C211.252 127.566 211.787 126.272 211.787 124.777V105.967C211.787 104.985 211.43 104.137 210.716 103.423C210.002 102.709 209.132 102.375 208.083 102.375V102.33Z" fill="white"/>
<path d="M300.305 102.33H300.238C299.212 102.33 298.319 102.687 297.583 103.423C296.869 104.115 296.534 104.963 296.534 105.945V119.288L286.515 104.74C285.645 103.312 284.061 102.352 282.276 102.352C282.276 102.352 282.254 102.352 282.231 102.352C279.509 102.375 277.322 104.584 277.322 107.306V107.351V126.651C277.322 127.633 277.679 128.481 278.393 129.195C279.107 129.909 279.978 130.244 281.026 130.244H281.093C282.142 130.244 283.012 129.887 283.726 129.195C284.44 128.481 284.797 127.633 284.797 126.651V113.353L293.589 127.633C294.66 129.396 296.244 130.266 298.342 130.266H298.431C299.993 130.266 301.309 129.731 302.38 128.659C303.474 127.566 304.009 126.272 304.009 124.777V105.967C304.009 104.985 303.652 104.137 302.938 103.423C302.224 102.709 301.354 102.375 300.305 102.375V102.33Z" fill="white"/>
</svg>
