<svg width="294" height="261" viewBox="0 0 294 261" fill="none" xmlns="http://www.w3.org/2000/svg">
<path d="M131.542 202.695C131.149 198.856 129.813 196.577 131.149 191.062C132.21 186.713 136.035 184.407 137.62 183.621C136.088 178.158 135.341 171.268 135.249 170.443C134.817 166.696 135.118 162.583 135.681 158.823C134.463 159.268 133.481 159.478 133.088 159.544C132.996 159.557 132.904 159.57 132.813 159.583C131.044 159.819 129.158 159.937 127.219 159.937C124.952 159.937 123.393 159.779 123.223 159.753C123.158 159.753 123.092 159.74 123.027 159.727C120.983 159.426 119.254 158.43 118.14 156.963C117.957 156.753 117.8 156.544 117.669 156.347C117.459 156.033 117.289 155.705 117.145 155.352C116.516 154.343 116.188 153.229 116.07 152.26C116.044 152.09 116.044 151.919 116.031 151.736C115.953 147.531 119.372 145.291 123.131 143.457C125.673 142.304 126.603 140.85 126.603 140.863C126.603 140.863 126.603 140.863 126.603 140.85C126.629 140.706 126.642 140.732 126.695 140.562C128.778 134.418 131.254 129.951 132.957 127.279C134.018 125.628 134.922 123.912 135.681 122.156C136.939 119.222 138.144 117.061 139.363 115.554C139.952 114.834 140.673 113.93 141.59 113C140.214 111.349 139.074 109.397 138 106.987C135.655 101.681 131.699 91.1753 131.699 80.3286C131.699 80.3024 131.699 80.2762 131.699 80.2631C130.821 79.6474 129.904 79.0711 128.882 78.5733C118.088 73.3464 95.3721 73.7918 85.0099 91.9351C74.6607 110.078 83.8178 134.497 101.516 137.051C101.516 137.051 98.9878 144.99 106.193 156.177C111.341 163.801 118.297 164.115 118.297 164.115C118.297 164.115 120.498 167.823 122.254 171.91C122.254 171.91 117.498 175.905 115.913 180.032C113.136 187.263 115.546 193.276 114.695 195.843C113.411 199.682 109.075 200.245 108.407 205.642C107.739 211.039 112.298 212.048 115.363 212.048C118.429 212.048 125.11 211.773 128.227 210.096C131.345 208.432 131.895 206.533 131.516 202.695H131.542Z" fill="white"/>
<path d="M187.244 210.436C187.244 208.524 186.707 206.755 186.707 206.755C185.829 204.79 186.327 201.686 186.327 201.686C187.414 196.603 186.379 191.573 186.379 191.573C185.462 189.084 186.956 184.224 186.956 184.224C188.855 179.141 189.825 169.827 189.825 169.827C190.859 159.95 186.628 147.898 186.628 147.898C186.628 147.898 183.772 139.907 183.694 139.802C183.615 139.684 182.462 135.702 182.462 135.702C185.226 141.374 192.759 150.95 192.759 150.95C194.41 153.452 198.392 154.186 198.392 154.186C200.187 154.421 201.89 154.487 203.279 154.487C205.309 154.487 206.671 154.343 206.671 154.343C207.654 154.199 208.021 153.74 208.152 153.4C208.257 153.373 208.27 153.347 208.27 153.347H208.165C208.23 153.138 208.217 152.967 208.217 152.967C208.872 152.653 208.99 151.657 208.99 151.657C209.029 149.653 203.593 147.924 203.593 147.924C203.514 146.653 201.327 145.723 201.327 145.723C199.335 145.068 198.602 142.33 198.602 142.33C196.558 136.291 194.121 132.073 192.589 129.741C191.645 128.313 190.807 126.807 190.073 125.248C189.379 123.755 188.266 121.619 186.55 119.012C183.916 114.991 180.772 113.982 179.056 113.733C179.227 113.641 179.41 113.563 179.567 113.471C183.772 111.231 185.606 109.017 187.48 104.786C187.768 104.131 188.069 103.424 188.37 102.677C188.475 102.585 188.515 102.48 188.501 102.349C190.807 96.5985 193.296 88.4373 193.296 80.3416C193.296 72.2459 191.279 66.4689 187.715 61.8577C186.379 60.1285 184.702 58.609 182.803 57.299C182.711 57.1156 182.619 56.8405 182.777 56.644C185.318 53.3559 187.414 45.627 187.414 38.3434C187.414 33.7061 186.798 29.5796 183.458 18.8771C181.847 13.6895 179.96 5.03046 178.506 2.14849C178.034 1.1922 177.314 0.786133 176.436 0.786133C175.467 0.786133 174.746 1.27084 174.248 2.10923C169.205 10.5979 165.786 21.4315 165.786 31.8197C165.786 39.5487 168.118 47.6051 168.812 51.0634C168.995 51.9542 168.157 52.3341 168.157 52.3341C168.157 52.3341 168.157 52.3341 168.183 52.3341C167.214 52.2555 166.244 52.2031 165.262 52.2031C164.279 52.2031 163.31 52.2555 162.34 52.3341C162.353 52.3341 162.367 52.3341 162.367 52.3341C162.367 52.3341 161.528 51.9673 161.712 51.0634C162.406 47.6051 164.738 39.5487 164.738 31.8197C164.738 21.4315 161.319 10.5979 156.275 2.10923C155.777 1.27084 155.044 0.786133 154.087 0.786133C153.196 0.786133 152.489 1.2053 152.017 2.14849C150.576 5.03046 148.69 13.6895 147.066 18.8771C143.725 29.5796 143.109 33.7061 143.109 38.3434C143.109 45.627 145.192 53.3559 147.747 56.644C147.904 56.8405 147.812 57.1156 147.721 57.299C145.821 58.5959 144.144 60.1285 142.808 61.8577C139.232 66.482 137.227 72.5734 137.227 80.3416C137.227 89.6556 140.529 99.0876 143.057 104.786C144.93 109.017 146.764 111.218 150.969 113.471C151.166 113.576 151.362 113.681 151.585 113.786C148.048 113.956 145.729 116.484 143.673 119.012C142.611 120.322 141.55 122.497 140.764 124.331C139.887 126.388 138.826 128.353 137.633 130.239C136.101 132.649 133.847 136.697 131.935 142.33C131.935 142.33 131.201 145.068 129.21 145.723C129.21 145.723 127.022 146.653 126.944 147.924C126.944 147.924 121.507 149.653 121.546 151.657C121.546 151.657 121.664 152.666 122.306 152.967C122.306 152.967 122.293 153.138 122.359 153.347H122.254C122.254 153.347 122.267 153.373 122.372 153.4C122.503 153.74 122.856 154.199 123.852 154.343C123.852 154.343 125.214 154.487 127.245 154.487C128.634 154.487 130.337 154.421 132.131 154.186C132.131 154.186 136.114 153.452 137.764 150.95C137.764 150.95 145.218 141.269 147.983 135.61C147.983 135.61 146.908 139.697 146.83 139.802C146.751 139.92 143.895 147.898 143.895 147.898C143.895 147.898 139.625 160.46 140.699 169.827C140.699 169.827 141.668 179.141 143.568 184.224C143.568 184.224 145.061 189.084 144.144 191.573C144.144 191.573 143.109 196.603 144.197 201.686C144.197 201.686 144.694 204.79 143.817 206.755C143.817 206.755 143.267 208.524 143.28 210.436C143.28 210.436 143.306 212.231 144.655 212.493H149.476V212.519C149.476 212.519 149.476 212.519 149.476 212.493H155.934V212.519C155.934 212.519 155.934 212.519 155.934 212.493H159.013V212.519C159.013 212.519 159.013 212.506 159.013 212.493H160.637C160.637 212.493 162.838 212.257 162.498 209.519C162.498 209.519 162.262 208.223 161.607 206.755C161.607 206.755 159.773 202.943 160.912 197.808C160.912 197.808 161.528 194.18 160.912 189.673C160.912 189.673 160.834 186.516 161.607 184.63C161.607 184.63 162.393 181.787 162.642 180.385C162.642 180.385 162.668 180.385 162.681 180.398L162.655 180.346C162.655 180.346 162.655 180.333 162.655 180.32C162.825 180.372 163.126 180.477 163.454 180.477C163.716 180.477 163.991 180.412 164.24 180.202C164.541 180.621 164.96 180.66 165.118 180.66C165.157 180.66 165.183 180.66 165.183 180.66C165.183 180.66 165.196 180.66 165.209 180.66C165.222 180.66 165.235 180.66 165.249 180.66C165.275 180.66 165.288 180.66 165.314 180.66C165.38 180.66 165.458 180.66 165.537 180.634C165.537 180.634 165.563 180.634 165.576 180.634C165.812 180.595 166.087 180.49 166.231 180.281C166.441 180.359 166.847 180.464 167.292 180.464C167.489 180.464 167.685 180.451 167.882 180.398C168.118 181.787 168.956 184.63 168.956 184.63C169.729 186.516 169.65 189.673 169.65 189.673C169.035 194.18 169.65 197.808 169.65 197.808C170.803 202.93 168.956 206.755 168.956 206.755C168.301 208.223 168.065 209.519 168.065 209.519C167.725 212.257 169.925 212.493 169.925 212.493H171.589H174.668H181.126H185.895C187.244 212.218 187.283 210.436 187.283 210.436H187.244Z" fill="white"/>
<path d="M11.4522 243.776C9.76229 243.134 8.63565 242.623 8.07234 242.243C7.45663 241.824 7.15531 241.313 7.15531 240.697C7.15531 240.173 7.39113 239.728 7.86273 239.387C8.41294 238.968 9.19898 238.759 10.2208 238.759C11.0461 238.759 12.0155 238.916 13.1159 239.217C13.8888 239.427 14.6356 239.335 15.3299 238.942C15.998 238.562 16.4303 238.012 16.6399 237.304V237.226C16.8495 236.505 16.7578 235.811 16.3779 235.143C15.9849 234.449 15.3823 234.016 14.5831 233.833C12.8015 233.374 11.3605 233.152 10.2863 233.152C7.28633 233.152 4.84969 233.899 2.98946 235.379C1.11613 236.859 0.186035 238.785 0.186035 241.169C0.186035 244.706 2.62264 247.339 7.48282 249.068C8.96314 249.579 9.99809 250.09 10.5876 250.562C11.0985 250.981 11.3474 251.492 11.3474 252.107C11.3474 252.815 11.0592 253.352 10.4828 253.732C9.89326 254.138 9.05486 254.347 7.95444 254.347C7.03743 254.347 5.79289 254.099 4.20777 253.614C3.38245 253.365 2.60954 253.444 1.87593 253.85C1.14232 254.256 0.670744 254.858 0.474241 255.644V255.697C0.264638 256.417 0.369428 257.112 0.749334 257.78C1.12924 258.435 1.70565 258.867 2.46546 259.09C4.54839 259.692 6.2645 259.993 7.61383 259.993C11.2295 259.993 13.9936 259.103 15.9063 257.334C17.5045 255.841 18.3036 253.968 18.3036 251.701C18.3036 249.828 17.7403 248.243 16.6006 246.933C15.5133 245.675 13.7971 244.614 11.4522 243.763V243.776Z" fill="white"/>
<path d="M42.9844 232.968C42.5782 232.916 42.2639 232.89 42.0674 232.89C41.8447 232.89 41.5433 232.916 41.1372 232.968C37.312 233.322 34.2203 234.697 31.8492 237.082C29.3732 239.571 28.1418 242.806 28.1418 246.815C28.1418 250.496 29.2291 253.522 31.4038 255.88C33.7225 258.395 36.9845 259.757 41.1503 259.993C41.4123 260.019 41.6089 260.033 41.7399 260.033H42.3425C42.4735 260.033 42.6831 260.033 42.9582 259.993C47.124 259.757 50.3598 258.382 52.6916 255.88C54.8662 253.522 55.9535 250.496 55.9535 246.815C55.9535 242.819 54.7221 239.571 52.2462 237.082C49.8882 234.697 46.7965 233.322 42.9844 232.968ZM46.6917 252.12C45.3948 253.627 43.849 254.373 42.0542 254.373C40.2595 254.373 38.7006 253.627 37.4168 252.12C36.0805 250.574 35.3994 248.688 35.3994 246.474C35.3994 244.26 36.0674 242.374 37.4168 240.828C38.7006 239.322 40.2464 238.575 42.0542 238.575C43.8621 238.575 45.3948 239.322 46.6917 240.828C48.0149 242.374 48.6829 244.26 48.6829 246.474C48.6829 248.688 48.0149 250.574 46.6917 252.12Z" fill="white"/>
<path d="M104.555 233.466H104.503C103.52 233.466 102.695 233.806 102.027 234.501C101.359 235.143 101.031 235.929 101.031 236.846V255.932C101.031 256.849 101.359 257.635 102.027 258.277C102.695 258.971 103.52 259.312 104.503 259.312H104.555C105.538 259.312 106.363 258.971 107.031 258.277C107.699 257.635 108.027 256.849 108.027 255.932V236.846C108.027 235.929 107.699 235.143 107.031 234.501C106.363 233.806 105.538 233.466 104.555 233.466Z" fill="white"/>
<path d="M134.581 237.069C134.201 236.007 133.546 235.156 132.603 234.501C131.673 233.833 130.612 233.505 129.446 233.505H129.393C128.201 233.505 127.127 233.846 126.184 234.54C125.267 235.208 124.612 236.073 124.245 237.147L118.114 254.963C117.747 256.037 117.891 257.02 118.533 257.937C119.215 258.893 120.158 259.378 121.363 259.378H121.677C122.437 259.378 123.131 259.155 123.747 258.696C124.35 258.264 124.756 257.688 124.966 256.98L126 253.627H133.323L134.45 257.046C134.66 257.74 135.053 258.29 135.655 258.723C136.271 259.168 136.965 259.391 137.725 259.391H137.804C138.996 259.391 139.939 258.906 140.646 257.937C141.302 256.993 141.432 255.998 141.039 254.95L134.594 237.095L134.581 237.069ZM131.437 247.928H127.769C128.568 245.256 129.184 243.029 129.616 241.195C130.166 243.422 131.437 247.928 131.437 247.928Z" fill="white"/>
<path d="M206.147 237.016C203.174 234.685 199.348 233.532 194.685 233.532C193.768 233.532 191.855 233.637 188.921 233.833C188.266 233.885 187.729 234.147 187.296 234.606C186.877 235.038 186.667 235.549 186.667 236.139V257.203C186.667 257.819 186.877 258.343 187.296 258.775C187.768 259.234 188.331 259.483 188.999 259.509C192.366 259.666 194.475 259.745 195.327 259.745C200.292 259.745 204.156 258.526 206.96 256.077C209.58 253.771 210.89 250.745 210.89 246.998C210.89 242.82 209.305 239.492 206.147 237.029V237.016ZM201.471 252.409C199.728 254.02 197.632 254.832 195.196 254.832H195.183C194.79 254.832 194.436 254.688 194.135 254.387C193.833 254.085 193.676 253.692 193.676 253.247V240.029C193.676 239.571 193.833 239.191 194.135 238.89C194.436 238.588 194.79 238.444 195.183 238.444H195.196C197.632 238.444 199.728 239.256 201.471 240.868C203.2 242.44 204.051 244.365 204.051 246.645C204.051 248.924 203.187 250.85 201.471 252.422V252.409Z" fill="white"/>
<path d="M230.199 243.776C228.509 243.134 227.383 242.623 226.82 242.243C226.204 241.824 225.889 241.313 225.889 240.697C225.889 240.173 226.125 239.728 226.597 239.387C227.147 238.968 227.933 238.759 228.955 238.759C229.78 238.759 230.75 238.916 231.85 239.217C232.623 239.427 233.37 239.335 234.064 238.942C234.732 238.562 235.164 238.012 235.374 237.304V237.226C235.584 236.505 235.492 235.811 235.112 235.143C234.719 234.449 234.116 234.016 233.317 233.833C231.536 233.374 230.095 233.152 229.02 233.152C226.02 233.152 223.584 233.899 221.724 235.379C219.85 236.859 218.92 238.785 218.92 241.169C218.92 244.706 221.357 247.339 226.217 249.068C227.697 249.579 228.732 250.09 229.322 250.562C229.833 250.981 230.082 251.492 230.082 252.107C230.082 252.815 229.793 253.352 229.217 253.732C228.627 254.138 227.789 254.347 226.689 254.347C225.772 254.347 224.527 254.099 222.942 253.614C222.117 253.365 221.344 253.444 220.61 253.85C219.876 254.256 219.405 254.858 219.208 255.644V255.697C218.999 256.417 219.104 257.112 219.483 257.78C219.863 258.435 220.44 258.867 221.2 259.09C223.283 259.692 224.999 259.993 226.348 259.993C229.964 259.993 232.728 259.103 234.64 257.334C236.239 255.841 237.038 253.968 237.038 251.701C237.038 249.828 236.474 248.243 235.335 246.933C234.247 245.675 232.531 244.614 230.186 243.763L230.199 243.776Z" fill="white"/>
<path d="M270.247 233.466H270.155C268.924 233.466 267.836 233.82 266.906 234.54C265.937 235.274 265.282 236.217 264.967 237.343L261.26 250.378L257.474 237.33C257.173 236.204 256.531 235.274 255.574 234.566C254.618 233.846 253.531 233.479 252.312 233.479H252.221C250.701 233.479 249.43 233.99 248.396 235.025C247.348 236.073 246.823 237.317 246.823 238.771V256.273C246.823 257.098 247.125 257.805 247.727 258.382C248.33 259.011 249.077 259.325 249.954 259.325H250.007C250.898 259.325 251.631 259.024 252.234 258.421C252.836 257.818 253.138 257.098 253.138 256.286V243.802L256.622 255.932C256.898 256.928 257.448 257.74 258.286 258.369C259.138 259.011 260.094 259.325 261.168 259.325H261.247C262.321 259.325 263.277 259.011 264.129 258.369C264.967 257.74 265.517 256.928 265.793 255.932L269.303 243.802V256.286C269.303 257.111 269.605 257.818 270.207 258.421C270.81 259.024 271.557 259.325 272.434 259.325H272.487C273.378 259.325 274.111 259.011 274.714 258.382C275.316 257.805 275.618 257.098 275.618 256.273V238.771C275.618 237.317 275.094 236.073 274.046 235.025C273.011 233.99 271.74 233.479 270.22 233.479L270.247 233.466Z" fill="white"/>
<path d="M292.687 234.501C292.019 233.806 291.194 233.466 290.211 233.466H290.159C289.177 233.466 288.351 233.806 287.683 234.501C287.015 235.143 286.688 235.929 286.688 236.846V255.932C286.688 256.849 287.015 257.635 287.683 258.277C288.351 258.971 289.177 259.312 290.159 259.312H290.211C291.194 259.312 292.019 258.971 292.687 258.277C293.356 257.635 293.683 256.849 293.683 255.932V236.846C293.683 235.929 293.356 235.143 292.687 234.501Z" fill="white"/>
<path d="M86.4115 233.597H86.3591C85.4028 233.597 84.5775 233.938 83.9094 234.619C83.2544 235.261 82.9269 236.034 82.9269 236.951V249.304L73.6519 235.824C72.8397 234.501 71.3856 233.61 69.7219 233.61H69.6957C67.1804 233.636 65.1499 235.68 65.1499 238.208C65.1499 238.221 65.1499 238.235 65.1499 238.261V256.116C65.1499 257.033 65.4774 257.819 66.1455 258.474C66.8005 259.129 67.6127 259.456 68.5821 259.456H68.6346C69.604 259.456 70.4162 259.129 71.0712 258.474C71.7393 257.806 72.0668 257.02 72.0668 256.116V243.802L80.202 257.02C81.1976 258.644 82.6649 259.456 84.5906 259.456H84.6823C86.1233 259.456 87.3416 258.959 88.3372 257.963C89.3459 256.954 89.8569 255.749 89.8569 254.361V236.951C89.8569 236.047 89.5294 235.248 88.8613 234.593C88.2063 233.938 87.394 233.61 86.4246 233.61L86.4115 233.597Z" fill="white"/>
<path d="M171.786 233.597H171.733C170.777 233.597 169.952 233.938 169.283 234.619C168.628 235.261 168.301 236.034 168.301 236.951V249.304L159.026 235.824C158.214 234.501 156.76 233.61 155.096 233.61H155.07C152.554 233.636 150.524 235.68 150.524 238.208C150.524 238.221 150.524 238.235 150.524 238.261V256.116C150.524 257.033 150.851 257.819 151.52 258.474C152.175 259.129 152.987 259.456 153.956 259.456H154.009C154.978 259.456 155.79 259.129 156.445 258.474C157.113 257.806 157.441 257.02 157.441 256.116V243.802L165.576 257.02C166.572 258.644 168.039 259.456 169.965 259.456H170.056C171.497 259.456 172.716 258.959 173.711 257.963C174.72 256.954 175.218 255.749 175.218 254.361V236.951C175.218 236.047 174.89 235.248 174.222 234.593C173.567 233.938 172.755 233.61 171.786 233.61V233.597Z" fill="white"/>
</svg>
