<svg width="129" height="29" viewBox="0 0 129 29" fill="none" xmlns="http://www.w3.org/2000/svg">
<path d="M9.95759 28.2814C8.56897 28.2814 7.27205 28.1109 6.06683 27.7703C4.86161 27.4297 3.81356 26.9583 2.92275 26.3557C2.03193 25.7531 1.33763 25.0456 0.839821 24.2465C0.342013 23.4474 0.0931396 22.5697 0.0931396 21.6265C0.0931396 21.0763 0.197916 20.5655 0.394419 20.0939C0.590922 19.6223 0.866032 19.2163 1.21974 18.8626C1.57344 18.5089 1.99264 18.2337 2.47735 18.0241C2.96205 17.8145 3.47296 17.7097 4.03627 17.7097C4.56028 17.7097 5.05808 17.8144 5.54279 18.0109C6.02749 18.2074 6.53843 18.5349 7.08864 18.9803C7.56025 19.3471 7.94015 19.6355 8.22835 19.8451C8.51656 20.0547 8.75237 20.2249 8.93577 20.3428C9.11918 20.4607 9.27636 20.5392 9.40736 20.5654C9.53836 20.5916 9.68245 20.6047 9.83965 20.6047C10.1803 20.6047 10.4423 20.4999 10.6388 20.2903C10.8353 20.0807 10.9401 19.8058 10.9401 19.4652C10.9401 19.0198 10.7174 18.6529 10.272 18.3647C10.2196 18.3385 10.1672 18.3122 10.1017 18.2729C10.0362 18.2336 9.94448 18.1945 9.82658 18.1421C9.70868 18.0897 9.55145 18.024 9.35495 17.9454C9.15845 17.8668 8.88335 17.762 8.54274 17.631C8.17594 17.5 7.82224 17.3693 7.48163 17.2514C7.14103 17.1335 6.78732 17.0024 6.42052 16.8714C2.62146 15.5352 0.721936 13.0463 0.735037 9.40456C0.735037 8.12077 0.970851 6.95466 1.44246 5.90667C1.91407 4.85868 2.56908 3.95502 3.40749 3.19523C4.2459 2.43544 5.2677 1.84582 6.45982 1.42662C7.65194 1.00742 8.96194 0.797852 10.3768 0.797852C11.5558 0.797852 12.6562 0.954858 13.678 1.25616C14.6999 1.55745 15.5906 1.96378 16.3505 2.47467C17.1103 2.98557 17.6998 3.58801 18.1321 4.2823C18.5644 4.97659 18.774 5.73636 18.774 6.54855C18.774 7.59654 18.4596 8.46108 17.8308 9.11608C17.202 9.78417 16.3898 10.1117 15.3942 10.1117C14.7916 10.1117 14.2282 9.99377 13.7042 9.77107C13.1802 9.54837 12.5514 9.15552 11.8178 8.60532C11.3724 8.23853 11.0187 7.98954 10.7567 7.85854C10.4947 7.72754 10.2458 7.66217 10.01 7.66217C9.72176 7.66217 9.48597 7.75383 9.28946 7.95033C9.09296 8.14683 8.98815 8.38269 8.98815 8.67089C8.98815 9.06388 9.15844 9.37824 9.51215 9.61404C9.86585 9.84984 10.5602 10.1379 11.5689 10.4785C12.6955 10.8191 13.7566 11.2382 14.7522 11.7229C15.7478 12.2076 16.547 12.7187 17.1496 13.2427C17.9618 13.9239 18.6037 14.8148 19.0753 15.902C19.5469 16.9893 19.7827 18.1682 19.7827 19.4258C19.7827 20.6048 19.56 21.7315 19.1277 22.8188C18.6954 23.9061 18.0797 24.8492 17.2937 25.6614C16.4029 26.5522 15.3549 27.2072 14.1627 27.6395C12.9706 28.0718 11.5558 28.2814 9.93136 28.2814H9.95759Z" fill="white"/>
<path d="M31.6384 9.46969H29.3197C28.5599 9.46969 27.9311 9.37805 27.4202 9.19465C26.9093 9.01125 26.4639 8.72317 26.0708 8.33017C25.2586 7.46558 24.8525 6.50937 24.8525 5.46138C24.8525 4.70158 25.0752 3.9809 25.5075 3.29971C25.9399 2.61851 26.477 2.134 27.1058 1.8458C27.3416 1.741 27.5512 1.66217 27.7346 1.60977C27.918 1.55737 28.1669 1.51828 28.4813 1.49208C28.7957 1.46588 29.2149 1.45273 29.7258 1.43963C30.2367 1.43963 30.931 1.42651 31.7826 1.42651H40.5073C41.1099 1.42651 41.5815 1.42651 41.9221 1.42651C42.2627 1.42651 42.5247 1.42651 42.7081 1.42651C42.8915 1.42651 43.0225 1.42654 43.1142 1.45274C43.2059 1.46584 43.3107 1.49209 43.4417 1.50519C44.4897 1.63619 45.3412 2.06847 45.9962 2.80206C46.6512 3.53566 46.9788 4.41336 46.9788 5.43515C46.9788 6.01155 46.8478 6.57489 46.5989 7.12509C46.35 7.67528 45.9963 8.14666 45.5509 8.53965C44.8697 9.16845 43.7561 9.48281 42.2103 9.48281H40.2846V22.5302C40.2846 23.3162 40.2322 23.9584 40.1274 24.4562C40.0226 24.954 39.8261 25.4254 39.5379 25.8708C39.1448 26.4996 38.634 26.9844 38.0183 27.325C37.4026 27.6656 36.7082 27.8357 35.9484 27.8357C35.2148 27.8357 34.5335 27.6787 33.9309 27.3643C33.3152 27.0499 32.8043 26.6045 32.3851 26.0281C32.0969 25.5827 31.9005 25.1242 31.7957 24.6526C31.6909 24.181 31.6384 23.4997 31.6384 22.6089V9.48281V9.46969Z" fill="white"/>
<path d="M49.7429 14.4215C49.7429 12.5351 50.1097 10.7665 50.8303 9.12906C51.5508 7.47847 52.5333 6.03776 53.7778 4.81947C55.0223 3.58808 56.4895 2.61842 58.1663 1.92413C59.8432 1.21673 61.638 0.863281 63.5506 0.863281C65.4632 0.863281 67.2579 1.22986 68.9347 1.95035C70.6116 2.67085 72.0788 3.64021 73.3364 4.8716C74.594 6.10299 75.5765 7.55717 76.297 9.23396C77.0176 10.9107 77.3713 12.6924 77.3713 14.5788C77.3713 16.4652 77.0044 18.2465 76.2839 19.9102C75.5634 21.587 74.5679 23.0543 73.3102 24.2988C72.0526 25.5564 70.5853 26.5389 68.9085 27.2594C67.2317 27.9799 65.4501 28.3337 63.5637 28.3337C61.6249 28.3337 59.817 27.9668 58.1402 27.2463C56.4634 26.5258 55.0092 25.5302 53.7647 24.2857C52.5202 23.0281 51.5377 21.5611 50.8171 19.8712C50.0966 18.1813 49.7429 16.3733 49.7429 14.4346V14.4215ZM58.3891 14.5264C58.3891 15.2337 58.5201 15.915 58.7952 16.5569C59.0703 17.1988 59.4371 17.7621 59.8956 18.2337C60.3541 18.7053 60.9043 19.085 61.5331 19.3601C62.1619 19.6352 62.8301 19.7794 63.5506 19.7794C64.258 19.7794 64.9261 19.6483 65.568 19.3732C66.1968 19.0981 66.747 18.7315 67.2055 18.2599C67.664 17.7884 68.0309 17.2381 68.306 16.6094C68.5811 15.9806 68.7252 15.3124 68.7252 14.605C68.7252 13.8976 68.5941 13.2426 68.319 12.6138C68.0439 11.9981 67.6771 11.4611 67.2186 11.0026C66.7601 10.5441 66.2099 10.1772 65.5811 9.91518C64.9523 9.65318 64.2842 9.52212 63.5637 9.52212C62.8563 9.52212 62.1881 9.65318 61.5462 9.91518C60.9043 10.1772 60.3672 10.531 59.9087 10.9895C59.4502 11.448 59.0834 11.9719 58.8083 12.5745C58.5332 13.1771 58.3891 13.8321 58.3891 14.5395V14.5264Z" fill="white"/>
<path d="M92.5019 19.9364V23.5126C92.5019 24.1414 92.384 24.7179 92.1613 25.2419C91.9386 25.7659 91.6373 26.2244 91.2574 26.6174C90.8775 27.0104 90.4321 27.3117 89.9212 27.5344C89.4103 27.7571 88.8601 27.8619 88.2575 27.8619C87.6025 27.8619 86.9737 27.7177 86.3711 27.4426C85.7684 27.1675 85.2706 26.7746 84.8776 26.2768C84.1964 25.4122 83.8558 24.1808 83.8558 22.5826V6.43065C83.8689 5.48746 83.9737 4.72767 84.1833 4.13817C84.3929 3.54868 84.7597 3.03755 85.2837 2.59216C85.7815 2.14676 86.3055 1.84554 86.8426 1.68834C87.3797 1.53115 88.1789 1.45264 89.2269 1.45264H92.8426C93.9168 1.45264 94.7421 1.49204 95.3185 1.55754C95.8949 1.62304 96.4713 1.72781 97.0477 1.85881C98.0696 2.14701 98.9997 2.57929 99.8381 3.15568C100.677 3.73208 101.397 4.42615 102 5.22525C102.602 6.02434 103.074 6.91517 103.414 7.88456C103.755 8.85395 103.925 9.86272 103.925 10.9107C103.925 12.1683 103.703 13.3078 103.27 14.3427C102.838 15.3776 102.118 16.4521 101.122 17.5787L103.166 20.8405C103.454 21.2859 103.663 21.7573 103.794 22.242C103.925 22.7267 103.991 23.1983 103.991 23.6437C103.991 24.2463 103.873 24.7966 103.65 25.3074C103.428 25.8183 103.113 26.2638 102.72 26.6437C102.327 27.0236 101.869 27.3248 101.345 27.5475C100.821 27.7702 100.257 27.875 99.6547 27.875C98.0826 27.875 96.8905 27.2068 96.0783 25.8707L92.5019 19.9364ZM92.8688 12.3125H93.4582C94.7682 12.3649 95.4233 11.9063 95.4233 10.9369C95.4233 9.94134 94.7552 9.46964 93.419 9.52204C93.3142 9.52204 93.1832 9.52204 93.0391 9.52204C92.895 9.52204 92.7115 9.522 92.515 9.4827V12.3125H92.8688Z" fill="white"/>
<path d="M116.58 27.705C115.585 27.705 114.877 27.6787 114.458 27.6263C114.039 27.5739 113.646 27.4823 113.279 27.3513C111.89 26.7749 111.065 25.7267 110.803 24.194C110.777 24.063 110.751 23.9454 110.724 23.8275C110.698 23.7096 110.672 23.5523 110.672 23.3689C110.659 23.1855 110.659 22.9496 110.659 22.6745C110.659 22.3994 110.659 22.0325 110.659 21.5871V7.33464C110.659 6.78444 110.672 6.33902 110.698 5.99843C110.711 5.65783 110.724 5.36976 110.764 5.14706C110.79 4.92437 110.829 4.72762 110.882 4.57043C110.934 4.41323 110.999 4.22993 111.078 4.02033C111.261 3.52254 111.55 3.09026 111.93 2.72346C112.309 2.35666 112.729 2.06858 113.174 1.85898C113.41 1.75418 113.619 1.67535 113.803 1.62295C113.986 1.57056 114.209 1.53146 114.458 1.50526C114.707 1.47906 115.021 1.46591 115.401 1.45281C115.781 1.45281 116.279 1.4397 116.908 1.4397H122.095C122.724 1.4397 123.222 1.4397 123.589 1.4397C123.956 1.4397 124.244 1.45284 124.453 1.47904C124.663 1.50523 124.833 1.53151 124.964 1.55771C125.095 1.58391 125.239 1.60987 125.397 1.63607C126.314 1.87187 127.034 2.33044 127.571 3.02473C128.108 3.70592 128.37 4.51823 128.37 5.43522C128.37 6.06402 128.239 6.66644 127.99 7.22974C127.742 7.79303 127.388 8.26472 126.942 8.63151C126.549 8.97211 126.104 9.22108 125.606 9.36518C125.108 9.50928 124.453 9.57467 123.641 9.57467H119.318V11.3826H122.737C123.811 11.3826 124.663 11.6707 125.292 12.2471C125.921 12.8235 126.235 13.5701 126.235 14.4871C126.235 15.5089 125.855 16.3341 125.095 16.9629C124.755 17.2248 124.388 17.3953 124.008 17.487C123.628 17.5787 123.091 17.6178 122.41 17.6178H119.305V19.5438H123.274C124.218 19.5438 124.938 19.6223 125.449 19.7664C125.96 19.9105 126.431 20.1726 126.877 20.5394C127.82 21.3516 128.292 22.3863 128.292 23.6177C128.292 24.2203 128.161 24.8099 127.912 25.3732C127.663 25.9365 127.309 26.4082 126.864 26.775C126.654 26.9584 126.431 27.1154 126.209 27.2333C125.986 27.3512 125.737 27.4428 125.475 27.5083C125.213 27.5738 124.899 27.6132 124.545 27.6394C124.191 27.6656 123.759 27.6788 123.274 27.6788H116.554L116.58 27.705Z" fill="white"/>
</svg>
