<svg width="244" height="28" viewBox="0 0 244 28" fill="none" xmlns="http://www.w3.org/2000/svg">
<path d="M0.705256 5.94657C0.705256 4.76758 0.84938 3.85046 1.13758 3.19547C1.42579 2.54048 1.91048 1.99059 2.59169 1.54519C2.85369 1.36179 3.1681 1.21759 3.5349 1.11279C3.90171 1.008 4.28161 0.929486 4.67461 0.877087C4.85802 0.850887 5.13314 0.837736 5.51305 0.824636C5.89295 0.811536 6.37767 0.811523 6.95408 0.811523H12.1417C12.8492 0.811523 13.4256 0.811549 13.871 0.837749C14.3164 0.850849 14.6963 0.889931 15.0107 0.94233C15.3251 0.99473 15.6002 1.06042 15.8229 1.13902C16.0456 1.21762 16.2683 1.33554 16.5041 1.49274C17.0805 1.83334 17.5259 2.3047 17.8534 2.8942C18.1809 3.48369 18.3382 4.12585 18.3382 4.80705C18.3382 5.40964 18.2071 6.01206 17.9582 6.58845C17.7093 7.16485 17.3687 7.63654 16.9495 8.00334C16.5303 8.37014 16.0718 8.61912 15.5871 8.75012C15.1024 8.88112 14.4605 8.94649 13.6745 8.94649H9.3121V10.7935H11.9845C12.7444 10.7935 13.3208 10.8329 13.7007 10.8984C14.0806 10.9639 14.4343 11.0949 14.788 11.3045C15.2334 11.5927 15.5871 11.9593 15.8491 12.4047C16.1111 12.8501 16.2421 13.3481 16.2421 13.8852C16.2421 14.907 15.9146 15.6799 15.2727 16.2301C14.6308 16.7803 13.6745 17.0421 12.4168 17.0421H9.3121V21.1688C9.3121 21.7976 9.31211 22.3215 9.28591 22.7407C9.27281 23.1599 9.23349 23.5137 9.18109 23.8019C9.12868 24.0901 9.06321 24.3387 8.9584 24.5483C8.8667 24.7579 8.73569 24.9938 8.57849 25.2558C8.21168 25.8584 7.70077 26.3432 7.05886 26.71C6.41695 27.0768 5.70956 27.2601 4.94975 27.2601C4.13753 27.2601 3.39079 27.0505 2.70958 26.6444C2.02837 26.2383 1.51749 25.6881 1.17688 25.0069C1.04588 24.7711 0.941078 24.5484 0.888677 24.3388C0.823176 24.1292 0.770782 23.8803 0.731481 23.6052C0.692181 23.3301 0.665984 22.9895 0.652883 22.5965C0.652883 22.2035 0.639771 21.7058 0.639771 21.1032V5.94657H0.705256Z" fill="white"/>
<path d="M23.2638 13.8461C23.2638 11.9597 23.6306 10.1912 24.3511 8.55369C25.0716 6.90311 26.0542 5.46207 27.2987 4.24378C28.5432 3.0124 30.0104 2.04306 31.6873 1.34876C33.3641 0.654471 35.1588 0.287598 37.0714 0.287598C38.984 0.287598 40.7788 0.654496 42.4556 1.37499C44.1324 2.09548 45.5996 3.06485 46.8573 4.29623C48.1149 5.52762 49.0974 6.98181 49.8179 8.65859C50.5384 10.3354 50.8921 12.1167 50.8921 14.0031C50.8921 15.8895 50.5253 17.6712 49.8048 19.3349C49.0843 21.0116 48.0887 22.479 46.8311 23.7234C45.5735 24.981 44.1062 25.9635 42.4294 26.684C40.7526 27.4045 38.971 27.758 37.0845 27.758C35.1457 27.758 33.3379 27.3914 31.661 26.6709C29.9842 25.9504 28.5301 24.9548 27.2856 23.7103C26.041 22.4658 25.0585 20.9854 24.338 19.2955C23.6175 17.6056 23.2638 15.798 23.2638 13.8592V13.8461ZM31.9099 13.951C31.9099 14.6584 32.0409 15.3393 32.316 15.9812C32.5911 16.6231 32.9579 17.1864 33.4164 17.658C33.875 18.1296 34.4252 18.5097 35.054 18.7848C35.6828 19.0599 36.3509 19.2041 37.0714 19.2041C37.7788 19.2041 38.4469 19.073 39.0889 18.7979C39.7177 18.5228 40.2679 18.1559 40.7264 17.6843C41.1849 17.2127 41.5517 16.6625 41.8268 16.0337C42.1019 15.4049 42.246 14.7367 42.246 14.0293C42.246 13.322 42.115 12.6669 41.8268 12.0381C41.5517 11.4224 41.1849 10.8854 40.7264 10.4269C40.2679 9.96839 39.7177 9.60181 39.0889 9.33981C38.46 9.07782 37.7919 8.94675 37.0714 8.94675C36.364 8.94675 35.6959 9.07782 35.054 9.33981C34.4252 9.60181 33.875 9.95528 33.4164 10.4138C32.9579 10.8723 32.5911 11.3965 32.316 11.9991C32.0409 12.6017 31.8968 13.2567 31.8968 13.9641L31.9099 13.951Z" fill="white"/>
<path d="M62.1976 27.1031C60.5208 27.1031 59.3025 26.6449 58.5427 25.7279C58.2807 25.4397 58.0711 25.1645 57.9139 24.9025C57.7567 24.6405 57.6388 24.3261 57.5602 23.9593C57.4816 23.5925 57.4291 23.1339 57.4029 22.5706C57.3767 22.0073 57.3636 21.2738 57.3636 20.3437V5.56703C57.3767 4.07365 57.7698 2.89471 58.5427 2.01702C59.3156 1.13933 60.3636 0.707031 61.6736 0.707031C62.3548 0.707031 62.9967 0.851232 63.5994 1.13943C64.202 1.42763 64.6867 1.80736 65.0535 2.27895C65.2369 2.54095 65.3941 2.78995 65.5251 3.03885C65.6561 3.28774 65.7609 3.57583 65.8395 3.90332C65.9181 4.23082 65.9705 4.59774 65.9967 5.01694C66.0229 5.43614 66.036 5.96007 66.036 6.58886V18.9813H70.2674C71.001 18.9813 71.6036 19.047 72.0621 19.1649C72.5206 19.2828 72.9398 19.4923 73.3328 19.7805C73.8568 20.1473 74.2629 20.6187 74.5511 21.2082C74.8393 21.7846 74.9834 22.3874 74.9834 23.0293C74.9834 23.6057 74.8655 24.1821 74.6297 24.7454C74.3939 25.3087 74.0664 25.7801 73.6472 26.1469C73.2542 26.5137 72.8088 26.7758 72.3372 26.9199C71.8525 27.064 71.2237 27.1294 70.4638 27.1294H62.2107L62.1976 27.1031Z" fill="white"/>
<path d="M85.7386 27.1158C84.0618 27.1158 82.8435 26.6576 82.0837 25.7406C81.8217 25.4524 81.6121 25.1771 81.4548 24.9151C81.2976 24.6532 81.1798 24.3388 81.1012 23.972C81.0226 23.6052 80.9702 23.1466 80.944 22.5833C80.9178 22.02 80.9047 21.2865 80.9047 20.3564V5.57973C80.9178 4.08634 81.3108 2.9074 82.0837 2.02971C82.8566 1.15202 83.9047 0.719727 85.2147 0.719727C85.8959 0.719727 86.5378 0.863927 87.1404 1.15212C87.743 1.44032 88.2277 1.82005 88.5945 2.29165C88.7779 2.55364 88.9351 2.80264 89.0661 3.05154C89.1971 3.30044 89.3019 3.58852 89.3805 3.91602C89.4591 4.24352 89.5115 4.61044 89.5377 5.02963C89.5639 5.44883 89.577 5.97276 89.577 6.60156V18.994H93.8084C94.542 18.994 95.1315 19.0597 95.6031 19.1776C96.0616 19.2955 96.4808 19.505 96.8738 19.7932C97.3978 20.16 97.8039 20.6314 98.0921 21.2209C98.3803 21.7973 98.5244 22.4001 98.5244 23.042C98.5244 23.6184 98.4065 24.1948 98.1707 24.7581C97.9349 25.3214 97.6074 25.7928 97.1882 26.1596C96.7952 26.5264 96.3498 26.7885 95.8651 26.9326C95.3804 27.0767 94.7647 27.1552 94.0049 27.1421H85.7518L85.7386 27.1158Z" fill="white"/>
<path d="M102.926 13.9115C102.926 12.0251 103.293 10.2566 104.013 8.61912C104.734 6.96854 105.716 5.5275 106.961 4.30921C108.205 3.07783 109.673 2.10849 111.349 1.41419C113.026 0.719901 114.821 0.353027 116.734 0.353027C118.646 0.353027 120.441 0.719926 122.118 1.44042C123.795 2.16091 125.262 3.13028 126.519 4.36166C127.777 5.59305 128.76 7.04724 129.48 8.72402C130.201 10.4008 130.554 12.1822 130.554 14.0686C130.554 15.9549 130.188 17.7366 129.467 19.4003C128.747 21.0771 127.751 22.5444 126.493 23.7889C125.236 25.0465 123.768 26.029 122.092 26.7495C120.415 27.47 118.633 27.8234 116.747 27.8234C114.808 27.8234 113 27.4568 111.323 26.7363C109.646 26.0159 108.192 25.0203 106.948 23.7758C105.703 22.5313 104.721 21.0508 104 19.361C103.28 17.6711 102.926 15.8634 102.926 13.9246V13.9115ZM111.572 14.0161C111.572 14.7235 111.703 15.4048 111.978 16.0466C112.253 16.6885 112.62 17.2519 113.079 17.7235C113.537 18.1951 114.087 18.5751 114.716 18.8502C115.345 19.1253 116.013 19.2692 116.734 19.2692C117.441 19.2692 118.109 19.1384 118.751 18.8633C119.38 18.5882 119.93 18.2213 120.389 17.7497C120.847 17.2781 121.214 16.7279 121.489 16.0991C121.764 15.4703 121.908 14.8022 121.908 14.0948C121.908 13.3874 121.777 12.7324 121.489 12.1036C121.214 11.4879 120.847 10.9508 120.389 10.4923C119.93 10.0338 119.38 9.66724 118.751 9.40524C118.122 9.14325 117.454 9.01218 116.734 9.01218C116.026 9.01218 115.358 9.14325 114.716 9.40524C114.087 9.66724 113.537 10.0207 113.079 10.4792C112.62 10.9377 112.253 11.4616 111.978 12.0642C111.703 12.6668 111.559 13.3218 111.559 14.0292L111.572 14.0161Z" fill="white"/>
<path d="M135.388 6.89007C135.231 6.52327 135.113 6.15667 135.022 5.77677C134.93 5.39688 134.877 5.10846 134.877 4.89886C134.877 4.32247 134.995 3.7854 135.231 3.2876C135.467 2.78981 135.781 2.35753 136.174 1.99073C136.567 1.62393 137.026 1.33584 137.55 1.11314C138.074 0.890443 138.637 0.785645 139.24 0.785645C141.257 0.785645 142.738 1.95143 143.681 4.28321L146.458 10.9249L148.79 4.0475C149.523 1.87292 150.925 0.785645 152.995 0.785645C155.065 0.785645 156.493 1.91234 157.279 4.16551L159.715 11.1213L162.597 3.77245C162.964 2.85546 163.528 2.13476 164.287 1.59767C165.047 1.06058 165.899 0.798757 166.842 0.798757C167.445 0.798757 168.008 0.916669 168.532 1.13937C169.056 1.36206 169.514 1.66328 169.907 2.04318C170.3 2.42308 170.602 2.88162 170.824 3.40562C171.047 3.92961 171.152 4.49296 171.152 5.09555C171.152 5.35755 171.113 5.63249 171.047 5.92069C170.982 6.20889 170.837 6.61489 170.628 7.13889L164.405 24.0379C163.593 26.2911 162.204 27.4178 160.239 27.4178C158.196 27.4178 156.794 26.3174 156.034 24.1166L153.139 15.5099L150.257 24.0773C149.523 26.3042 148.148 27.4178 146.131 27.4178C144.139 27.4178 142.777 26.4222 142.043 24.431L135.375 6.94252L135.388 6.89007Z" fill="white"/>
<path d="M209.182 19.2169L207.492 23.854C206.627 26.2382 205.147 27.4302 203.051 27.4302C201.977 27.4302 201.086 27.1422 200.379 26.5789C199.671 26.0156 199.095 25.1116 198.649 23.8802L196.92 19.2038L196.213 23.3695C196.003 24.6271 195.505 25.6096 194.732 26.33C193.959 27.0505 193.003 27.4043 191.877 27.4043C190.593 27.4043 189.545 26.9589 188.732 26.0812C187.92 25.2035 187.514 24.0637 187.514 22.6751C187.514 22.4917 187.514 22.3216 187.527 22.1513C187.527 21.981 187.567 21.8105 187.593 21.6271L190.593 4.84607C190.802 3.58848 191.287 2.60598 192.034 1.88548C192.78 1.16499 193.724 0.811523 194.85 0.811523C195.767 0.811523 196.619 1.07333 197.418 1.59732C198.217 2.12132 198.793 2.82887 199.16 3.71966L203.038 12.4047L207.413 3.13023C207.754 2.44903 208.278 1.89881 208.972 1.46652C209.667 1.03422 210.426 0.824636 211.239 0.824636C211.763 0.824636 212.3 0.929422 212.85 1.13902C213.4 1.34862 213.859 1.6367 214.225 2.0035C214.592 2.37029 214.867 2.76348 215.064 3.18268C215.26 3.60187 215.418 4.1649 215.549 4.87229L218.522 21.7713C218.575 22.0595 218.614 22.3213 218.64 22.5571C218.666 22.7929 218.68 23.0156 218.68 23.2252C218.68 23.8278 218.562 24.3911 218.339 24.8889C218.116 25.3998 217.815 25.8321 217.435 26.1989C217.055 26.5657 216.597 26.8541 216.073 27.0768C215.549 27.2995 214.998 27.4043 214.422 27.4043C213.322 27.4043 212.378 27.1028 211.592 26.5002C210.806 25.8976 210.322 25.0987 210.138 24.1031L209.156 19.1907L209.182 19.2169Z" fill="white"/>
<path d="M231.544 27.2472C230.548 27.2472 229.841 27.221 229.422 27.1686C229.002 27.1162 228.609 27.0245 228.243 26.8935C226.854 26.3171 226.029 25.2692 225.767 23.7366C225.74 23.6056 225.714 23.4876 225.688 23.3697C225.662 23.2518 225.636 23.0945 225.636 22.9111C225.622 22.7277 225.623 22.4919 225.623 22.2168C225.623 21.9417 225.623 21.5751 225.623 21.1297V6.87688C225.623 6.32668 225.636 5.88126 225.662 5.54066C225.662 5.20007 225.701 4.912 225.727 4.6893C225.754 4.4666 225.793 4.27018 225.845 4.11298C225.898 3.95578 225.963 3.77217 226.042 3.56257C226.225 3.06477 226.513 2.63249 226.893 2.2657C227.273 1.8989 227.679 1.61082 228.138 1.40122C228.374 1.29642 228.583 1.21791 228.767 1.16551C228.95 1.11311 229.16 1.0737 229.408 1.0475C229.657 1.0213 229.972 1.00815 230.352 0.995046C230.732 0.995046 231.229 0.981934 231.858 0.981934H237.046C237.675 0.981934 238.173 0.981934 238.539 0.981934C238.906 0.981934 239.194 0.995072 239.404 1.02127C239.614 1.04747 239.784 1.07375 239.915 1.09995C240.046 1.12615 240.19 1.15242 240.347 1.17862C241.264 1.41442 241.985 1.87267 242.522 2.56697C243.059 3.24816 243.321 4.06047 243.321 4.97746C243.321 5.60625 243.19 6.209 242.941 6.77229C242.692 7.33559 242.338 7.80695 241.893 8.17375C241.5 8.51435 241.055 8.76332 240.557 8.90742C240.059 9.05152 239.404 9.1169 238.592 9.1169H234.269V10.9249H237.688C238.762 10.9249 239.614 11.2129 240.242 11.7893C240.871 12.3657 241.186 13.1124 241.186 14.0294C241.186 15.0511 240.806 15.8766 240.046 16.5054C239.705 16.7674 239.338 16.9376 238.959 17.0293C238.579 17.121 238.042 17.1604 237.373 17.1604H234.269V19.086H238.238C239.181 19.086 239.915 19.1645 240.426 19.3086C240.937 19.4527 241.408 19.7149 241.854 20.0816C242.797 20.8938 243.268 21.9289 243.268 23.1602C243.268 23.7628 243.138 24.3521 242.889 24.9154C242.64 25.4787 242.286 25.9504 241.841 26.3172C241.631 26.5006 241.408 26.6576 241.186 26.7755C240.963 26.8934 240.714 26.9854 240.465 27.0509C240.203 27.1164 239.889 27.1555 239.535 27.1817C239.181 27.2079 238.749 27.221 238.264 27.221H231.544V27.2472Z" fill="white"/>
</svg>
