<svg width="85" height="32" viewBox="0 0 85 32" fill="none" xmlns="http://www.w3.org/2000/svg">
<path d="M17.1664 21.2386C16.6293 21.2386 16.1184 21.173 15.6468 21.042C15.1752 20.911 14.7691 20.7277 14.4154 20.4919C14.0617 20.2561 13.7997 19.981 13.6032 19.6666C13.4067 19.3522 13.3149 19.0116 13.3149 18.6448C13.3149 18.4352 13.3543 18.2256 13.4329 18.0422C13.5115 17.8588 13.6163 17.7016 13.7604 17.5575C13.9045 17.4134 14.0617 17.3086 14.2451 17.23C14.4285 17.1514 14.638 17.1121 14.8476 17.1121C15.0572 17.1121 15.2538 17.1514 15.4372 17.23C15.6206 17.3086 15.8302 17.4265 16.0398 17.6099C16.2232 17.754 16.3673 17.8588 16.4852 17.9505C16.6031 18.0291 16.6948 18.0946 16.7603 18.147C16.8258 18.1994 16.8913 18.2256 16.9437 18.2256C16.9961 18.2256 17.0485 18.2387 17.114 18.2387C17.245 18.2387 17.3498 18.1994 17.4284 18.1208C17.507 18.0422 17.5463 17.9374 17.5463 17.7933C17.5463 17.623 17.4546 17.4789 17.2843 17.361C17.2581 17.361 17.245 17.3348 17.2188 17.3217C17.1926 17.3086 17.1533 17.2955 17.114 17.2693C17.0616 17.2431 17.0092 17.23 16.9306 17.1907C16.852 17.1514 16.7472 17.1252 16.6162 17.0728C16.4721 17.0204 16.3411 16.968 16.197 16.9287C16.0529 16.8894 15.9219 16.837 15.7778 16.7846C14.2975 16.2606 13.5507 15.2912 13.5507 13.8764C13.5507 13.3786 13.6425 12.9202 13.8259 12.5141C14.0093 12.108 14.2713 11.7542 14.5857 11.4529C14.9132 11.1516 15.3062 10.929 15.7778 10.7587C16.2363 10.6015 16.7472 10.5098 17.2975 10.5098C17.756 10.5098 18.1882 10.5622 18.5812 10.6801C18.9743 10.798 19.3279 10.9551 19.6292 11.1516C19.9306 11.3481 20.1533 11.584 20.3236 11.8591C20.4939 12.1342 20.5725 12.4224 20.5725 12.7368C20.5725 13.1429 20.4546 13.4834 20.2057 13.7454C19.9568 14.0074 19.6424 14.1385 19.2494 14.1385C19.0136 14.1385 18.7909 14.0991 18.5944 14.0074C18.3848 13.9157 18.149 13.7716 17.8608 13.5489C17.6904 13.4048 17.5463 13.3131 17.4415 13.2607C17.3367 13.2083 17.245 13.1821 17.1533 13.1821C17.0354 13.1821 16.9437 13.2214 16.8651 13.3C16.7865 13.3786 16.7472 13.4703 16.7472 13.5882C16.7472 13.7454 16.8127 13.8633 16.9568 13.955C17.0878 14.0467 17.3629 14.1646 17.7559 14.2956C18.2013 14.4266 18.6075 14.5838 19.0005 14.7803C19.3935 14.9637 19.6947 15.1602 19.9305 15.3698C20.2449 15.6318 20.4938 15.9855 20.6772 16.4047C20.8606 16.8239 20.9524 17.2824 20.9524 17.7802C20.9524 18.2387 20.8738 18.6841 20.7035 19.1033C20.5332 19.5225 20.2974 19.9023 19.9961 20.2167C19.6424 20.5704 19.2362 20.8194 18.7777 20.9897C18.3192 21.16 17.7691 21.2386 17.1271 21.2386H17.1664Z" fill="white"/>
<path d="M30.1093 16.8239C30.2534 16.6798 30.4238 16.5619 30.6334 16.4702C30.843 16.3785 31.0526 16.3261 31.2753 16.3261C31.498 16.3261 31.7207 16.3785 31.9172 16.4702C32.1268 16.5619 32.297 16.6798 32.4542 16.837C32.6114 16.9942 32.7294 17.1645 32.8211 17.361C32.9128 17.5575 32.9652 17.7671 32.9652 17.9767C32.9652 18.5924 32.5984 19.2212 31.8648 19.8762C31.367 20.3085 30.8036 20.6359 30.1879 20.8717C29.5722 21.1075 28.9434 21.2255 28.2884 21.2255C27.5417 21.2255 26.8343 21.0813 26.1793 20.8062C25.5243 20.5311 24.9479 20.1513 24.4632 19.6666C23.9784 19.1819 23.5854 18.6186 23.3103 17.9636C23.0352 17.3086 22.8911 16.6143 22.8911 15.8807C22.8911 15.1471 23.0352 14.4397 23.3234 13.7847C23.6116 13.1297 23.9916 12.5665 24.4894 12.0818C24.9741 11.5971 25.5505 11.2172 26.2055 10.929C26.8605 10.6539 27.5679 10.5098 28.3146 10.5098C28.9434 10.5098 29.546 10.6146 30.1224 10.8241C30.6989 11.0337 31.2359 11.3351 31.7337 11.7543C32.5591 12.4093 32.9783 13.0904 32.9783 13.7716C32.9783 14.0074 32.939 14.2301 32.8473 14.4266C32.7556 14.6362 32.6377 14.8066 32.4936 14.9638C32.3364 15.121 32.166 15.2388 31.9564 15.3174C31.7468 15.4091 31.5372 15.4484 31.3014 15.4484C31.0918 15.4484 30.8954 15.4091 30.6989 15.3305C30.5024 15.2519 30.3451 15.1602 30.2403 15.0292L29.7556 14.4921C29.5722 14.2825 29.3495 14.1384 29.1006 14.0336C28.8517 13.9288 28.5766 13.8764 28.3015 13.8764C28.0264 13.8764 27.7644 13.9288 27.5155 14.0336C27.2666 14.1384 27.057 14.2694 26.8736 14.4528C26.6902 14.6362 26.5461 14.8458 26.4413 15.0816C26.3365 15.3305 26.2841 15.5794 26.2841 15.8545C26.2841 16.1296 26.3365 16.3916 26.4413 16.6274C26.5461 16.8632 26.6902 17.0728 26.8736 17.2562C27.057 17.4396 27.2666 17.5837 27.5155 17.6885C27.7513 17.7933 28.0133 17.8457 28.2884 17.8457C28.5635 17.8457 28.8387 17.7933 29.0876 17.6754C29.3496 17.5575 29.5853 17.3872 29.7818 17.1776L30.1356 16.8108L30.1093 16.8239Z" fill="white"/>
<path d="M38.4411 17.9505V19.3391C38.4411 19.588 38.4018 19.8107 38.3101 20.0203C38.2184 20.2299 38.1005 20.4002 37.9564 20.5574C37.8123 20.7146 37.6289 20.8325 37.4324 20.9111C37.2359 21.0028 37.0132 21.0421 36.7774 21.0421C36.5154 21.0421 36.2796 20.9897 36.0438 20.8849C35.808 20.7801 35.6115 20.6229 35.4674 20.4264C35.2054 20.0858 35.0743 19.6142 35.0743 18.9854V12.6844C35.0743 12.3176 35.1137 12.0163 35.1923 11.7936C35.2709 11.5578 35.415 11.3613 35.6246 11.191C35.8211 11.0207 36.0176 10.9028 36.2272 10.8373C36.4368 10.7718 36.7512 10.7456 37.1573 10.7456H38.5722C38.9914 10.7456 39.3189 10.7456 39.5416 10.7849C39.7643 10.8111 39.987 10.8504 40.2228 10.9028C40.6158 11.0207 40.9825 11.1779 41.31 11.4137C41.6376 11.6364 41.9127 11.9115 42.1485 12.2128C42.3843 12.5272 42.5677 12.8678 42.6987 13.2477C42.8297 13.6276 42.8952 14.0206 42.8952 14.4267C42.8952 14.9114 42.8166 15.3699 42.6463 15.7629C42.476 16.169 42.2009 16.5881 41.8079 17.0335L42.607 18.3043C42.7249 18.4746 42.8035 18.6579 42.8559 18.8544C42.9083 19.0378 42.9345 19.2212 42.9345 19.4046C42.9345 19.6404 42.8952 19.8631 42.8035 20.0596C42.7118 20.2561 42.5939 20.4264 42.4498 20.5836C42.2926 20.7277 42.1223 20.8456 41.9127 20.9373C41.7031 21.029 41.4935 21.0683 41.2577 21.0683C40.642 21.0683 40.1835 20.8063 39.8691 20.2823L38.4804 17.9636L38.4411 17.9505ZM38.5853 14.9768H38.8211C39.332 15.003 39.5808 14.8197 39.5808 14.4398C39.5808 14.0599 39.3188 13.8634 38.7948 13.8896H38.6507C38.6507 13.8896 38.5197 13.8896 38.4411 13.8765V14.9768H38.5722H38.5853Z" fill="white"/>
<path d="M44.9257 15.8152C44.9257 15.0816 45.0698 14.3873 45.3449 13.7454C45.62 13.1035 46.013 12.5402 46.4978 12.0555C46.9825 11.5708 47.5589 11.2041 48.2008 10.929C48.8558 10.6539 49.55 10.5098 50.2968 10.5098C51.0435 10.5098 51.7378 10.6539 52.3928 10.929C53.0478 11.2041 53.6243 11.584 54.109 12.0687C54.5937 12.5533 54.9867 13.1166 55.2618 13.7716C55.5369 14.4266 55.681 15.1209 55.681 15.8545C55.681 16.5881 55.5369 17.2824 55.2618 17.9374C54.9867 18.5924 54.5937 19.1688 54.109 19.6535C53.6243 20.1381 53.0478 20.5311 52.3928 20.8062C51.7378 21.0813 51.0435 21.2255 50.3099 21.2255C49.5763 21.2255 48.8427 21.0813 48.1876 20.8062C47.5326 20.5311 46.9693 20.1381 46.4846 19.6535C45.9999 19.1688 45.62 18.5924 45.3318 17.9374C45.0567 17.2824 44.9126 16.575 44.9126 15.8152H44.9257ZM48.3056 15.8545C48.3056 16.1296 48.358 16.3916 48.4628 16.6405C48.5676 16.8894 48.7117 17.1121 48.8951 17.2955C49.0785 17.4789 49.2881 17.623 49.537 17.7278C49.7859 17.8326 50.0479 17.885 50.323 17.885C50.5981 17.885 50.8601 17.8326 51.109 17.7278C51.3579 17.623 51.5675 17.4789 51.7509 17.2955C51.9343 17.1121 52.0784 16.9025 52.1832 16.6536C52.288 16.4047 52.3405 16.1427 52.3405 15.8676C52.3405 15.5926 52.288 15.3305 52.1832 15.0947C52.0784 14.8589 51.9343 14.6494 51.7509 14.466C51.5675 14.2826 51.3579 14.1515 51.109 14.0467C50.8601 13.9419 50.5981 13.8896 50.323 13.8896C50.0479 13.8896 49.7859 13.9419 49.537 14.0467C49.2881 14.1515 49.0785 14.2957 48.8951 14.466C48.7117 14.6494 48.5676 14.8458 48.4628 15.0816C48.358 15.3174 48.3056 15.5663 48.3056 15.8414V15.8545Z" fill="white"/>
<path d="M59.8207 20.9766C59.1657 20.9766 58.6941 20.7932 58.3928 20.4395C58.288 20.3216 58.2094 20.2168 58.1439 20.112C58.0784 20.0072 58.039 19.8893 57.9997 19.7452C57.9735 19.6011 57.9474 19.4177 57.9343 19.195C57.9343 18.9723 57.9211 18.6841 57.9211 18.3304V12.5665C57.9211 11.9901 58.0784 11.5185 58.3797 11.1779C58.681 10.8373 59.0871 10.667 59.598 10.667C59.86 10.667 60.1089 10.7194 60.3447 10.8373C60.5805 10.9552 60.7639 11.0993 60.908 11.2827C60.9735 11.3875 61.039 11.4792 61.0914 11.584C61.1438 11.6757 61.1831 11.7936 61.2093 11.9246C61.2355 12.0556 61.2617 12.1996 61.2748 12.3568C61.2748 12.514 61.2879 12.7237 61.2879 12.9726V17.8064H62.9385C63.2267 17.8064 63.4626 17.8326 63.6329 17.8719C63.8163 17.9243 63.9735 18.0029 64.1307 18.1077C64.3403 18.2518 64.4975 18.4352 64.6023 18.6579C64.7202 18.8806 64.7726 19.1164 64.7726 19.3653C64.7726 19.588 64.7201 19.8107 64.6284 20.0334C64.5367 20.2561 64.4058 20.4395 64.2486 20.5836C64.0914 20.7277 63.921 20.8325 63.7376 20.8849C63.5542 20.9373 63.3053 20.9635 63.004 20.9635H59.7814L59.8207 20.9766Z" fill="white"/>
<path d="M68.7025 20.9766C68.0475 20.9766 67.5759 20.7932 67.2746 20.4395C67.1698 20.3216 67.0912 20.2168 67.0257 20.112C66.9602 20.0072 66.9209 19.8893 66.8816 19.7452C66.8554 19.6011 66.8292 19.4177 66.8161 19.195C66.8161 18.9723 66.803 18.6841 66.803 18.3304V12.5665C66.803 11.9901 66.9601 11.5185 67.2615 11.1779C67.5628 10.8373 67.9689 10.667 68.4798 10.667C68.7418 10.667 68.9907 10.7194 69.2265 10.8373C69.4623 10.9552 69.6457 11.0993 69.7898 11.2827C69.8553 11.3875 69.9208 11.4792 69.9732 11.584C70.0256 11.6757 70.0649 11.7936 70.0911 11.9246C70.1173 12.0556 70.1435 12.1996 70.1566 12.3568C70.1566 12.514 70.1697 12.7237 70.1697 12.9726V17.8064H71.8204C72.1086 17.8064 72.3443 17.8326 72.5146 17.8719C72.698 17.9243 72.8553 18.0029 73.0125 18.1077C73.2221 18.2518 73.3792 18.4352 73.484 18.6579C73.6019 18.8806 73.6544 19.1164 73.6544 19.3653C73.6544 19.588 73.602 19.8107 73.5103 20.0334C73.4186 20.2561 73.2876 20.4395 73.1304 20.5836C72.9732 20.7277 72.8029 20.8325 72.6195 20.8849C72.4361 20.9373 72.1872 20.9635 71.8859 20.9635H68.6632L68.7025 20.9766Z" fill="white"/>
<path d="M69.8423 1.48389H15.3848C7.33943 1.48389 0.817383 8.00577 0.817383 16.0509C0.817383 24.0961 7.33943 30.618 15.3848 30.618H69.8423C77.8877 30.618 84.4097 24.0961 84.4097 16.0509C84.4097 8.00577 77.8877 1.48389 69.8423 1.48389Z" stroke="white" stroke-width="1.16" stroke-miterlimit="10"/>
</svg>
