<svg width="129" height="27" viewBox="0 0 129 27" fill="none" xmlns="http://www.w3.org/2000/svg">
<path d="M4.99225 26.6165C4.04904 26.6165 3.31543 26.5249 2.79143 26.3546C2.26742 26.1843 1.76963 25.8305 1.29802 25.3065C1.03602 25.0183 0.813304 24.6908 0.629902 24.3371C0.446499 23.9834 0.315513 23.6298 0.236912 23.263C0.210711 23.1058 0.1845 22.8831 0.1845 22.608C0.1714 22.3329 0.171387 21.7827 0.171387 20.9443V6.08911L0.1845 4.83157C0.2107 3.52158 0.643021 2.46041 1.46833 1.63512C2.29365 0.809828 3.35474 0.403809 4.63856 0.403809H8.34594C9.05335 0.403809 9.65595 0.403674 10.1407 0.429874C10.6254 0.442974 11.0446 0.469238 11.3983 0.495437C11.752 0.521637 12.0664 0.560879 12.3415 0.600179C12.6166 0.639478 12.8917 0.691859 13.1537 0.744258C14.9615 1.18965 16.4287 2.13288 17.5422 3.56076C18.6557 4.98865 19.2191 6.67851 19.206 8.61729C19.206 9.37709 19.1143 10.0321 18.944 10.5823C18.7737 11.1325 18.4462 11.8137 17.9746 12.6259C19.0095 13.6215 19.73 14.604 20.1492 15.5603C20.5553 16.5166 20.7649 17.6301 20.7649 18.8877C20.7649 21.1933 19.8872 23.1451 18.1317 24.7433C17.7125 25.1363 17.3064 25.4507 16.9134 25.6996C16.5204 25.9485 16.0881 26.1449 15.6165 26.289C15.1449 26.4331 14.6078 26.538 14.0052 26.5773C13.4026 26.6297 12.6821 26.6558 11.8437 26.6558H4.97918L4.99225 26.6165ZM8.81753 18.5602H10.2586C11.0053 18.5602 11.5031 18.4947 11.752 18.3506C12.0009 18.2065 12.1188 17.9445 12.1188 17.5384C12.1188 17.1454 11.9747 16.8703 11.6734 16.6869C11.3721 16.5166 10.8874 16.4249 10.2193 16.4249H8.81753V18.5471V18.5602ZM9.82623 10.5431C10.4157 10.5431 10.835 10.4776 11.0708 10.3335C11.3066 10.1894 11.4245 9.94051 11.4245 9.57372C11.4245 9.20692 11.2935 8.9448 11.0315 8.7876C10.7695 8.6304 10.3502 8.55189 9.74763 8.55189H8.81753V10.5562H9.82623V10.5431Z" fill="white"/>
<path d="M33.8128 18.9011V22.4773C33.8128 23.1061 33.6949 23.6824 33.4722 24.2064C33.2495 24.7304 32.9482 25.189 32.5683 25.582C32.1884 25.9749 31.7429 26.2762 31.232 26.4989C30.7211 26.7216 30.171 26.8264 29.5684 26.8264C28.9133 26.8264 28.2845 26.6823 27.6819 26.4073C27.0793 26.1322 26.5815 25.7391 26.1885 25.2413C25.5073 24.3768 25.1666 23.1453 25.1666 21.5471V5.39501C25.1797 4.45182 25.2845 3.69202 25.4941 3.10253C25.7037 2.51304 26.0706 2.00223 26.5946 1.55683C27.0924 1.11144 27.6164 0.810059 28.1535 0.65286C28.6906 0.495662 29.4897 0.416992 30.5378 0.416992H34.1534C35.2276 0.416992 36.0529 0.456394 36.6293 0.521893C37.2057 0.587393 37.7821 0.692166 38.3585 0.823165C39.3804 1.11136 40.3105 1.54365 41.1489 2.12004C41.9873 2.69643 42.7078 3.39067 43.3104 4.18976C43.9131 4.98885 44.3846 5.87968 44.7252 6.84907C45.0658 7.81846 45.2361 8.82723 45.2361 9.87522C45.2361 11.1328 45.0134 12.2856 44.5811 13.3074C44.1488 14.3423 43.4283 15.4164 42.4327 16.543L44.4763 19.8049C44.7645 20.2503 44.9742 20.7219 45.1052 21.2066C45.2362 21.6913 45.3016 22.1628 45.3016 22.5951C45.3016 23.1977 45.1838 23.748 44.9611 24.2589C44.7384 24.7697 44.424 25.2152 44.0309 25.5951C43.6379 25.975 43.1794 26.2762 42.6554 26.4989C42.1314 26.7216 41.5681 26.8264 40.9655 26.8264C39.3934 26.8264 38.2013 26.1582 37.3891 24.8221L33.8128 18.8879V18.9011ZM34.1665 11.2768H34.756C36.066 11.3292 36.721 10.8708 36.721 9.90145C36.721 8.90586 36.0529 8.43416 34.7167 8.48656C34.6119 8.48656 34.4809 8.48656 34.3368 8.48656C34.1927 8.48656 34.0093 8.48652 33.8128 8.44722V11.2768H34.1665Z" fill="white"/>
<path d="M57.0394 23.2368C56.4892 24.5205 55.8604 25.4375 55.1661 26.0008C54.4718 26.5641 53.5941 26.8392 52.5461 26.8392C51.9435 26.8392 51.3802 26.7213 50.8562 26.4986C50.3322 26.2759 49.8867 25.9616 49.5068 25.5686C49.1269 25.1756 48.8256 24.717 48.6029 24.193C48.3802 23.669 48.2754 23.1058 48.2754 22.5033C48.2754 21.7697 48.4588 21.0099 48.8256 20.2239L57.0525 2.82722C57.4193 2.01503 57.9564 1.38614 58.6638 0.927641C59.3712 0.469146 60.1572 0.246582 61.0219 0.246582C61.9127 0.246582 62.7118 0.482258 63.4192 0.940754C64.1266 1.39925 64.6768 2.05423 65.0699 2.89262L73.3099 20.512C73.6505 21.167 73.8208 21.8613 73.8208 22.5949C73.8208 23.1975 73.7029 23.7608 73.467 24.2586C73.2312 24.7695 72.9169 25.2149 72.5239 25.6079C72.1309 26.0009 71.6724 26.3021 71.1484 26.5248C70.6244 26.7475 70.061 26.8523 69.4584 26.8523C68.4628 26.8523 67.6244 26.5772 66.9694 26.0402C66.3013 25.5031 65.6725 24.5598 65.0699 23.2236H57.0525L57.0394 23.2368ZM62.345 17.0012L61.0088 13.8572L59.6726 17.0012H62.345Z" fill="white"/>
<path d="M85.218 16.3461V21.8482C85.218 22.7128 85.1394 23.3939 84.9953 23.8655C84.8512 24.3502 84.6023 24.8219 84.2355 25.2935C83.8163 25.7913 83.3185 26.1712 82.7421 26.4463C82.1657 26.7214 81.55 26.8523 80.9081 26.8523C80.2269 26.8523 79.5849 26.6951 78.9954 26.3938C78.3928 26.0925 77.8819 25.6732 77.4758 25.1492C77.109 24.6514 76.8732 24.1538 76.7553 23.656C76.6374 23.1582 76.585 22.4245 76.585 21.4551V4.87064C76.5981 3.45586 77.0173 2.32933 77.8426 1.49093C78.6679 0.652543 79.7684 0.233398 81.1308 0.233398C81.7596 0.233398 82.336 0.377427 82.8338 0.652524C83.3447 0.927621 83.8425 1.37303 84.3403 1.97562L91.2048 10.425V5.55186C91.2048 4.68727 91.2572 4.01913 91.362 3.53443C91.4668 3.04974 91.6764 2.59132 91.9908 2.14593C92.3576 1.56953 92.8686 1.11097 93.5105 0.770378C94.1524 0.429781 94.8336 0.259464 95.541 0.259464C96.196 0.259464 96.7986 0.403652 97.3619 0.678749C97.9252 0.953847 98.4099 1.34686 98.8292 1.84466C99.196 2.31625 99.4579 2.81405 99.6151 3.32495C99.7723 3.83584 99.8509 4.50396 99.8509 5.31615V21.3504C99.8378 22.3984 99.7724 23.1974 99.6414 23.7214C99.5104 24.2585 99.2614 24.7825 98.8946 25.2672C98.5016 25.7912 98.0038 26.1841 97.4143 26.4592C96.8248 26.7343 96.1829 26.8654 95.5017 26.8654C94.113 26.8654 92.9602 26.2759 92.0694 25.0969L85.218 16.333V16.3461Z" fill="white"/>
<path d="M110.331 26.7084C109.309 26.7084 108.536 26.656 108.025 26.5643C107.514 26.4726 107.056 26.276 106.663 25.9878C105.72 25.3852 105.117 24.5993 104.855 23.63C104.803 23.4728 104.776 23.3287 104.763 23.1715C104.75 23.0274 104.737 22.8571 104.724 22.6606C104.711 22.4641 104.698 22.2151 104.711 21.9138C104.711 21.6125 104.711 21.2457 104.711 20.8003V6.37736C104.724 5.82717 104.724 5.39486 104.724 5.05426C104.724 4.72677 104.724 4.46479 104.75 4.25519C104.763 4.04559 104.777 3.87529 104.816 3.75739C104.842 3.63949 104.881 3.49548 104.934 3.35138C105.562 1.4388 107.148 0.482422 109.702 0.482422H115.021C116.986 0.482422 118.741 0.757513 120.3 1.29461C121.846 1.8317 123.261 2.68328 124.545 3.83607C125.933 5.06745 127.007 6.53461 127.754 8.22449C128.501 9.91437 128.868 11.709 128.868 13.5954C128.868 15.4032 128.501 17.1455 127.767 18.8222C127.034 20.499 125.999 21.9662 124.649 23.2238C123.811 24.0098 122.855 24.6779 121.794 25.2281C120.733 25.7783 119.619 26.1713 118.466 26.4071C117.34 26.6167 115.859 26.7215 114.012 26.7215H110.357L110.331 26.7084ZM113.357 18.6519C114.091 18.6519 114.706 18.6519 115.204 18.6126C115.702 18.5864 116.121 18.5471 116.462 18.4816C116.802 18.4161 117.091 18.3376 117.326 18.2328C117.562 18.128 117.811 17.9838 118.073 17.8004C118.728 17.3288 119.252 16.7262 119.632 15.9795C120.012 15.2328 120.209 14.46 120.209 13.6479C120.209 12.6785 119.96 11.7876 119.449 10.9754C118.938 10.1632 118.27 9.5475 117.431 9.1283C117.012 8.91871 116.554 8.77467 116.056 8.69607C115.558 8.61747 114.903 8.57821 114.091 8.57821H113.383V18.6782L113.357 18.6519Z" fill="white"/>
</svg>
