<svg width="227" height="56" viewBox="0 0 227 56" fill="none" xmlns="http://www.w3.org/2000/svg">
<path d="M0.954805 5.29708C0.850004 5.04818 0.758286 4.78623 0.692785 4.52423C0.627284 4.26223 0.601074 4.0526 0.601074 3.9085C0.601074 3.5155 0.679679 3.13564 0.849981 2.79504C1.00718 2.45444 1.22989 2.15316 1.50499 1.90426C1.7801 1.65536 2.09455 1.44572 2.46136 1.28852C2.82817 1.13132 3.20801 1.05273 3.62722 1.05273C5.01584 1.05273 6.05079 1.86497 6.6927 3.47626L8.61839 8.07425L10.2298 3.31907C10.7407 1.81258 11.7101 1.06585 13.138 1.06585C14.5659 1.06585 15.5615 1.85181 16.0986 3.4107L17.7755 8.21841L19.7667 3.13565C20.0156 2.50686 20.4086 1.99593 20.9326 1.62913C21.4566 1.26234 22.0461 1.07896 22.7011 1.07896C23.1203 1.07896 23.5133 1.15755 23.867 1.31475C24.2338 1.47195 24.5482 1.68152 24.8233 1.94352C25.0984 2.20551 25.3081 2.51995 25.4653 2.88675C25.6225 3.25354 25.7011 3.63346 25.7011 4.05266C25.7011 4.23605 25.6749 4.41946 25.6356 4.62905C25.5832 4.82555 25.4915 5.11369 25.3474 5.46738L21.0374 17.1525C20.4741 18.7114 19.5178 19.4843 18.1554 19.4843C16.7406 19.4843 15.7711 18.7245 15.2471 17.1918L13.2428 11.2314L11.2515 17.1525C10.7406 18.6983 9.78433 19.458 8.39571 19.458C7.02019 19.458 6.07701 18.7638 5.5661 17.3883L0.954805 5.28405V5.29708Z" fill="white"/>
<path d="M38.8144 13.0782H35.1462V15.6327C35.1462 16.0126 35.1463 16.327 35.1201 16.5759C35.107 16.8248 35.0677 17.0344 35.0415 17.2178C35.0022 17.4012 34.9497 17.5584 34.8973 17.7025C34.8318 17.8466 34.7533 18.0038 34.6354 18.161C34.3603 18.5802 34.0066 18.9077 33.5743 19.1434C33.142 19.3792 32.6704 19.4972 32.1726 19.4972C31.6485 19.4972 31.1769 19.3792 30.7446 19.1434C30.3123 18.9077 29.9586 18.5802 29.6966 18.161C29.5918 18.0038 29.5001 17.8335 29.4346 17.6894C29.3691 17.5322 29.3167 17.3619 29.2905 17.1785C29.2512 16.982 29.225 16.7724 29.2119 16.5235C29.1988 16.2746 29.1857 15.9864 29.1857 15.6458V4.72048C29.1857 4.09168 29.2381 3.5939 29.3167 3.2533C29.3953 2.9127 29.5656 2.58521 29.8145 2.27081C30.1027 1.90401 30.4564 1.62896 30.8625 1.41936C31.2686 1.20977 31.7009 1.10498 32.1726 1.10498C32.6442 1.10498 33.0895 1.20977 33.5218 1.41936C33.9541 1.62896 34.3078 1.91711 34.5698 2.27081C34.7008 2.42801 34.7926 2.58525 34.8712 2.72935C34.9367 2.87345 35.0022 3.04374 35.0415 3.21404C35.0808 3.39744 35.1201 3.62015 35.1332 3.88215C35.1463 4.14414 35.1594 4.47163 35.1594 4.85152V7.40602H38.8274V4.93012C38.8274 4.20963 38.8667 3.67256 38.9584 3.31886C39.037 2.96517 39.2074 2.61141 39.4563 2.27081C39.7314 1.90401 40.0588 1.62896 40.4649 1.41936C40.8579 1.20977 41.3033 1.10498 41.7749 1.10498C42.2465 1.10498 42.692 1.20975 43.1243 1.40625C43.5566 1.60275 43.8972 1.89097 44.1723 2.24466C44.4081 2.55906 44.5784 2.89963 44.6701 3.27952C44.7618 3.65942 44.8142 4.14408 44.8142 4.72048V15.6982C44.8142 16.0126 44.788 16.2746 44.7749 16.4973C44.7618 16.72 44.7225 16.9296 44.6963 17.113C44.657 17.2964 44.6047 17.4536 44.5523 17.5977C44.4868 17.7418 44.4081 17.899 44.3164 18.0562C44.0413 18.5147 43.6876 18.8684 43.2422 19.1173C42.7968 19.3662 42.3121 19.4972 41.7881 19.4972C41.3164 19.4972 40.8711 19.3924 40.4388 19.1828C40.0196 18.9732 39.6659 18.685 39.3908 18.292C39.286 18.1348 39.1811 17.9644 39.1025 17.8204C39.0239 17.6632 38.9584 17.4929 38.9322 17.2964C38.8929 17.0999 38.8667 16.8772 38.8536 16.6152C38.8405 16.3663 38.8274 16.0519 38.8274 15.6851V13.0782H38.8144Z" fill="white"/>
<path d="M54.3904 17.0081C54.0105 17.8989 53.5782 18.5408 53.0935 18.9207C52.6088 19.3137 52.0062 19.5102 51.2857 19.4971C50.8665 19.4971 50.4736 19.4185 50.1198 19.2613C49.753 19.1041 49.4386 18.8945 49.1766 18.6194C48.9146 18.3443 48.705 18.0299 48.5478 17.6631C48.3906 17.2963 48.312 16.9165 48.312 16.4973C48.312 15.9864 48.443 15.4624 48.6919 14.9253L54.3904 2.88647C54.6393 2.32318 55.0193 1.89087 55.504 1.56337C55.9887 1.24898 56.5389 1.0918 57.1415 1.0918C57.7572 1.0918 58.3074 1.24898 58.8052 1.56337C59.2899 1.87777 59.6699 2.32312 59.945 2.91262L65.6435 15.0956C65.8794 15.5541 65.9973 16.0256 65.9973 16.5365C65.9973 16.9557 65.9187 17.3356 65.7484 17.6893C65.5912 18.043 65.3685 18.3574 65.0934 18.6325C64.8183 18.9076 64.5038 19.1172 64.137 19.2744C63.7702 19.4316 63.3903 19.5102 62.9711 19.5102C62.2768 19.5102 61.7004 19.3268 61.2419 18.9469C60.7834 18.5801 60.338 17.9251 59.9188 17.0081H54.3774H54.3904ZM58.0586 12.6852L57.1415 10.5106L56.2114 12.6852H58.0586Z" fill="white"/>
<path d="M72.7831 6.82962H71.1848C70.6608 6.82962 70.2154 6.76408 69.8617 6.63309C69.508 6.50209 69.1936 6.30556 68.9185 6.03046C68.3552 5.42787 68.0801 4.77293 68.0801 4.03934C68.0801 3.51534 68.2373 3.01753 68.5255 2.54593C68.8268 2.07434 69.1936 1.74681 69.6259 1.53722C69.7831 1.45862 69.9272 1.40622 70.0582 1.38002C70.1892 1.34072 70.3595 1.31453 70.5691 1.30143C70.7919 1.28833 71.0669 1.27527 71.4206 1.26217C71.7743 1.26217 72.246 1.24907 72.8486 1.26217H78.8877C79.3069 1.26217 79.6345 1.26217 79.8703 1.26217C80.1061 1.26217 80.2894 1.26217 80.4204 1.26217C80.5514 1.26217 80.6432 1.2621 80.7087 1.2752C80.7742 1.2883 80.8528 1.30144 80.9445 1.31454C81.665 1.40624 82.2545 1.70754 82.713 2.21843C83.1715 2.72933 83.3942 3.33194 83.3942 4.03934C83.3942 4.43233 83.3025 4.82527 83.1322 5.20516C82.9619 5.58506 82.713 5.91256 82.4117 6.18765C81.9401 6.61995 81.1672 6.84265 80.1061 6.84265H78.7699V15.8685C78.7699 16.4187 78.7306 16.851 78.6651 17.2047C78.5865 17.5453 78.4555 17.8728 78.259 18.1872C77.9839 18.6195 77.6433 18.9601 77.211 19.1959C76.7787 19.4317 76.307 19.5495 75.783 19.5495C75.2721 19.5495 74.8136 19.4447 74.3813 19.222C73.9621 18.9993 73.5952 18.6981 73.307 18.292C73.1105 17.9776 72.9664 17.6632 72.9009 17.3357C72.8223 17.0082 72.7962 16.5366 72.7962 15.9209V6.84265L72.7831 6.82962Z" fill="white"/>
<path d="M93.9007 4.86486C93.9007 4.48496 93.9006 4.15747 93.9268 3.88237C93.9399 3.60727 93.9793 3.37142 94.0317 3.17492C94.0841 2.97843 94.1626 2.79504 94.2675 2.61164C94.3723 2.44134 94.5033 2.27104 94.6605 2.11384C95.2238 1.45884 95.9574 1.13135 96.8613 1.13135C97.7653 1.13135 98.5119 1.4458 99.0883 2.08769C99.3896 2.42829 99.5993 2.79503 99.7172 3.17492C99.822 3.55482 99.8744 4.11817 99.8744 4.86486V16.0915C99.8744 16.6679 99.8089 17.1525 99.691 17.5193C99.5731 17.8861 99.3765 18.2267 99.1014 18.5411C98.8132 18.8424 98.4726 19.0913 98.0665 19.2747C97.6735 19.4581 97.2674 19.5498 96.8744 19.5498C96.4552 19.5498 96.0491 19.458 95.643 19.2877C95.2369 19.1175 94.9094 18.8817 94.6474 18.5935C94.3592 18.2922 94.1627 17.9516 94.0448 17.5848C93.94 17.218 93.8876 16.7203 93.8876 16.0915V4.86486H93.9007Z" fill="white"/>
<path d="M111.154 19.89C110.197 19.89 109.293 19.772 108.468 19.5362C107.63 19.3004 106.909 18.9729 106.293 18.5537C105.678 18.1345 105.193 17.6499 104.852 17.0997C104.512 16.5495 104.342 15.9469 104.342 15.2919C104.342 14.912 104.407 14.5583 104.551 14.2308C104.682 13.9033 104.879 13.6152 105.128 13.3794C105.377 13.1305 105.665 12.947 105.992 12.7898C106.333 12.6458 106.687 12.5672 107.066 12.5672C107.433 12.5672 107.774 12.6326 108.114 12.7767C108.455 12.9208 108.809 13.1304 109.189 13.4448C109.516 13.6937 109.778 13.9033 109.975 14.0474C110.171 14.1915 110.342 14.3094 110.459 14.388C110.59 14.4666 110.695 14.5191 110.787 14.5322C110.879 14.5453 110.983 14.5583 111.088 14.5583C111.324 14.5583 111.507 14.4928 111.651 14.3356C111.782 14.1915 111.861 13.995 111.861 13.7592C111.861 13.4448 111.704 13.1959 111.403 12.9994C111.363 12.9863 111.324 12.9601 111.285 12.9339C111.245 12.9077 111.18 12.8684 111.088 12.8422C111.01 12.8029 110.892 12.7637 110.761 12.7113C110.63 12.6589 110.433 12.5803 110.21 12.4886C109.962 12.3969 109.713 12.3052 109.477 12.2266C109.241 12.148 108.992 12.0562 108.743 11.9646C106.11 11.0345 104.8 9.31836 104.813 6.79009C104.813 5.89929 104.983 5.10023 105.311 4.36664C105.638 3.64615 106.097 3.01736 106.673 2.49337C107.25 1.96938 107.957 1.56321 108.783 1.27501C109.608 0.986814 110.512 0.842773 111.494 0.842773C112.307 0.842773 113.066 0.94756 113.774 1.15716C114.481 1.36676 115.097 1.64188 115.621 2.00868C116.145 2.36238 116.564 2.78152 116.852 3.26622C117.154 3.75091 117.298 4.26181 117.298 4.82511C117.298 5.5456 117.075 6.14817 116.643 6.60667C116.21 7.06516 115.647 7.301 114.953 7.301C114.534 7.301 114.141 7.22241 113.787 7.06521C113.42 6.90801 112.988 6.64604 112.477 6.26614C112.162 6.01724 111.927 5.83381 111.743 5.74211C111.56 5.65041 111.389 5.61115 111.232 5.61115C111.036 5.61115 110.865 5.67661 110.734 5.82071C110.603 5.96481 110.525 6.12201 110.525 6.31851C110.525 6.59361 110.643 6.80321 110.892 6.9735C111.141 7.1307 111.612 7.34033 112.32 7.57613C113.093 7.81192 113.826 8.10009 114.52 8.44068C115.215 8.78128 115.765 9.12186 116.184 9.48866C116.747 9.96025 117.193 10.576 117.52 11.3227C117.848 12.0694 118.005 12.8815 118.005 13.7592C118.005 14.5714 117.848 15.3574 117.56 16.1041C117.258 16.8508 116.839 17.5189 116.289 18.0691C115.673 18.6847 114.953 19.1433 114.127 19.4446C113.302 19.7459 112.333 19.89 111.206 19.89H111.154Z" fill="white"/>
<path d="M8.77557 55.5481C7.68826 55.5481 6.67955 55.4171 5.74943 55.142C4.80622 54.88 3.99401 54.5132 3.2997 54.0416C2.60539 53.57 2.06829 53.0329 1.67529 52.4041C1.28228 51.7884 1.09888 51.1072 1.09888 50.3736C1.09888 49.9413 1.17747 49.5484 1.33467 49.1816C1.49187 48.8148 1.70154 48.4874 1.97665 48.2254C2.25175 47.9503 2.57926 47.7276 2.95916 47.5704C3.33907 47.4132 3.74515 47.3214 4.16436 47.3214C4.57046 47.3214 4.96342 47.4001 5.34333 47.5573C5.72323 47.7144 6.1163 47.9633 6.5486 48.3039C6.91541 48.5921 7.2036 48.8148 7.43941 48.972C7.66211 49.1292 7.84549 49.2602 7.98959 49.3519C8.1337 49.4436 8.25164 49.496 8.35644 49.5222C8.46124 49.5484 8.56597 49.5483 8.69698 49.5483C8.95898 49.5483 9.16864 49.4698 9.32584 49.2995C9.48304 49.1423 9.56163 48.9196 9.56163 48.6576C9.56163 48.317 9.3913 48.0288 9.03759 47.8061C8.99829 47.7799 8.94592 47.7538 8.90662 47.7276C8.85422 47.7014 8.78868 47.662 8.69698 47.6227C8.60527 47.5834 8.48741 47.531 8.33021 47.4655C8.17301 47.4 7.96343 47.3214 7.70143 47.2166C7.41322 47.1118 7.13811 47.02 6.87611 46.9283C6.61411 46.8366 6.33899 46.745 6.05079 46.6402C3.09015 45.5922 1.62292 43.6666 1.62292 40.8239C1.62292 39.8283 1.8063 38.9112 2.1731 38.099C2.53991 37.2868 3.05079 36.5795 3.7058 35.99C4.36081 35.4005 5.14682 34.9421 6.07694 34.6146C7.00705 34.2871 8.01578 34.1299 9.11619 34.1299C10.0332 34.1299 10.8847 34.2476 11.6839 34.4834C12.483 34.7192 13.1773 35.0338 13.7668 35.4399C14.3563 35.8329 14.8148 36.3044 15.1554 36.8415C15.496 37.3786 15.6532 37.968 15.6532 38.5968C15.6532 39.409 15.4043 40.0771 14.9196 40.6011C14.4349 41.1251 13.793 41.374 13.0201 41.374C12.5485 41.374 12.1162 41.2824 11.7101 41.1121C11.304 40.9418 10.8062 40.6404 10.2429 40.2081C9.90226 39.9199 9.62715 39.7235 9.41755 39.6318C9.20795 39.527 9.02454 39.4746 8.84114 39.4746C8.61844 39.4746 8.42194 39.5532 8.27784 39.6973C8.13374 39.8414 8.04197 40.0378 8.04197 40.2605C8.04197 40.5618 8.17297 40.8108 8.44807 40.9942C8.72317 41.1776 9.26034 41.4003 10.0594 41.6623C10.9372 41.9243 11.7625 42.2518 12.5354 42.6317C13.3083 43.0116 13.9371 43.4045 14.3956 43.8105C15.0244 44.3476 15.5222 45.0289 15.8891 45.8804C16.2559 46.7319 16.4392 47.6358 16.4392 48.6183C16.4392 49.5352 16.2689 50.413 15.9283 51.2645C15.5877 52.1159 15.1161 52.8495 14.5004 53.4783C13.8061 54.1726 12.9939 54.6835 12.0637 55.0241C11.1336 55.3647 10.0463 55.5219 8.77557 55.5219V55.5481Z" fill="white"/>
<path d="M20.199 44.7407C20.199 43.2735 20.4872 41.898 21.0374 40.6142C21.5876 39.3304 22.3605 38.2169 23.3299 37.2606C24.2993 36.3043 25.439 35.5576 26.7359 35.0074C28.0329 34.4572 29.4346 34.1821 30.928 34.1821C32.4214 34.1821 33.8101 34.4703 35.1201 35.0205C36.4301 35.5838 37.5698 36.3436 38.5392 37.2999C39.5086 38.2562 40.2816 39.3829 40.8449 40.6929C41.4082 41.9898 41.6833 43.3783 41.6833 44.8454C41.6833 46.3126 41.3951 47.7013 40.8318 48.9982C40.2685 50.295 39.4955 51.4347 38.5261 52.4172C37.5567 53.3997 36.4039 54.1595 35.0939 54.7228C33.7839 55.2861 32.4083 55.5612 30.928 55.5612C29.4215 55.5612 28.0066 55.273 26.7097 54.7228C25.3997 54.1595 24.2731 53.3866 23.3037 52.4172C22.3343 51.4347 21.5745 50.295 21.0112 48.985C20.4479 47.6751 20.1727 46.2603 20.1727 44.7538L20.199 44.7407ZM26.9325 44.8192C26.9325 45.3694 27.0373 45.8935 27.2469 46.3913C27.4565 46.8891 27.7446 47.3214 28.1114 47.6882C28.4652 48.055 28.8975 48.3431 29.3822 48.5658C29.88 48.7754 30.3909 48.8933 30.9542 48.8933C31.5176 48.8933 32.0285 48.7885 32.5132 48.5789C33.011 48.3693 33.4302 48.0812 33.7839 47.7144C34.1376 47.3476 34.4257 46.9152 34.6484 46.4305C34.858 45.9458 34.9759 45.4219 34.9759 44.8717C34.9759 44.3215 34.8711 43.8105 34.6484 43.3258C34.4388 42.8411 34.1507 42.422 33.7839 42.0683C33.4302 41.7146 32.9979 41.4264 32.5132 41.2299C32.0154 41.0203 31.5045 40.9286 30.9542 40.9286C30.404 40.9286 29.88 41.0334 29.3822 41.2299C28.8844 41.4395 28.4652 41.7146 28.1114 42.0683C27.7577 42.422 27.4696 42.8413 27.2469 43.3129C27.0373 43.7845 26.9194 44.2952 26.9194 44.8454L26.9325 44.8192Z" fill="white"/>
<path d="M52.8577 47.0201V51.3037C52.8577 51.9718 52.7922 52.4958 52.6874 52.8757C52.5695 53.2556 52.373 53.6223 52.0979 53.9891C51.7704 54.3821 51.3905 54.6704 50.9451 54.8931C50.4997 55.1027 50.015 55.2075 49.5172 55.2075C48.9932 55.2075 48.4954 55.0896 48.0238 54.8538C47.5522 54.618 47.1592 54.3036 46.8317 53.8844C46.5435 53.4914 46.3601 53.1115 46.2684 52.7185C46.1767 52.3255 46.1373 51.7623 46.1373 51.0025V38.099C46.1373 36.9986 46.4779 36.1209 47.1198 35.4659C47.7618 34.8109 48.6133 34.4834 49.6744 34.4834C50.1591 34.4834 50.6045 34.5882 51.0106 34.8109C51.4037 35.0205 51.7966 35.3611 52.1896 35.8327L57.5345 42.4089V38.623C57.5345 37.9549 57.5738 37.431 57.6655 37.0511C57.7441 36.6712 57.9144 36.3174 58.1502 35.9637C58.4384 35.5183 58.8314 35.1647 59.3292 34.8896C59.827 34.6276 60.3511 34.4965 60.9013 34.4965C61.4122 34.4965 61.8837 34.6013 62.3292 34.824C62.7615 35.0336 63.1545 35.335 63.4689 35.728C63.7571 36.0948 63.9536 36.4747 64.0846 36.8808C64.2025 37.2738 64.268 37.7977 64.268 38.4265V50.8976C64.268 51.7098 64.2025 52.3255 64.0977 52.7447C63.9929 53.1639 63.7964 53.5701 63.5082 53.9499C63.2069 54.356 62.8139 54.6704 62.3554 54.88C61.8969 55.0896 61.399 55.1944 60.8619 55.1944C59.7746 55.1944 58.8838 54.7358 58.1895 53.8188L52.8577 46.9938V47.0201Z" fill="white"/>
<path d="M69.8749 38.7145C69.8749 38.2822 69.875 37.9153 69.9012 37.614C69.9274 37.3127 69.9666 37.0376 70.019 36.8149C70.0845 36.5922 70.1631 36.3827 70.281 36.1862C70.3989 35.9897 70.5431 35.8062 70.7265 35.6228C71.3553 34.8892 72.1806 34.5225 73.2024 34.5225C74.2242 34.5225 75.0626 34.8762 75.7045 35.5967C76.0451 35.9897 76.2809 36.3957 76.4119 36.8149C76.5298 37.2472 76.5953 37.8761 76.5953 38.7145V51.3426C76.5953 51.9976 76.5168 52.5349 76.3858 52.9541C76.2548 53.3733 76.0321 53.7532 75.7308 54.1069C75.4033 54.4475 75.0102 54.7226 74.5648 54.9322C74.1194 55.1287 73.6609 55.2334 73.2155 55.2334C72.7439 55.2334 72.2854 55.1285 71.8268 54.9451C71.3683 54.7486 71.0016 54.4867 70.7134 54.1592C70.3859 53.8186 70.1631 53.4387 70.0452 53.0326C69.9273 52.6265 69.8618 52.0632 69.8618 51.3558V38.7276L69.8749 38.7145Z" fill="white"/>
<path d="M87.9662 52.4302C87.5339 53.4258 87.0492 54.1463 86.5121 54.5917C85.975 55.024 85.2938 55.2467 84.4816 55.2467C84.0099 55.2467 83.5776 55.1549 83.1715 54.9846C82.7654 54.8143 82.4117 54.5655 82.1235 54.2642C81.8222 53.9629 81.5995 53.596 81.4161 53.1899C81.2327 52.7838 81.1541 52.3384 81.1541 51.8799C81.1541 51.3035 81.2982 50.7141 81.5864 50.1115L87.9924 36.5663C88.2806 35.9375 88.6998 35.4397 89.25 35.086C89.8003 34.7323 90.4159 34.5488 91.084 34.5488C91.7783 34.5488 92.394 34.7323 92.9442 35.086C93.4944 35.4397 93.9268 35.9504 94.2281 36.6054L100.634 50.308C100.896 50.8189 101.027 51.356 101.027 51.9324C101.027 52.404 100.935 52.8363 100.752 53.2293C100.569 53.6223 100.32 53.976 100.018 54.2773C99.7171 54.5786 99.3503 54.8274 98.9441 54.9977C98.538 55.168 98.0926 55.2598 97.6341 55.2598C96.8612 55.2598 96.2062 55.0501 95.6953 54.6309C95.1713 54.2117 94.6866 53.4782 94.215 52.4433H87.9793L87.9662 52.4302ZM92.0928 47.5702L91.0579 45.1204L90.0098 47.5702H92.0928Z" fill="white"/>
<path d="M111.73 47.0728V51.3563C111.73 52.0244 111.665 52.5485 111.56 52.9284C111.442 53.3083 111.245 53.6751 110.97 54.0419C110.643 54.4349 110.263 54.723 109.817 54.9457C109.372 55.1553 108.887 55.2602 108.39 55.2602C107.866 55.2602 107.368 55.1423 106.896 54.9065C106.424 54.6707 106.031 54.3563 105.704 53.9371C105.416 53.5441 105.232 53.1642 105.141 52.7712C105.049 52.3782 105.01 51.8148 105.01 51.055V38.1517C105.01 37.0513 105.35 36.1736 105.992 35.5186C106.634 34.8636 107.486 34.5361 108.547 34.5361C109.031 34.5361 109.477 34.6409 109.883 34.8636C110.276 35.0732 110.669 35.4139 111.062 35.8855L116.407 42.4616V38.6757C116.407 38.0076 116.446 37.4836 116.538 37.1037C116.616 36.7238 116.787 36.3701 117.023 36.0164C117.311 35.571 117.704 35.2174 118.202 34.9423C118.699 34.6803 119.223 34.5492 119.774 34.5492C120.285 34.5492 120.756 34.654 121.201 34.8767C121.634 35.0863 122.027 35.3877 122.341 35.7807C122.629 36.1475 122.826 36.5273 122.957 36.9334C123.075 37.3263 123.14 37.8504 123.14 38.4792V50.9503C123.14 51.7625 123.075 52.3782 122.97 52.7974C122.865 53.2166 122.669 53.6226 122.381 54.0025C122.079 54.4086 121.686 54.7231 121.228 54.9327C120.769 55.1423 120.271 55.2471 119.734 55.2471C118.647 55.2471 117.756 54.7885 117.062 53.8716L111.73 47.0466V47.0728Z" fill="white"/>
<path d="M133.11 55.1289C132.311 55.1289 131.721 55.0896 131.315 55.0241C130.922 54.9586 130.568 54.8015 130.254 54.5788C129.52 54.1072 129.049 53.4914 128.852 52.7447C128.813 52.6268 128.787 52.5089 128.773 52.391C128.76 52.2731 128.747 52.1421 128.747 51.998C128.747 51.8539 128.734 51.6574 128.734 51.4216C128.734 51.1858 128.734 50.8976 128.734 50.5439V39.3174C128.734 38.8851 128.734 38.5444 128.734 38.2955C128.734 38.0467 128.734 37.8371 128.747 37.6668C128.76 37.4965 128.773 37.3785 128.8 37.2868C128.826 37.1951 128.852 37.0903 128.891 36.9593C129.389 35.466 130.621 34.7324 132.599 34.7324H136.738C138.271 34.7324 139.634 34.942 140.839 35.3612C142.044 35.7804 143.144 36.4354 144.14 37.3393C145.227 38.2956 146.053 39.4352 146.629 40.7452C147.205 42.0552 147.507 43.457 147.494 44.9242C147.494 46.3258 147.205 47.6882 146.629 48.9851C146.053 50.282 145.253 51.4347 144.205 52.4041C143.55 53.0198 142.817 53.5306 141.978 53.9629C141.153 54.3952 140.289 54.6966 139.385 54.88C138.507 55.0372 137.354 55.1288 135.926 55.1157H133.083L133.11 55.1289ZM135.468 48.8672C136.044 48.8672 136.516 48.8672 136.909 48.841C137.302 48.8148 137.616 48.7885 137.891 48.7361C138.166 48.6837 138.376 48.6183 138.559 48.5397C138.743 48.4611 138.939 48.3432 139.136 48.1991C139.647 47.8323 140.053 47.3606 140.341 46.7842C140.642 46.2078 140.786 45.5921 140.786 44.9633C140.786 44.2035 140.59 43.5093 140.197 42.8805C139.804 42.2517 139.28 41.767 138.625 41.4395C138.297 41.2824 137.944 41.1644 137.551 41.0989C137.158 41.0334 136.647 41.0073 136.018 41.0073H135.468V48.8672Z" fill="white"/>
<path d="M159.651 55.6789C158.563 55.6789 157.555 55.5479 156.624 55.2728C155.681 55.0108 154.869 54.644 154.175 54.1724C153.48 53.7008 152.943 53.1637 152.55 52.5349C152.157 51.9061 151.974 51.2381 151.974 50.5045C151.974 50.0722 152.052 49.6792 152.21 49.3124C152.367 48.9456 152.576 48.6181 152.852 48.343C153.127 48.0679 153.454 47.8452 153.834 47.688C154.214 47.5308 154.62 47.4391 155.039 47.4391C155.445 47.4391 155.838 47.5177 156.218 47.6749C156.598 47.8321 156.991 48.081 157.424 48.4215C157.79 48.7097 158.079 48.9325 158.314 49.0897C158.537 49.2469 158.72 49.3779 158.865 49.4696C159.009 49.5613 159.127 49.6137 159.231 49.6399C159.336 49.6661 159.441 49.6661 159.572 49.6661C159.834 49.6661 160.044 49.5875 160.201 49.4172C160.358 49.26 160.437 49.0373 160.437 48.7753C160.437 48.4347 160.266 48.1464 159.913 47.9237C159.873 47.8975 159.821 47.8714 159.782 47.8452C159.729 47.819 159.664 47.7796 159.572 47.7403C159.48 47.701 159.362 47.6486 159.205 47.5831C159.048 47.5176 158.838 47.4391 158.576 47.3343C158.288 47.2295 158.013 47.1379 157.751 47.0462C157.489 46.9545 157.214 46.8626 156.926 46.7578C153.965 45.7098 152.498 43.7842 152.498 40.9416C152.498 39.946 152.681 39.029 153.048 38.2169C153.415 37.4047 153.926 36.6973 154.581 36.1078C155.236 35.5183 156.022 35.0597 156.952 34.7322C157.882 34.4048 158.891 34.2476 159.991 34.2476C160.908 34.2476 161.76 34.3655 162.559 34.6013C163.358 34.8371 164.052 35.1514 164.642 35.5575C165.231 35.9505 165.69 36.4221 166.03 36.9592C166.371 37.4963 166.528 38.0859 166.528 38.7147C166.528 39.5269 166.279 40.1948 165.795 40.7188C165.31 41.2428 164.668 41.4918 163.895 41.4918C163.423 41.4918 162.991 41.4 162.585 41.2297C162.179 41.0594 161.681 40.7582 161.118 40.3259C160.777 40.0377 160.502 39.8411 160.292 39.7494C160.083 39.6446 159.899 39.5922 159.716 39.5922C159.493 39.5922 159.297 39.6709 159.153 39.815C159.009 39.9591 158.917 40.1555 158.917 40.3782C158.917 40.6795 159.048 40.9285 159.323 41.1119C159.598 41.2953 160.135 41.518 160.934 41.7931C161.812 42.0551 162.637 42.3826 163.41 42.7625C164.183 43.1424 164.812 43.5354 165.271 43.9415C165.899 44.4786 166.397 45.1597 166.764 46.0112C167.131 46.8627 167.314 47.7666 167.314 48.749C167.314 49.666 167.144 50.5438 166.803 51.3952C166.463 52.2467 165.991 52.9804 165.375 53.6092C164.681 54.3035 163.869 54.8143 162.939 55.1549C162.009 55.4955 160.921 55.6527 159.651 55.6527V55.6789Z" fill="white"/>
<path d="M187.646 48.9454L186.323 52.5479C185.654 54.4081 184.489 55.3251 182.864 55.3251C182.026 55.3251 181.331 55.1024 180.781 54.6701C180.231 54.2378 179.786 53.5304 179.432 52.5741L178.096 48.9323L177.545 52.168C177.375 53.1504 176.995 53.9103 176.393 54.4735C175.79 55.0368 175.056 55.312 174.179 55.312C173.183 55.312 172.358 54.9713 171.729 54.2901C171.1 53.6089 170.786 52.7183 170.786 51.6441C170.786 51.5 170.786 51.3689 170.799 51.2248C170.799 51.0938 170.825 50.9498 170.851 50.8188L173.183 37.7581C173.34 36.7756 173.72 36.016 174.297 35.4527C174.873 34.8894 175.607 34.6143 176.484 34.6143C177.192 34.6143 177.86 34.8238 178.489 35.2299C179.104 35.636 179.563 36.1862 179.851 36.8805L182.877 43.6401L186.283 36.422C186.545 35.8981 186.951 35.4658 187.489 35.1252C188.026 34.7846 188.615 34.6274 189.244 34.6274C189.65 34.6274 190.069 34.7059 190.502 34.8762C190.934 35.0334 191.288 35.2692 191.576 35.5443C191.864 35.8325 192.074 36.1337 192.231 36.4612C192.388 36.7887 192.506 37.221 192.611 37.7712L194.929 50.9235C194.969 51.1462 194.995 51.3558 195.021 51.5392C195.047 51.7226 195.047 51.8929 195.047 52.0632C195.047 52.5348 194.956 52.9671 194.785 53.3601C194.615 53.7531 194.379 54.0937 194.078 54.3819C193.777 54.6701 193.436 54.8928 193.017 55.0631C192.611 55.2334 192.178 55.3251 191.733 55.3251C190.881 55.3251 190.148 55.0892 189.532 54.6176C188.916 54.146 188.55 53.5304 188.406 52.7575L187.646 48.9323V48.9454Z" fill="white"/>
<path d="M199.213 38.8327C199.213 38.4004 199.213 38.0336 199.239 37.7323C199.266 37.431 199.305 37.1558 199.357 36.9331C199.423 36.7104 199.501 36.5008 199.619 36.3043C199.737 36.1078 199.881 35.9245 200.065 35.7411C200.693 35.0075 201.519 34.6406 202.541 34.6406C203.562 34.6406 204.401 34.9944 205.043 35.7149C205.383 36.1079 205.619 36.5139 205.75 36.9331C205.868 37.3654 205.934 37.9943 205.934 38.8327V51.461C205.934 52.116 205.855 52.653 205.724 53.0722C205.593 53.4914 205.37 53.8713 205.069 54.225C204.741 54.5656 204.348 54.8407 203.903 55.0503C203.458 55.2599 202.999 55.3516 202.554 55.3516C202.082 55.3516 201.624 55.2468 201.165 55.0634C200.707 54.8669 200.34 54.605 200.052 54.2775C199.724 53.9369 199.501 53.5568 199.383 53.1507C199.266 52.7447 199.2 52.1815 199.2 51.4741V38.8458L199.213 38.8327Z" fill="white"/>
<path d="M219.178 42.5135C219.571 42.3694 219.754 42.1074 219.754 41.7144C219.754 41.4917 219.663 41.2953 219.492 41.1381C219.322 40.9809 219.125 40.8891 218.89 40.8891C218.601 40.8891 218.313 41.0726 218.038 41.4394C217.632 42.0289 217.226 42.448 216.807 42.6969C216.388 42.9458 215.877 43.0638 215.248 43.0638C214.802 43.0638 214.37 42.9721 213.977 42.8018C213.584 42.6315 213.23 42.3957 212.942 42.1075C212.641 41.8193 212.418 41.4787 212.235 41.0857C212.064 40.6927 211.973 40.2736 211.973 39.8413C211.973 39.1077 212.156 38.4134 212.536 37.7453C212.916 37.0772 213.427 36.5007 214.069 35.9898C214.711 35.4789 215.444 35.0729 216.283 34.7716C217.121 34.4703 217.999 34.313 218.916 34.313C219.951 34.313 220.92 34.5096 221.811 34.8764C222.702 35.2562 223.475 35.7803 224.13 36.4353C224.785 37.1034 225.309 37.8762 225.676 38.7801C226.042 39.684 226.226 40.6534 226.226 41.7144C226.226 43.6925 225.571 45.3169 224.261 46.6007C223.632 47.2295 222.911 47.7142 222.099 48.0679C221.287 48.4215 220.475 48.5919 219.636 48.5788C217.37 48.5788 216.178 47.5702 216.06 45.5528C216.034 45.3039 216.06 45.0549 216.152 44.806C216.23 44.5571 216.348 44.3083 216.492 44.0725C216.636 43.8367 216.807 43.6402 217.003 43.4568C217.2 43.2865 217.409 43.1555 217.632 43.0769L219.165 42.5004L219.178 42.5135ZM215.929 52.1289C215.929 51.6966 216.008 51.3036 216.178 50.9237C216.335 50.5438 216.571 50.2163 216.872 49.9412C217.174 49.653 217.514 49.4303 217.894 49.2731C218.287 49.1159 218.693 49.0243 219.112 49.0243C219.545 49.0243 219.951 49.1028 220.331 49.2731C220.711 49.4303 221.064 49.6661 221.352 49.9543C221.641 50.2556 221.877 50.5831 222.034 50.963C222.191 51.3429 222.283 51.7358 222.283 52.1681C222.283 52.6135 222.204 53.0328 222.034 53.4127C221.877 53.7926 221.641 54.1332 221.339 54.4345C221.038 54.7227 220.698 54.9584 220.318 55.1156C219.925 55.2728 219.518 55.3646 219.099 55.3646C218.182 55.3646 217.422 55.0502 216.82 54.4345C216.217 53.8188 215.916 53.0459 215.916 52.1421L215.929 52.1289Z" fill="white"/>
</svg>
