<svg width="67" height="21" viewBox="0 0 67 21" fill="none" xmlns="http://www.w3.org/2000/svg">
<path d="M4.81704 2.20884C2.81271 2.20884 2.39349 2.24815 2.34109 3.11274C2.30179 3.59743 2.31493 4.57992 2.30183 5.73271C2.30183 6.13881 2.32797 6.1388 4.7777 6.1388C5.69472 6.1388 6.66416 6.13881 7.01787 6.11261C8.14448 6.04711 8.14446 7.1082 8.14446 7.1737C8.14446 7.75009 7.77766 8.31339 7.08335 8.31339H6.97853C6.48072 8.27409 5.72094 8.24788 4.96113 8.24788C2.48519 8.24788 2.2756 8.27408 2.2756 8.69328C2.2756 11.68 2.30179 12.1385 2.34109 12.4791C2.44589 13.3961 2.76033 13.4354 5.57688 13.4354C6.75589 13.4354 8.03969 13.4092 8.4196 13.3961H8.52442C9.21873 13.3961 9.59857 13.8939 9.59857 14.4179C9.59857 14.9419 9.19251 15.5052 8.341 15.5445C8.079 15.5707 6.92614 15.5838 5.76022 15.5838C4.5943 15.5838 3.45464 15.5707 3.19263 15.5445C1.3455 15.4004 0.205751 14.7454 0.12715 12.9769C0.087849 12.1385 0.0878906 10.6583 0.0878906 9.03388C0.0878906 6.5973 0.114075 3.87252 0.153376 2.61494C0.192676 1.01675 1.24069 0.17836 2.85201 0.0866613C3.20572 0.0604616 4.35854 0.0473633 5.47205 0.0473633C6.58557 0.0473633 7.71219 0.0735614 8.01349 0.0866613C8.77331 0.125961 9.14009 0.623763 9.14009 1.14776C9.14009 1.67175 8.72085 2.22195 7.96104 2.22195C7.96104 2.22195 6.17946 2.20884 4.81704 2.20884Z" fill="white"/>
<path d="M18.7032 14.405C18.7163 13.5797 18.7425 12.0601 18.7425 10.8418C18.7425 10.0427 18.7163 9.36152 18.7032 9.03402C18.6246 7.78954 17.9172 7.29174 17.0788 7.29174C15.8605 7.29174 14.3933 8.37904 14.3409 9.71522C14.3278 10.082 14.3278 10.5405 14.3278 11.0907C14.3278 11.916 14.3409 12.9771 14.3933 14.3919C14.4195 14.8111 14.1705 15.4137 13.3714 15.4137C12.8343 15.4137 12.3103 15.0731 12.3103 14.4312V14.3919C12.3758 12.4924 12.3889 11.1693 12.3889 9.99032C12.3889 8.81133 12.3627 7.75023 12.3234 6.40095V6.36165C12.3234 5.75906 12.8998 5.45777 13.4108 5.45777C13.9217 5.45777 14.4325 5.75905 14.4325 6.40095C14.4325 6.47955 14.4064 6.54505 14.4064 6.59745V6.66295C14.4064 6.66295 14.4063 6.70225 14.4325 6.70225C14.4587 6.70225 14.4981 6.66295 14.5374 6.62365C15.2841 5.82456 16.3452 5.41846 17.3801 5.41846C19.0569 5.41846 20.6813 6.51885 20.7599 8.75893C20.7861 9.47942 20.8254 11.261 20.8254 12.7413C20.8254 13.357 20.8255 13.9203 20.7993 14.3395C20.7731 15.06 20.2752 15.4006 19.7643 15.4006C19.2534 15.4006 18.7294 15.0338 18.7294 14.405V14.3788L18.7032 14.405Z" fill="white"/>
<path d="M25.8952 13.1995C25.8952 13.5532 26.1311 13.6449 29.1572 13.6449C32.1834 13.6449 33.5064 15.1121 33.5064 16.7496C33.5064 19.4351 30.8864 20.5486 28.2009 20.5486C24.5721 20.5486 23.3014 18.7015 23.3014 17.4046C23.3014 16.3042 24.1005 15.5575 25.0569 15.1645C25.1224 15.1514 25.1616 15.099 25.1616 15.0859C25.1616 15.0466 25.1224 15.0073 24.9783 14.968C24.1922 14.7322 23.8778 14.0641 23.8778 13.5532C23.8778 12.8065 24.2446 12.1908 25.0175 11.7716C25.1616 11.6931 25.2795 11.6538 25.2795 11.5883C25.2795 11.5228 25.2141 11.4704 25.0569 11.3525C24.2708 10.7499 23.8516 9.71496 23.8516 8.87657C23.8516 6.55789 25.8559 5.37891 27.821 5.37891H27.8602C28.62 5.37891 29.4061 5.53611 30.0873 5.86361C30.2314 5.9422 30.3493 5.96841 30.4279 5.96841C30.5458 5.96841 30.6506 5.9291 30.7423 5.86361C31.3187 5.56231 31.6593 5.44441 32.0785 5.44441C32.6549 5.44441 33.4934 5.50991 33.4934 6.4793C33.4934 6.9378 33.2183 7.39629 32.655 7.39629C32.5764 7.39629 32.5109 7.39629 32.4323 7.37009C32.3275 7.35699 32.2358 7.35699 32.1703 7.35699C31.9475 7.35699 31.8689 7.42248 31.751 7.47488C31.7117 7.48798 31.6724 7.48799 31.6724 7.57968C31.6724 7.59278 31.6725 7.64519 31.6987 7.69759C31.8428 8.07749 31.882 8.27398 31.882 8.87657C31.882 10.8023 30.5589 12.1384 28.0961 12.2432C27.2577 12.2694 25.8952 12.4266 25.8952 13.2257V13.1995ZM28.214 15.3479C25.5677 15.3479 25.2926 16.9723 25.2926 17.2081C25.2926 17.3915 25.3581 18.767 28.2402 18.767C28.8035 18.767 31.3973 18.6884 31.3973 16.8675C31.3973 15.3479 29.7336 15.3479 28.214 15.3479ZM27.9127 7.08189C26.7337 7.08189 25.8166 7.82858 25.8166 8.83727C25.8166 9.36127 26.0525 10.5534 27.8341 10.5534C29.0131 10.5534 30.0218 9.97696 30.0218 8.81108C30.0218 7.90718 29.4192 7.06879 27.9258 7.06879L27.9127 7.08189Z" fill="white"/>
<path d="M36.3624 14.287C36.4017 12.8853 36.4016 10.0426 36.4016 7.35712C36.4016 4.67164 36.4017 2.13027 36.3624 1.33118C36.3361 0.610687 36.8863 0.20459 37.4627 0.20459C37.9998 0.20459 38.5369 0.571383 38.5369 1.26568V1.30497C38.5238 2.28746 38.4715 5.36594 38.4715 8.49681C38.4715 10.619 38.4976 12.7543 38.5369 14.287V14.3262C38.5369 15.0336 37.9998 15.3611 37.4627 15.3611C36.9256 15.3611 36.3624 14.9943 36.3624 14.3001V14.287Z" fill="white"/>
<path d="M42.467 1.47518C42.467 0.49269 43.3055 0.112793 43.8688 0.112793C44.5893 0.112793 45.2705 0.715388 45.2705 1.47518C45.2705 2.19567 44.7334 2.88996 43.8688 2.88996C43.0828 2.88996 42.467 2.39217 42.467 1.47518ZM43.8688 15.4789C43.3317 15.4789 42.8077 15.1383 42.8077 14.4571C42.8077 12.7935 42.8339 10.5141 42.8339 8.6932C42.8339 7.78931 42.8339 6.99022 42.8077 6.45313C42.7815 5.79813 43.2924 5.43134 43.895 5.43134C44.419 5.43134 44.9561 5.74574 44.9561 6.38763V6.42693C44.9299 7.25222 44.9168 8.8242 44.9168 10.5141C44.9168 11.8896 44.943 13.3175 44.9561 14.4178V14.4571C44.9561 15.1383 44.419 15.4789 43.8688 15.4789Z" fill="white"/>
<path d="M51.5324 15.5185C49.0957 15.5185 48.074 14.143 48.074 13.4749C48.074 12.9378 48.5717 12.5187 49.0957 12.5187C49.3709 12.5187 49.6721 12.6366 49.8948 12.9379C50.1699 13.3046 50.6939 13.6452 51.5193 13.6452C52.5804 13.6452 52.9996 13.0819 52.9996 12.6234C52.9996 11.9816 52.5542 11.6017 50.2223 10.5406C48.9778 10.0035 48.4145 9.02099 48.4145 8.03849C48.4145 6.67611 49.5411 5.35303 51.4538 5.35303C53.3664 5.35303 54.5324 6.25692 54.5324 7.02981C54.5324 7.5669 54.0738 8.0254 53.5367 8.0254C53.2747 8.0254 52.9734 7.9075 52.7114 7.6193C52.5149 7.4228 52.1481 7.13461 51.4538 7.13461C50.7595 7.13461 50.3927 7.5145 50.3927 7.9599C50.3927 8.2612 50.5892 8.61489 51.0477 8.83759C51.5717 9.09959 52.4625 9.49258 53.0651 9.82008C54.4407 10.5668 55.0302 11.5755 55.0302 12.558C55.0302 14.1168 53.5236 15.5054 51.5324 15.5054V15.5185Z" fill="white"/>
<path d="M64.6325 14.4048C64.6456 13.5796 64.6719 12.0993 64.6719 10.881C64.6719 10.095 64.6456 9.44 64.6325 9.1256C64.5539 7.76321 63.6893 7.19992 62.7723 7.19992C61.6064 7.19992 60.3357 8.07761 60.2702 9.3352C60.2571 9.702 60.2571 10.2129 60.2571 10.881C60.2571 11.798 60.2702 12.977 60.3226 14.4048C60.3488 14.824 60.0998 15.4266 59.3007 15.4266C58.7636 15.4266 58.2396 15.086 58.2396 14.4441V14.4048C58.3051 12.5054 58.3182 9.85919 58.3182 7.34402C58.3182 4.82884 58.2921 2.45776 58.2921 1.12158C58.2921 0.518983 58.8292 0.20459 59.3532 0.20459C59.8772 0.20459 60.375 0.505888 60.375 1.14778C60.3488 3.04726 60.3357 5.44453 60.3095 6.12573C60.3095 6.20433 60.3095 6.24363 60.3488 6.24363C60.375 6.24363 60.3881 6.21743 60.4536 6.17813C61.0955 5.68033 62.1173 5.33974 63.1522 5.33974C64.8552 5.33974 66.5976 6.24362 66.6762 8.785C66.7024 9.50549 66.7417 11.2871 66.7417 12.7674C66.7417 13.3831 66.7417 13.9464 66.7155 14.3655C66.6893 15.086 66.1915 15.4266 65.6806 15.4266C65.1697 15.4266 64.6456 15.0598 64.6456 14.4311V14.4048H64.6325Z" fill="white"/>
</svg>
