<svg width="114" height="28" viewBox="0 0 114 28" fill="none" xmlns="http://www.w3.org/2000/svg">
<path d="M9.31532 16.8048V22.3067C9.31532 23.1713 9.23666 23.8394 9.09256 24.3241C8.94845 24.8088 8.69961 25.2802 8.3328 25.7518C7.9136 26.2496 7.41577 26.6297 6.83936 26.9047C6.26295 27.1798 5.64725 27.3109 5.00534 27.3109C4.32413 27.3109 3.68219 27.1536 3.09268 26.8523C2.49007 26.551 1.97916 26.1319 1.57305 25.6079C1.20625 25.1101 0.970462 24.6121 0.85256 24.1143C0.734658 23.6165 0.682251 22.883 0.682251 21.9136V5.3293C0.695351 3.91451 1.11455 2.78782 1.93986 1.94943C2.76517 1.11104 3.8656 0.691895 5.22802 0.691895C5.85683 0.691895 6.42016 0.836083 6.93107 1.11118C7.44198 1.38628 7.93974 1.83169 8.43755 2.43428L15.3021 10.8836V6.01052C15.3021 5.14593 15.3545 4.47778 15.4593 3.99309C15.5641 3.50839 15.7737 3.04982 16.0881 2.60442C16.4549 2.02803 16.9658 1.56947 17.6077 1.22887C18.2496 0.888277 18.9309 0.71812 19.6383 0.71812C20.2933 0.71812 20.8958 0.862308 21.4591 1.13741C22.0225 1.4125 22.5072 1.80536 22.9264 2.30315C23.2932 2.77475 23.5552 3.27239 23.7124 3.78328C23.8696 4.29418 23.9482 4.9623 23.9482 5.77449V21.8087C23.9351 22.8567 23.8696 23.6559 23.7386 24.1799C23.6076 24.717 23.3587 25.2409 22.9919 25.7256C22.5989 26.2496 22.1011 26.6428 21.5116 26.9179C20.9221 27.193 20.2802 27.324 19.5989 27.324C18.2103 27.324 17.0575 26.7344 16.1667 25.5554L9.31532 16.7917V16.8048Z" fill="white"/>
<path d="M37.8738 27.1535C36.8781 27.1535 36.1707 27.1272 35.7515 27.0748C35.3323 27.0224 34.9393 26.9308 34.5725 26.7998C33.1839 26.2234 32.3585 25.1755 32.0965 23.6428C32.0703 23.5118 32.0441 23.3939 32.0179 23.276C31.9917 23.1581 31.9787 23.0008 31.9656 22.8174C31.9525 22.634 31.9393 22.3981 31.9524 22.123C31.9524 21.8479 31.9524 21.4813 31.9524 21.036V6.78313C31.9655 6.23293 31.9656 5.78751 31.9918 5.44691C31.9918 5.10632 32.018 4.81825 32.0573 4.59555C32.0835 4.37285 32.1227 4.17643 32.1751 4.01923C32.2275 3.86203 32.2931 3.67842 32.3717 3.46882C32.5551 2.97102 32.8433 2.53874 33.2232 2.17195C33.6031 1.80515 34.0223 1.51707 34.4677 1.30747C34.7035 1.20267 34.9131 1.12416 35.0965 1.07176C35.2799 1.01936 35.4895 0.979947 35.7384 0.953747C35.9873 0.927547 36.3017 0.914396 36.6816 0.901296C37.0615 0.901296 37.5593 0.888184 38.1882 0.888184H43.3759C44.0047 0.888184 44.5024 0.888184 44.8692 0.888184C45.236 0.888184 45.5243 0.901322 45.7339 0.927522C45.9435 0.953721 46.1138 0.979998 46.2448 1.0062C46.3758 1.0324 46.5199 1.05867 46.6771 1.08487C47.5941 1.32067 48.3146 1.77892 48.8517 2.47322C49.3888 3.15441 49.6508 3.96672 49.6508 4.88371C49.6508 5.5125 49.5199 6.11525 49.2709 6.67854C49.022 7.24184 48.6683 7.7132 48.2229 8.08C47.8299 8.4206 47.3845 8.66957 46.8867 8.81367C46.3889 8.95777 45.7339 9.02315 44.9217 9.02315H40.5986V10.8311H44.0178C45.092 10.8311 45.9435 11.1192 46.5723 11.6956C47.2011 12.272 47.5155 13.0186 47.5155 13.9356C47.5155 14.9574 47.1356 15.7829 46.3758 16.4117C46.0352 16.6737 45.6683 16.8438 45.2884 16.9355C44.9085 17.0272 44.3715 17.0667 43.6903 17.0667H40.5855V18.9923H44.5548C45.498 18.9923 46.2186 19.0708 46.7426 19.2149C47.2535 19.359 47.7251 19.6211 48.1705 19.9879C49.1137 20.8001 49.5853 21.8351 49.5853 23.0665C49.5853 23.6691 49.4543 24.2584 49.2054 24.8217C48.9565 25.385 48.6028 25.8567 48.1574 26.2234C47.9478 26.4068 47.7251 26.5642 47.5024 26.6821C47.2797 26.8 47.0308 26.8916 46.7688 26.9571C46.5068 27.0226 46.1924 27.0617 45.8387 27.0879C45.485 27.1141 45.0526 27.1273 44.5679 27.1273H37.8475L37.8738 27.1535Z" fill="white"/>
<path d="M54.904 6.90123C54.7468 6.53443 54.6288 6.1675 54.5371 5.7745C54.4454 5.3946 54.3931 5.10651 54.4062 4.89691C54.4062 4.32052 54.5241 3.78345 54.7599 3.28565C54.9957 2.78786 55.3101 2.35557 55.7031 1.98878C56.0961 1.62198 56.5546 1.33389 57.0786 1.11119C57.6026 0.88849 58.1659 0.783691 58.7686 0.783691C60.786 0.783691 62.2662 1.94948 63.2095 4.28125L65.9867 10.923L68.3055 4.04555C69.0391 1.87097 70.4408 0.783691 72.5107 0.783691C74.5805 0.783691 76.0084 1.91006 76.7944 4.16324L79.2311 11.1193L82.1 3.77018C82.4668 2.85319 83.0301 2.13281 83.7899 1.59572C84.5497 1.05862 85.4012 0.796804 86.3445 0.796804C86.9471 0.796804 87.5103 0.914716 88.0344 1.13741C88.5584 1.36011 89.0169 1.66133 89.4099 2.04123C89.8029 2.42112 90.1042 2.87967 90.3269 3.40367C90.5496 3.92766 90.6544 4.49069 90.6544 5.09328C90.6544 5.35528 90.6151 5.63054 90.5496 5.91874C90.4841 6.20694 90.34 6.61294 90.1304 7.13694L83.9078 24.036C83.0956 26.2891 81.7069 27.4155 79.7419 27.4155C77.6983 27.4155 76.2966 26.3151 75.5368 24.1143L72.6416 15.5079L69.7596 24.075C69.026 26.302 67.6505 27.4155 65.633 27.4155C63.6418 27.4155 62.2794 26.4199 61.5458 24.4287L54.8778 6.94057L54.904 6.90123Z" fill="white"/>
<path d="M104.017 27.8872C102.628 27.8872 101.331 27.7168 100.126 27.3762C98.9206 27.0356 97.8726 26.5642 96.9818 25.9616C96.091 25.359 95.3966 24.6515 94.8988 23.8524C94.401 23.0533 94.1521 22.1756 94.1521 21.2324C94.1521 20.6822 94.257 20.1714 94.4535 19.6998C94.65 19.2282 94.9251 18.8222 95.2788 18.4685C95.6325 18.1148 96.0516 17.8395 96.5363 17.6299C97.0211 17.4203 97.5451 17.3156 98.0953 17.3156C98.6193 17.3156 99.1171 17.4203 99.6018 17.6168C100.087 17.8133 100.597 18.1408 101.148 18.5862C101.619 18.953 101.999 19.2414 102.287 19.451C102.576 19.6606 102.811 19.8307 102.995 19.9486C103.178 20.0665 103.335 20.145 103.466 20.1712C103.597 20.1974 103.741 20.2106 103.899 20.2106C104.239 20.2106 104.501 20.1058 104.698 19.8962C104.894 19.6866 104.999 19.4116 104.999 19.0711C104.999 18.6257 104.776 18.2587 104.331 17.9705C104.279 17.9443 104.226 17.9181 104.161 17.8788C104.095 17.8395 104.004 17.7872 103.886 17.7348C103.768 17.6824 103.61 17.6168 103.414 17.5382C103.217 17.4596 102.955 17.3548 102.615 17.2238C102.248 17.0928 101.894 16.962 101.554 16.8441C101.213 16.7262 100.859 16.5952 100.493 16.4642C96.6936 15.128 94.794 12.6391 94.8071 8.99733C94.8071 7.71354 95.043 6.54744 95.5146 5.49945C95.9862 4.45146 96.6412 3.54748 97.4796 2.78768C98.318 2.02789 99.3399 1.43859 100.532 1.01939C101.724 0.600197 103.034 0.390625 104.449 0.390625C105.628 0.390625 106.728 0.547632 107.75 0.848929C108.772 1.15023 109.663 1.55655 110.423 2.06745C111.182 2.57834 111.772 3.18078 112.204 3.87508C112.637 4.56937 112.846 5.32914 112.846 6.14133C112.846 7.18932 112.532 8.04076 111.903 8.70885C111.274 9.37694 110.462 9.70445 109.466 9.70445C108.864 9.70445 108.3 9.58654 107.776 9.36384C107.252 9.14115 106.624 8.74829 105.89 8.1981C105.444 7.8313 105.091 7.58231 104.829 7.45131C104.567 7.32032 104.318 7.25494 104.082 7.25494C103.794 7.25494 103.545 7.3597 103.348 7.5431C103.152 7.7396 103.047 7.98858 103.047 8.27677C103.047 8.66977 103.217 8.98413 103.571 9.21992C103.925 9.45572 104.606 9.7438 105.628 10.0844C106.755 10.425 107.816 10.8441 108.811 11.3288C109.807 11.8135 110.606 12.3246 111.209 12.8486C112.021 13.5298 112.663 14.4206 113.134 15.5079C113.606 16.5952 113.842 17.7741 113.842 19.0317C113.842 20.2107 113.619 21.3505 113.187 22.4247C112.754 23.512 112.139 24.4551 111.353 25.2673C110.462 26.1581 109.414 26.8131 108.222 27.2454C107.03 27.6777 105.615 27.8872 103.99 27.8872H104.017Z" fill="white"/>
</svg>
