<svg width="60" height="60" viewBox="0 0 60 60" fill="none" xmlns="http://www.w3.org/2000/svg">
<path d="M30.064 0.419922H30.0509C13.8371 0.419922 0.693359 13.5636 0.693359 29.7769V29.7901C0.693359 46.0034 13.8371 59.1468 30.0509 59.1468H30.064C46.2777 59.1468 59.4215 46.0034 59.4215 29.7901V29.7769C59.4215 13.5636 46.2777 0.419922 30.064 0.419922Z" fill="white"/>
<path d="M18.3524 25.5327V32.6721H17.0947V25.5327H15.1821V24.3535H20.2519V25.5327H18.3392H18.3524Z" fill="#F65275"/>
<path d="M20.9592 25.2446C20.9592 25.035 21.0378 24.8514 21.195 24.6942C21.3522 24.537 21.5356 24.4585 21.7452 24.4585C21.9548 24.4585 22.1514 24.537 22.3086 24.6942C22.4658 24.8514 22.5444 25.035 22.5444 25.2446C22.5444 25.4542 22.4658 25.6506 22.3086 25.8078C22.1514 25.965 21.9679 26.0435 21.7583 26.0435C21.5487 26.0435 21.3522 25.965 21.195 25.8078C21.0378 25.6506 20.9592 25.4673 20.9592 25.2446ZM22.361 27.4191V32.659H21.1427V27.4191H22.361Z" fill="#F65275"/>
<path d="M25.099 23.5678V29.109L26.802 27.406H28.4264L26.147 29.6067L28.5967 32.6459H27.0247L25.2955 30.4321L25.099 30.6285V32.6459H23.8806V23.5547H25.099V23.5678Z" fill="#F65275"/>
<path d="M31.7015 25.5327V32.6721H30.4438V25.5327H28.5312V24.3535H33.601V25.5327H31.6884H31.7015Z" fill="#F65275"/>
<path d="M33.4438 30.0129C33.4438 29.2531 33.7189 28.6112 34.2561 28.0741C34.7932 27.537 35.4613 27.2749 36.2342 27.2749C37.0071 27.2749 37.6752 27.537 38.2254 28.0741C38.7625 28.6112 39.0376 29.2662 39.0376 30.0391C39.0376 30.812 38.7625 31.4801 38.2254 32.0172C37.6752 32.5412 37.0071 32.803 36.2211 32.803C35.4351 32.803 34.78 32.5281 34.2429 31.991C33.7058 31.4539 33.4438 30.7858 33.4438 29.9867V30.0129ZM34.6753 30.026C34.6753 30.55 34.8193 30.9691 35.0944 31.2704C35.3826 31.5848 35.7626 31.7291 36.2342 31.7291C36.7058 31.7291 37.0857 31.5717 37.3739 31.2704C37.6621 30.9691 37.793 30.5631 37.793 30.0522C37.793 29.5413 37.649 29.1353 37.3739 28.834C37.0857 28.5196 36.7058 28.3754 36.2342 28.3754C35.7626 28.3754 35.3957 28.5327 35.1075 28.834C34.8193 29.1353 34.6753 29.5413 34.6753 30.026Z" fill="#F65275"/>
<path d="M41.5267 23.5678V29.109L43.2297 27.406H44.8541L42.5747 29.6067L45.0244 32.6459H43.4523L41.7231 30.4321L41.5267 30.6285V32.6459H40.3083V23.5547H41.5267V23.5678Z" fill="#F65275"/>
</svg>
